<svg xmlns="http://www.w3.org/2000/svg" width="72" height="68" viewBox="0 0 72 68" fill="none">
    <path d="M70.9035 44.3781C71.6811 43.386 71.8755 42.3066 71.4867 41.1611C71.0843 39.969 70.0889 38.8663 69.1693 37.9441C68.2497 37.0219 67.1494 36.0279 65.9576 35.6143C65.3925 35.4121 64.7826 35.3684 64.1943 35.4881C62.8895 34.4504 61.4878 33.5402 60.0087 32.7701C61.3648 31.5883 62.4542 30.1325 63.2048 28.4988C66.4903 28.1688 68.1098 26.5088 68.5239 25.0294C68.8563 23.8471 68.485 22.6686 67.579 22.024C67.3693 21.8725 67.1405 21.7492 66.8986 21.6571C67.7809 19.2157 68.0616 16.598 67.7171 14.0254C67.3726 11.4527 66.4129 9.00072 64.9193 6.87661C63.4256 4.75249 61.4418 3.01871 59.1356 1.82179C56.8294 0.624868 54.2685 0 51.6694 0C49.0704 0 46.5095 0.624868 44.2033 1.82179C41.8971 3.01871 39.9133 4.75249 38.4196 6.87661C36.926 9.00072 35.9663 11.4527 35.6218 14.0254C35.2773 16.598 35.558 19.2157 36.4403 21.6571C36.1975 21.7494 35.9681 21.8735 35.7579 22.026C34.852 22.6705 34.4806 23.849 34.8131 25.0314C35.2311 26.5244 36.8758 28.2018 40.2216 28.5085C40.9875 30.176 42.1073 31.6572 43.5032 32.8497C43.023 33.1059 42.4126 33.4535 41.7244 33.8942H23.8172C25.8678 32.5833 27.4976 30.7111 28.5122 28.5008C31.7978 28.1707 33.4192 26.5108 33.8333 25.0314C34.1657 23.849 33.7944 22.6705 32.8884 22.026C32.6786 21.8745 32.4499 21.7511 32.208 21.659C33.0903 19.2176 33.371 16.5999 33.0265 14.0273C32.682 11.4547 31.7223 9.00266 30.2286 6.87855C28.735 4.75443 26.7512 3.02065 24.445 1.82373C22.1388 0.626808 19.5779 0.00194189 16.9788 0.00194189C14.3798 0.00194189 11.8189 0.626808 9.51269 1.82373C7.20647 3.02065 5.2227 4.75443 3.72903 6.87855C2.23537 9.00266 1.27572 11.4547 0.931203 14.0273C0.586686 16.5999 0.867427 19.2176 1.74969 21.659C1.5065 21.7518 1.27645 21.8758 1.06537 22.0279C0.161361 22.6725 -0.209963 23.8509 0.120535 25.0333C0.550182 26.5574 2.25905 28.2794 5.74094 28.528H5.79343C6.66428 30.4874 8.01475 32.1966 9.72052 33.4981C7.08432 34.4475 0.530741 37.6917 0 46.6031V67.2428C0 67.4426 0.0794726 67.6342 0.220934 67.7755C0.362395 67.9168 0.554256 67.9961 0.754312 67.9961C0.954368 67.9961 1.14623 67.9168 1.28769 67.7755C1.42915 67.6342 1.50863 67.4426 1.50863 67.2428V67.1729V52.276H7.87751V67.1729C7.88734 67.3664 7.97121 67.5486 8.11177 67.6821C8.25234 67.8155 8.43886 67.8899 8.6328 67.8899C8.82673 67.8899 9.01326 67.8155 9.15382 67.6821C9.29439 67.5486 9.37825 67.3664 9.38808 67.1729V51.5227C9.38808 51.3224 9.3084 51.1303 9.16658 50.9887C9.02475 50.8471 8.8324 50.7675 8.63183 50.7675H1.51057V46.6574C1.94799 39.3051 6.82381 36.2958 9.46585 35.2027L10.8092 37.5946C11.3436 38.5627 12.1298 39.3686 13.0848 39.9274C14.0399 40.4861 15.1284 40.7769 16.2352 40.7689C17.342 40.7767 18.4304 40.4858 19.3854 39.9271C20.3405 39.3684 21.1267 38.5625 21.6612 37.5946L22.8879 35.4124H39.6072C35.9582 38.2819 31.6578 43.2249 31.6578 50.5792V67.2467C31.6578 67.4465 31.7373 67.6381 31.8787 67.7794C32.0202 67.9206 32.2121 68 32.4121 68C32.6122 68 32.804 67.9206 32.9455 67.7794C33.087 67.6381 33.1664 67.4465 33.1664 67.2467V52.276H39.5353V67.1729C39.5353 67.3727 39.6148 67.5643 39.7563 67.7056C39.8977 67.8469 40.0896 67.9262 40.2896 67.9262C40.4897 67.9262 40.6815 67.8469 40.823 67.7056C40.9645 67.5643 41.0439 67.3727 41.0439 67.1729V51.5227C41.0439 51.3228 40.9645 51.131 40.8231 50.9894C40.6817 50.8478 40.4899 50.768 40.2896 50.7675H33.1684V50.5734C33.1684 40.8971 41.3336 35.7095 44.2187 34.1815C44.2298 34.2142 44.2434 34.246 44.2595 34.2767L50.8889 46.0769C50.954 46.1942 51.0494 46.292 51.1651 46.3601C51.2808 46.4282 51.4127 46.4641 51.547 46.4641C51.6813 46.4641 51.8131 46.4282 51.9289 46.3601C52.0446 46.292 52.1399 46.1942 52.205 46.0769L58.8344 34.2767C58.8951 34.1666 58.9272 34.0431 58.9278 33.9175C60.2505 34.5732 61.5104 35.3485 62.6916 36.2337C62.541 36.3555 62.397 36.4851 62.26 36.6219C61.4443 37.4335 60.8879 38.4685 60.6613 39.5959C60.4347 40.7233 60.548 41.8925 60.987 42.9556C61.4259 44.0186 62.1707 44.9278 63.1271 45.5681C64.0835 46.2084 65.2086 46.551 66.3601 46.5526C67.5507 46.5549 68.7131 46.1902 69.6884 45.5081C70.2176 47.1457 70.4853 48.8564 70.4816 50.5772V50.7714H63.3681C63.2689 50.7714 63.1706 50.7909 63.079 50.8289C62.9873 50.8669 62.9041 50.9226 62.834 50.9927C62.764 51.0629 62.7084 51.1461 62.6706 51.2378C62.6329 51.3294 62.6135 51.4275 62.6138 51.5266V67.1768C62.6138 67.3766 62.6933 67.5682 62.8347 67.7095C62.9762 67.8507 63.168 67.9301 63.3681 67.9301C63.5681 67.9301 63.76 67.8507 63.9015 67.7095C64.0429 67.5682 64.1224 67.3766 64.1224 67.1768V52.276H70.4913V67.2428C70.4913 67.4426 70.5708 67.6342 70.7122 67.7755C70.8537 67.9168 71.0456 67.9961 71.2456 67.9961C71.4457 67.9961 71.6375 67.9168 71.779 67.7755C71.9204 67.6342 71.9999 67.4426 71.9999 67.2428V50.5753C72.0062 48.4609 71.6349 46.3623 70.9035 44.3781ZM32.381 24.6295C32.1302 25.5226 31.1387 26.5224 29.1207 26.9029C29.4159 25.9214 29.5902 24.9076 29.6398 23.884C29.7131 23.8454 29.7789 23.7941 29.8342 23.7325C29.9489 23.6063 30.9793 22.5249 32.0097 23.2588C32.4005 23.5345 32.5404 24.0587 32.381 24.6295ZM16.9779 1.51238C19.3733 1.51174 21.7326 2.0966 23.8496 3.21591C25.9667 4.33523 27.7773 5.95498 29.1233 7.9338C30.4694 9.91263 31.31 12.1904 31.5719 14.5683C31.8337 16.9462 31.5088 19.3519 30.6255 21.5755C30.2839 21.6559 29.9563 21.7868 29.6534 21.9638V19.6632C29.6529 19.4636 29.5733 19.2723 29.4319 19.1311C29.2906 18.9899 29.099 18.9104 28.8991 18.9099H28.8175C26.8131 18.9099 23.6345 15.6288 22.5711 14.3513C22.4906 14.2553 22.3875 14.1807 22.271 14.1343C22.1545 14.088 22.0283 14.0713 21.9038 14.0857C21.7792 14.1001 21.6602 14.1453 21.5575 14.2171C21.4547 14.2889 21.3714 14.385 21.3152 14.4969C18.0102 21.0979 5.39489 18.9429 5.26852 18.9196C5.15998 18.9003 5.04852 18.905 4.94199 18.9334C4.83545 18.9618 4.73645 19.0131 4.65193 19.0838C4.56742 19.1545 4.49945 19.2429 4.45281 19.3426C4.40618 19.4424 4.38201 19.5512 4.38201 19.6613V21.7153C4.38201 21.8163 4.38201 21.9095 4.38201 22.0163C4.05659 21.8141 3.70085 21.6653 3.32831 21.5755C2.44593 19.3517 2.12179 16.9461 2.38415 14.5684C2.64652 12.1907 3.48742 9.9133 4.83352 7.9347C6.17961 5.95611 7.99002 4.33646 10.1068 3.21702C12.2236 2.09758 14.5826 1.51236 16.9779 1.51238ZM1.57472 24.6295C1.41336 24.0587 1.55528 23.5345 1.94216 23.2588C2.97448 22.5249 4.00291 23.6044 4.11761 23.7325C4.22417 23.8502 4.36487 23.9316 4.52004 23.9655C4.64624 24.982 4.86821 25.9844 5.18298 26.9592C2.92977 26.6234 1.83912 25.573 1.57472 24.6295ZM5.89258 21.7173V20.5369C8.86512 20.9252 18.3485 21.661 22.1161 16.1142C23.3409 17.4422 25.8741 19.9078 28.1429 20.3505V23.2724C28.1408 26.2188 26.9684 29.044 24.8829 31.1282C22.7973 33.2123 19.9691 34.3851 17.0187 34.3893C10.572 34.3893 5.89258 29.058 5.89258 21.7173ZM20.3431 36.8607C19.9335 37.5898 19.3369 38.1967 18.6146 38.6191C17.8923 39.0415 17.0703 39.2641 16.2333 39.2641C15.3962 39.2641 14.5743 39.0415 13.852 38.6191C13.1296 38.1967 12.533 37.5898 12.1234 36.8607L10.922 34.6999C11.0367 34.6688 11.1164 34.6514 11.1378 34.6455C11.2224 34.6268 11.3028 34.5926 11.375 34.5446C13.1228 35.4431 15.0626 35.9054 17.0284 35.892C18.4868 35.8919 19.9341 35.6383 21.3054 35.1425L20.3431 36.8607ZM67.0775 24.6295C66.8267 25.5226 65.8352 26.5224 63.8172 26.9029C64.1133 25.9216 64.2876 24.9077 64.3363 23.884C64.4091 23.8447 64.4748 23.7935 64.5307 23.7325C64.6434 23.6063 65.6738 22.5249 66.7061 23.2588C67.1066 23.5345 67.2369 24.0587 67.0775 24.6295ZM51.6743 1.51238C54.0698 1.51174 56.429 2.0966 58.5461 3.21591C60.6631 4.33523 62.4737 5.95498 63.8198 7.9338C65.1658 9.91263 66.0065 12.1904 66.2683 14.5683C66.5301 16.9462 66.2052 19.3519 65.3219 21.5755C64.9803 21.6559 64.6527 21.7868 64.3499 21.9638V19.6632C64.3499 19.5531 64.3257 19.4443 64.2791 19.3446C64.2324 19.2448 64.1645 19.1564 64.08 19.0857C63.9954 19.015 63.8964 18.9637 63.7899 18.9353C63.6834 18.907 63.5719 18.9023 63.4634 18.9216C63.337 18.9449 50.7217 21.0999 47.4167 14.4989C47.3604 14.387 47.2772 14.2908 47.1744 14.219C47.0717 14.1472 46.9527 14.1021 46.8281 14.0876C46.7036 14.0732 46.5774 14.0899 46.4609 14.1363C46.3444 14.1827 46.2413 14.2572 46.1608 14.3533C45.0857 15.6424 41.8274 18.9682 39.8561 18.9099C39.7549 18.906 39.654 18.9229 39.5597 18.9597C39.4654 18.9964 39.3796 19.0522 39.3079 19.1235C39.2351 19.1933 39.1772 19.2771 39.1378 19.3699C39.0984 19.4626 39.0782 19.5624 39.0784 19.6632V22.0143C38.753 21.8114 38.3973 21.6614 38.0247 21.5697C37.1427 19.3464 36.8187 16.9413 37.0811 14.5642C37.3436 12.1871 38.1844 9.91021 39.5303 7.93217C40.8762 5.95412 42.6864 4.33499 44.8028 3.21599C46.9192 2.09699 49.2776 1.51212 51.6724 1.51238H51.6743ZM36.2712 24.6295C36.1117 24.0587 36.2517 23.5345 36.6386 23.2588C37.6709 22.5249 38.6955 23.6005 38.8141 23.7325C38.8921 23.8176 38.9885 23.884 39.096 23.9267C39.1494 24.9414 39.3256 25.946 39.6209 26.9185C37.5407 26.5515 36.5258 25.5361 36.2712 24.6295ZM40.589 23.2704V20.3505C42.8617 19.9059 45.3948 17.4383 46.6157 16.1142C50.3834 21.661 59.8668 20.9213 62.8393 20.5369V23.2724C62.8006 26.194 61.6113 28.9829 59.5288 31.0353C57.4462 33.0877 54.6381 34.2385 51.7122 34.2385C48.7864 34.2385 45.9782 33.0877 43.8957 31.0353C41.8131 28.9829 40.6238 26.194 40.5851 23.2724L40.589 23.2704ZM51.5538 44.1704L46.1842 34.6106C47.8319 35.4158 49.6359 35.852 51.4701 35.8885C53.3042 35.9251 55.1242 35.5612 56.8029 34.8222L51.5538 44.1704ZM66.3776 45.044C65.5238 45.0453 64.6889 44.7934 63.9786 44.3204C63.2683 43.8473 62.7147 43.1743 62.3878 42.3866C62.0609 41.599 61.9755 40.7322 62.1424 39.896C62.3093 39.0599 62.721 38.292 63.3253 37.6898C63.9086 37.1073 64.4199 36.9345 64.8456 36.9345C65.0605 36.9369 65.2735 36.9756 65.4755 37.0491C66.3795 37.3578 67.3574 38.2586 68.1059 39.01C68.8544 39.7613 69.7564 40.7398 70.0617 41.6445C70.2386 42.1668 70.3241 42.8832 69.4123 43.7899C69.0133 44.1892 68.5389 44.5057 68.0167 44.7209C67.4945 44.9362 66.9347 45.046 66.3698 45.044H66.3776Z" fill="url(#paint0_linear_182_66702)"/>
    <defs>
      <linearGradient id="paint0_linear_182_66702" x1="36.6653" y1="126.972" x2="36.6653" y2="41.6341" gradientUnits="userSpaceOnUse">
        <stop stop-color="#F15B2A"/>
        <stop offset="0.34" stop-color="#EB2127"/>
        <stop offset="0.69" stop-color="#E7216A"/>
        <stop offset="1" stop-color="#B41F56"/>
      </linearGradient>
    </defs>
  </svg>