<svg xmlns="http://www.w3.org/2000/svg" width="41" height="44" viewBox="0 0 41 44" fill="none">
  <path d="M14.4503 1.30411L15.8567 1.30156L15.8668 5.38406L14.4604 5.38916L14.4503 1.30411ZM25.0339 1.27606L26.4403 1.27351L26.4504 5.35601L25.044 5.36111L25.0339 1.27606ZM6.51263 1.32451L7.91904 1.32196L7.92916 5.40446L6.52527 5.40956L6.51263 1.32451ZM32.9709 1.25566L34.3748 1.25311L34.3874 5.33561L32.981 5.34071L32.9709 1.25566ZM27.712 14.605L29.1185 14.6025L29.121 16.0203L27.7171 16.0228L27.712 14.605ZM33.0038 14.5923L34.4102 14.5897L34.4127 16.005L33.0088 16.0101L33.0038 14.5923ZM22.4228 14.6203L23.8267 14.6152L23.8317 16.033L22.4253 16.0356L22.4228 14.6203ZM6.54743 14.6611L7.95384 14.656L7.95637 16.0738L6.54996 16.0789L6.54743 14.6611ZM11.8391 14.6458L13.243 14.6433L13.2481 16.0611L11.8417 16.0636L11.8391 14.6458ZM17.1309 14.6331L18.5348 14.6305L18.5398 16.0458L17.1334 16.0509L17.1309 14.6331ZM5.925 13.4116C5.76058 13.4116 5.60123 13.4779 5.48487 13.5952C5.37104 13.7151 5.30528 13.8732 5.30528 14.0389L5.31286 16.7062C5.31286 16.8719 5.37863 17.03 5.49499 17.1473C5.61135 17.2646 5.76818 17.3309 5.93512 17.3283L8.57842 17.3232C8.92243 17.3207 9.19815 17.0402 9.19815 16.6959L9.19056 14.0287C9.19056 13.6845 8.91231 13.404 8.5683 13.4065L5.925 13.4116ZM11.2142 13.3989C11.0498 13.3989 10.893 13.4652 10.7766 13.5825C10.6602 13.6998 10.597 13.8604 10.597 14.0262L10.6046 16.6934C10.6046 16.8591 10.6704 17.0172 10.7867 17.1345C10.9031 17.2518 11.0599 17.3156 11.2243 17.3156L13.8701 17.3079C14.2142 17.3079 14.4899 17.0274 14.4899 16.6832L14.4823 14.016C14.4823 13.6692 14.204 13.3912 13.86 13.3912L11.2142 13.3989ZM16.5059 13.3836C16.3415 13.3861 16.1847 13.4524 16.0683 13.5697C15.952 13.687 15.8887 13.8451 15.8887 14.0109L15.8938 16.6781C15.8963 16.8439 15.9621 17.0019 16.0784 17.1192C16.1948 17.2365 16.3516 17.3028 16.516 17.3028L19.1619 17.2952C19.5059 17.2952 19.7816 17.0147 19.7816 16.6679L19.774 14.0007C19.774 13.6564 19.4958 13.3759 19.1517 13.3785L16.5059 13.3836ZM21.7976 13.3708C21.6332 13.3708 21.4764 13.4371 21.36 13.5544C21.2437 13.6717 21.1779 13.8324 21.1804 13.9981L21.1855 16.6653C21.1855 16.8311 21.2513 16.9892 21.3702 17.1065C21.4865 17.2238 21.6433 17.2875 21.8078 17.2875L24.4536 17.2824C24.7951 17.2799 25.0733 16.9994 25.0733 16.6551L25.0657 13.9879C25.0632 13.6437 24.785 13.3632 24.4435 13.3632L21.7976 13.3708ZM27.0894 13.3581C26.9249 13.3581 26.7681 13.4244 26.6518 13.5417C26.5354 13.659 26.4696 13.8171 26.4696 13.9828L26.4772 16.65C26.4772 16.8158 26.543 16.9764 26.6593 17.0937C26.7782 17.2085 26.9351 17.2748 27.0995 17.2748L29.7453 17.2671C30.0868 17.2671 30.365 16.9866 30.3625 16.6398L30.3574 13.9751C30.3549 13.6284 30.0767 13.3504 29.7352 13.3504L27.0894 13.3581ZM32.3811 13.3428C32.2167 13.3428 32.0598 13.4091 31.9435 13.5289C31.8271 13.6462 31.7614 13.8043 31.7614 13.9701L31.7689 16.6373C31.7689 16.8031 31.8347 16.9611 31.9511 17.0784C32.0674 17.1957 32.2268 17.262 32.3912 17.262L35.037 17.2544C35.3785 17.2518 35.6568 16.9713 35.6542 16.6271L35.6492 13.9599C35.6466 13.6156 35.3684 13.3351 35.0269 13.3377L32.3811 13.3428ZM17.1436 19.9673L18.55 19.9648L18.5525 21.38L17.1461 21.3851L17.1436 19.9673ZM27.7271 19.9393L29.131 19.9367L29.1361 21.352L27.7297 21.3571L27.7271 19.9393ZM33.0188 19.9265L34.4227 19.9214L34.4278 21.3392L33.0214 21.3418L33.0188 19.9265ZM22.4353 19.9545L23.8417 19.9494L23.8442 21.3672L22.4378 21.3698L22.4353 19.9545ZM6.55992 19.9953L7.96634 19.9902L7.96887 21.408L6.56498 21.4106L6.55992 19.9953ZM11.8516 19.98L13.2581 19.9775L13.2606 21.3953L11.8567 21.3978L11.8516 19.98ZM16.5211 18.7178C16.3566 18.7178 16.1973 18.7841 16.0809 18.904C15.9671 19.0213 15.9013 19.1794 15.9013 19.3451L15.9089 22.0123C15.9089 22.1781 15.9747 22.3362 16.0911 22.4535C16.2074 22.5708 16.3668 22.6371 16.5312 22.6371L19.177 22.6294C19.5185 22.6269 19.7942 22.3464 19.7942 22.0021L19.7866 19.3349C19.7866 18.9907 19.5084 18.7102 19.1669 18.7127L16.5211 18.7178ZM5.9375 18.7459C5.77308 18.7459 5.61626 18.8122 5.4999 18.9295C5.38354 19.0468 5.31777 19.2074 5.31777 19.3732L5.32536 22.0404C5.32536 22.2062 5.39113 22.3642 5.50748 22.4815C5.62384 22.5988 5.7832 22.6651 5.94762 22.6626L8.59345 22.6575C8.93493 22.6549 9.21317 22.3744 9.21064 22.0302L9.20558 19.3629C9.20305 19.0187 8.92481 18.7382 8.58332 18.7382L5.9375 18.7459ZM11.2292 18.7331C11.0648 18.7331 10.9054 18.7994 10.7916 18.9167C10.6753 19.034 10.6095 19.1921 10.6095 19.3579L10.6171 22.0251C10.6171 22.1908 10.6828 22.3515 10.7992 22.4688C10.9156 22.5835 11.0749 22.6498 11.2393 22.6498L13.8852 22.6422C14.2266 22.6422 14.5049 22.3617 14.5024 22.0149L14.4948 19.3502C14.4948 19.0034 14.2165 18.7255 13.8751 18.7255L11.2292 18.7331ZM21.8128 18.7051C21.6484 18.7051 21.489 18.7714 21.3727 18.8887C21.2563 19.006 21.1931 19.1666 21.1931 19.3324L21.2007 21.9996C21.2007 22.1653 21.2664 22.3234 21.3828 22.4407C21.4991 22.558 21.656 22.6218 21.8204 22.6218L24.4662 22.6141C24.8102 22.6141 25.0859 22.3336 25.0859 21.9894L25.0783 19.3222C25.0783 18.9754 24.8001 18.6974 24.4561 18.6974L21.8128 18.7051ZM27.102 18.6898C26.9376 18.6923 26.7807 18.7586 26.6644 18.8759C26.548 18.9932 26.4848 19.1513 26.4848 19.3171L26.4924 21.9843C26.4924 22.15 26.5581 22.3107 26.6745 22.4254C26.7909 22.5427 26.9477 22.609 27.1121 22.609L29.7579 22.6014C30.1019 22.6014 30.3777 22.3209 30.3777 21.9741L30.3701 19.3069C30.3701 18.9626 30.0918 18.6821 29.7478 18.6847L27.102 18.6898ZM32.3937 18.677C32.2293 18.677 32.0725 18.7433 31.9561 18.8606C31.8397 18.9779 31.7765 19.1386 31.7765 19.3043L31.7816 21.9715C31.7841 22.1373 31.8499 22.2954 31.9662 22.4127C32.0826 22.53 32.2394 22.5963 32.4038 22.5937L35.0497 22.5886C35.3937 22.5861 35.6694 22.3056 35.6694 21.9613L35.6618 19.2941C35.6618 18.9499 35.3835 18.6694 35.0395 18.6694L32.3937 18.677ZM27.7394 25.2735L29.1458 25.2709L29.1484 26.6862L27.7445 26.6913L27.7394 25.2735ZM33.0312 25.2607L34.4376 25.2556L34.4401 26.6734L33.0337 26.676L33.0312 25.2607ZM22.4476 25.2862L23.854 25.2837L23.8565 26.7015L22.4526 26.704L22.4476 25.2862ZM6.57482 25.3296L7.97871 25.3245L7.98377 26.7423L6.57735 26.7448L6.57482 25.3296ZM11.8665 25.3143L13.2704 25.3117L13.2755 26.727L11.8691 26.7321L11.8665 25.3143ZM17.1557 25.3015L18.5621 25.2964L18.5672 26.7142L17.1608 26.7168L17.1557 25.3015ZM5.94987 24.0801C5.78545 24.0801 5.62862 24.1464 5.51227 24.2637C5.39591 24.381 5.33267 24.5416 5.33267 24.7074L5.34026 27.3746C5.34026 27.5404 5.40603 27.6985 5.52239 27.8158C5.63874 27.9331 5.79557 27.9968 5.95999 27.9968L8.60581 27.9892C8.94983 27.9892 9.22554 27.7087 9.22554 27.3644L9.21795 24.6972C9.21795 24.3504 8.9397 24.0724 8.59569 24.0724L5.94987 24.0801ZM11.2416 24.0648C11.0772 24.0673 10.9203 24.1336 10.804 24.2509C10.6876 24.3682 10.6219 24.5263 10.6244 24.6921L10.6295 27.3593C10.632 27.5251 10.6978 27.6857 10.8141 27.8005C10.9305 27.9178 11.0873 27.9841 11.2517 27.9841L13.8975 27.9764C14.239 27.9764 14.5173 27.6959 14.5173 27.3491L14.5097 24.6819C14.5097 24.3376 14.2314 24.0597 13.8874 24.0597L11.2416 24.0648ZM16.5333 24.052C16.3689 24.052 16.2121 24.1183 16.0957 24.2356C15.9793 24.3529 15.9136 24.5136 15.9161 24.6793L15.9212 27.3466C15.9212 27.5123 15.9869 27.6704 16.1033 27.7877C16.2222 27.905 16.379 27.9713 16.5434 27.9688L19.1893 27.9637C19.5307 27.9611 19.809 27.6806 19.8065 27.3364L19.8014 24.6691C19.7989 24.3249 19.5206 24.0444 19.1791 24.0444L16.5333 24.052ZM21.825 24.0393C21.6606 24.0393 21.5038 24.1056 21.3874 24.2229C21.2711 24.3402 21.2053 24.5008 21.2053 24.6666L21.2129 27.3313C21.2129 27.4996 21.2787 27.6577 21.395 27.775C21.5114 27.8923 21.6707 27.956 21.8351 27.956L24.481 27.9484C24.8225 27.9484 25.1007 27.6679 25.0982 27.3236L25.0931 24.6564C25.0906 24.3096 24.8123 24.0316 24.4709 24.0316L21.825 24.0393ZM27.1167 24.024C26.9523 24.0265 26.793 24.0928 26.6791 24.2101C26.5628 24.3274 26.497 24.4855 26.497 24.6513L26.5046 27.3185C26.5046 27.4843 26.5704 27.6424 26.6867 27.7597C26.8031 27.877 26.9624 27.9433 27.1269 27.9433L29.7727 27.9356C30.1142 27.9356 30.3924 27.6551 30.3899 27.3083L30.3823 24.6411C30.3823 24.2968 30.1041 24.0163 29.7626 24.0189L27.1167 24.024ZM32.4085 24.0112C32.244 24.0112 32.0847 24.0775 31.9683 24.1948C31.8545 24.3121 31.7887 24.4728 31.7887 24.6385L31.7963 27.3058C31.7963 27.4715 31.8621 27.6296 31.9785 27.7469C32.0948 27.8642 32.2542 27.928 32.4186 27.928L35.0644 27.9229C35.4059 27.9203 35.6816 27.6398 35.6816 27.2956L35.674 24.6283C35.674 24.2815 35.3958 24.0036 35.0543 24.0036L32.4085 24.0112ZM27.7542 30.6077L29.1581 30.6026L29.1631 32.0204L27.7567 32.0255L27.7542 30.6077ZM33.0434 30.5924L34.4498 30.5899L34.4549 32.0077L33.0485 32.0102L33.0434 30.5924ZM22.4624 30.6205L23.8663 30.6179L23.8714 32.0332V32.0357L22.4649 32.0383L22.4624 30.6205ZM6.58706 30.6613L7.99347 30.6587L7.996 32.0765L6.59211 32.0791L6.58706 30.6613ZM11.8788 30.6485L13.2852 30.646L13.2877 32.0612L11.8813 32.0663L11.8788 30.6485ZM17.1705 30.6358L18.5744 30.6307L18.5794 32.0485L17.173 32.051L17.1705 30.6358ZM5.96463 29.4143C5.80021 29.4143 5.64085 29.4806 5.52703 29.5979C5.41067 29.7152 5.3449 29.8759 5.3449 30.0416L5.35249 32.7089C5.35249 32.8746 5.41826 33.0327 5.53462 33.15C5.65098 33.2673 5.81033 33.331 5.97475 33.331L8.62058 33.3234C8.96206 33.3234 9.23777 33.0429 9.23777 32.6987L9.23018 30.0314C9.23018 29.6846 8.95194 29.4067 8.61046 29.4067L5.96463 29.4143ZM11.2563 29.399C11.0919 29.4016 10.9326 29.4679 10.8162 29.5852C10.7024 29.7025 10.6366 29.8606 10.6366 30.0263L10.6442 32.6936C10.6442 32.8593 10.71 33.0174 10.8263 33.1347C10.9427 33.252 11.1021 33.3183 11.2665 33.3183L13.9098 33.3106C14.2538 33.3106 14.5295 33.0301 14.5295 32.6834L14.5219 30.0161C14.5219 29.6719 14.2437 29.3914 13.8997 29.3939L11.2563 29.399ZM16.5455 29.3863C16.3811 29.3863 16.2243 29.4526 16.1079 29.5699C15.9916 29.6872 15.9284 29.8478 15.9284 30.0136L15.9359 32.6808C15.9359 32.8466 16.0017 33.0046 16.1181 33.1219C16.2344 33.2393 16.3913 33.303 16.5557 33.303L19.2015 33.2979C19.5455 33.2953 19.8212 33.0149 19.8212 32.6706L19.8136 30.0034C19.8136 29.6566 19.5354 29.3786 19.1914 29.3786L16.5455 29.3863ZM21.8373 29.3735C21.6728 29.3735 21.516 29.4398 21.3997 29.5571C21.2833 29.6744 21.2201 29.8325 21.2201 29.9983L21.2251 32.6655C21.2277 32.8313 21.2934 32.9919 21.4098 33.1092C21.5261 33.2239 21.683 33.2902 21.8474 33.2902L24.4932 33.2826C24.8372 33.2826 25.1129 33.0021 25.1129 32.6553L25.1054 29.9881C25.1054 29.6438 24.8271 29.3659 24.4831 29.3659L21.8373 29.3735ZM27.129 29.3582C26.9646 29.3582 26.8077 29.4245 26.6914 29.5418C26.575 29.6617 26.5093 29.8198 26.5118 29.9855L26.5169 32.6528C26.5194 32.8185 26.5851 32.9766 26.7015 33.0939C26.8179 33.2112 26.9747 33.2775 27.1391 33.2775L29.7849 33.2698C30.1264 33.2673 30.4047 32.9868 30.4047 32.6426L30.3971 29.9753C30.3971 29.6311 30.1163 29.3506 29.7748 29.3531L27.129 29.3582ZM32.4207 29.3455C32.2563 29.3455 32.0995 29.4118 31.9831 29.5291C31.8667 29.6464 31.801 29.807 31.8035 29.9728L31.8086 32.64C31.8086 32.8058 31.8743 32.9638 31.9907 33.0812C32.1096 33.1984 32.2664 33.2622 32.4308 33.2622L35.0767 33.2545C35.4181 33.2545 35.6964 32.974 35.6939 32.6298L35.6888 29.9626C35.6863 29.6158 35.408 29.3378 35.0665 29.3378L32.4207 29.3455ZM17.1832 35.97L18.5896 35.9649L18.5921 37.3827L17.1882 37.3853L17.1832 35.97ZM6.59962 35.9955L8.00603 35.993L8.01109 37.4108L6.60468 37.4133L6.59962 35.9955ZM11.8913 35.9828L13.2978 35.9777V35.9802L13.3003 37.3955L11.8964 37.4006L11.8913 35.9828ZM27.7667 35.942L29.1731 35.9369L29.1756 37.3547L27.7692 37.3572L27.7667 35.942ZM33.0584 35.9267L34.4623 35.9241L34.4674 37.3419L33.0609 37.3445L33.0584 35.9267ZM22.4748 35.9547L23.8813 35.9522L23.8838 37.3674L22.4799 37.3725L22.4748 35.9547ZM5.97719 34.7485C5.81277 34.7485 5.65595 34.8148 5.53959 34.9321C5.42323 35.0494 5.35747 35.2075 5.36 35.3733L5.36506 38.0405C5.36506 38.2063 5.43082 38.3669 5.54971 38.4842C5.66607 38.599 5.8229 38.6653 5.98732 38.6653L8.63314 38.6576C8.97462 38.6576 9.25287 38.3771 9.25034 38.0303L9.24528 35.3656C9.24275 35.0188 8.96451 34.7409 8.62302 34.7409L5.97719 34.7485ZM11.2689 34.7332C11.1045 34.7332 10.9477 34.7995 10.8313 34.9194C10.715 35.0367 10.6492 35.1948 10.6492 35.3605L10.6568 38.0278C10.6568 38.1935 10.7225 38.3516 10.8389 38.4689C10.9553 38.5862 11.1146 38.6525 11.279 38.6525L13.9249 38.6449C14.2663 38.6423 14.5446 38.3618 14.5421 38.0176L14.537 35.3503C14.5345 35.0061 14.2562 34.7256 13.9147 34.7281L11.2689 34.7332ZM16.5606 34.7205C16.3962 34.7205 16.2394 34.7868 16.123 34.9041C16.0067 35.0214 15.9409 35.182 15.9409 35.3478L15.9485 38.015C15.9485 38.1808 16.0143 38.3389 16.1306 38.4562C16.247 38.5735 16.4063 38.6372 16.5708 38.6372L19.2166 38.6296C19.5581 38.6296 19.8363 38.3491 19.8338 38.0048L19.8287 35.3376C19.8262 34.9908 19.5479 34.7128 19.2065 34.7128L16.5606 34.7205ZM21.8524 34.7077C21.6879 34.7077 21.5286 34.774 21.4148 34.8913C21.2984 35.0086 21.2326 35.1667 21.2326 35.3325L21.2402 37.9997C21.2402 38.1655 21.306 38.3261 21.4223 38.4409C21.5387 38.5582 21.6981 38.6245 21.8625 38.6245L24.5083 38.6168C24.8498 38.6168 25.1255 38.3363 25.1255 37.9895L25.1179 35.3223C25.1179 34.978 24.8397 34.6975 24.4982 34.7001L21.8524 34.7077ZM27.1441 34.6924C26.9797 34.6924 26.8203 34.7587 26.7039 34.876C26.5901 34.9933 26.5243 35.154 26.5243 35.3197L26.5319 37.987C26.5319 38.1527 26.5977 38.3108 26.7141 38.4281C26.8304 38.5454 26.9872 38.6117 27.1542 38.6092L29.7975 38.6041C30.1415 38.6015 30.4172 38.321 30.4172 37.9768L30.4096 35.3095C30.4096 34.9653 30.1314 34.6848 29.7874 34.6848L27.1441 34.6924ZM32.4333 34.6797C32.2688 34.6797 32.112 34.746 31.9957 34.8633C31.8793 34.9806 31.8161 35.1387 31.8161 35.307L31.8237 37.9717C31.8237 38.14 31.8894 38.2981 32.0058 38.4154C32.1221 38.5327 32.279 38.5964 32.4434 38.5964L35.0892 38.5888C35.4332 38.5888 35.7089 38.3083 35.7089 37.964L35.7014 35.2968C35.7014 34.95 35.4231 34.672 35.0791 34.672L32.4333 34.6797ZM0.622398 9.34053L40.3075 9.23854H39.6853L39.7586 37.9229H39.7612C39.7586 37.9331 39.7586 37.9458 39.7586 37.956C39.7055 39.1597 39.5993 39.9068 39.4374 40.1975C39.4222 40.223 39.4096 40.251 39.3995 40.2791C39.1237 41.0084 38.6836 41.5668 38.0816 41.9569C37.8817 42.0844 37.6617 42.1966 37.4214 42.291C36.7738 42.4975 36.3742 42.6021 36.2249 42.6046H36.2097C36.1566 42.6046 36.1035 42.6123 36.0504 42.625C35.9315 42.648 35.6279 42.6658 35.1398 42.6735H35.0993L32.4559 42.6813H32.4534L32.451 42.6811H32.4484H32.4434L6.00257 42.7474L6.00025 42.7476V42.7501C6.00025 42.7476 5.99772 42.7476 5.99772 42.7476C2.8839 42.7578 1.32297 41.192 1.3154 38.0504V38.0529V38.0325L1.24204 9.33774L0.622398 9.34053ZM5.8888 0.0767568C5.72438 0.0767568 5.56755 0.143054 5.4512 0.260355C5.33484 0.377655 5.26907 0.535754 5.27161 0.701498L5.28425 6.03605C5.28425 6.2018 5.35002 6.3599 5.46638 6.4772C5.58273 6.5945 5.74209 6.6608 5.90651 6.6608L8.55234 6.65315C8.89382 6.65315 9.17206 6.37265 9.16953 6.02585L9.16447 3.98333L13.2167 3.97313L13.2218 6.01565C13.2218 6.1814 13.2875 6.3395 13.4039 6.4568C13.5203 6.5741 13.6796 6.64039 13.844 6.64039L16.4873 6.63274C16.8313 6.63274 17.1071 6.35224 17.1071 6.00545L17.102 3.96293L23.7977 3.94763L23.8027 5.9876C23.8053 6.15335 23.871 6.314 23.9874 6.4313C24.1037 6.54605 24.2606 6.61235 24.425 6.61235L27.0708 6.6047C27.4148 6.6047 27.6905 6.3242 27.6905 5.9774L27.6855 3.93742L31.7352 3.92467L31.7403 5.9672C31.7403 6.13295 31.806 6.29359 31.9249 6.40834C32.0413 6.52564 32.1981 6.59194 32.3625 6.59194L35.0084 6.58429C35.3498 6.58429 35.6281 6.30379 35.6255 5.957L35.6205 3.93738C38.1247 4.11843 39.4704 5.4674 39.6601 7.98927L1.25969 8.08871C1.43928 5.56678 2.77742 4.21021 5.27904 4.0164L5.27651 2.7618H5.27398C1.75545 2.97345 -0.00252273 4.9497 2.71708e-06 8.693V8.71595V8.74145L0.0733568 38.0381H0.0758863C0.073357 38.0432 0.0733568 38.0483 0.0733568 38.056V38.0789C0.0758862 38.0866 0.0758863 38.0917 0.0758863 38.0968C0.0986516 42.0416 2.07164 44.0076 5.99741 44H5.99994H6.01006L32.456 43.9311L34.8085 43.9235V43.926L32.4636 43.9311C32.9897 43.9337 33.4653 43.9362 33.8852 43.9337C34.3101 43.9337 34.6795 43.9311 34.9931 43.9235H34.9956V43.926L35.1044 43.9235C35.1246 43.9235 35.1448 43.9235 35.1651 43.9209C35.7418 43.9082 36.1162 43.8852 36.2882 43.8546C36.569 43.8368 37.08 43.7118 37.8186 43.4772C37.8312 43.4721 37.8438 43.467 37.8565 43.4645C38.1777 43.337 38.4762 43.1865 38.7494 43.0106C39.5689 42.4802 40.1659 41.7356 40.5403 40.7717C40.7856 40.2974 40.9374 39.3769 40.9981 38.0126V37.9769C41.0006 37.9591 41.0006 37.9387 40.9981 37.9208L40.9247 8.64439V8.61124V8.58574C40.907 4.84491 39.1389 2.87635 35.6179 2.68253L35.6128 0.62219C35.6128 0.277947 35.3346 0 34.9906 0L32.3447 0.00764991C32.1803 0.00764991 32.0235 0.0739475 31.9071 0.191248C31.7908 0.308548 31.7275 0.466642 31.7275 0.632393L31.7326 2.67491L27.6804 2.68511L27.6753 0.645138C27.6753 0.298342 27.397 0.020396 27.0556 0.020396L24.4097 0.0280459C24.2453 0.0280459 24.086 0.0943435 23.9696 0.211644C23.8558 0.328944 23.79 0.487038 23.79 0.652789L23.7951 2.69531L17.0994 2.71316L17.0943 0.670639C17.0918 0.326395 16.8136 0.0458958 16.4721 0.0484482L13.8263 0.0535481C13.6618 0.0560979 13.505 0.122398 13.3887 0.239698C13.2723 0.356999 13.2065 0.515098 13.2065 0.680842L13.2116 2.72336L9.16187 2.73356L9.15681 0.691042C9.15429 0.346798 8.87604 0.0688529 8.53456 0.0688529L5.8888 0.0767568Z" fill="#383737"/>
</svg>