<svg xmlns="http://www.w3.org/2000/svg" width="74" height="81" viewBox="0 0 74 81" fill="none">
    <path d="M73.4992 21.644H59.357L64.0708 16.9302C57.7748 10.6342 49.4041 7.16667 40.501 7.16667C31.597 7.16667 23.2263 10.6342 16.9303 16.9302C10.6343 23.2253 7.16764 31.596 7.16764 40.5C7.16764 42.3409 5.6752 43.8333 3.83431 43.8333C1.99342 43.8333 0.500977 42.3409 0.500977 40.5C0.500977 29.8156 4.66187 19.7702 12.2174 12.2156C19.7721 4.66089 29.8165 0.5 40.501 0.5C51.1854 0.5 61.2299 4.66089 68.7845 12.2156L73.4992 7.50089V21.644Z" fill="#B41F56"/>
    <path d="M40.4818 73.833C42.3218 73.833 43.8151 75.3263 43.8151 77.1663C43.8151 79.0063 42.3218 80.4997 40.4818 80.4997C38.6329 80.4997 37.1484 79.0063 37.1484 77.1663C37.1484 75.3263 38.6427 73.833 40.4818 73.833Z" fill="#B41F56"/>
    <path d="M54.514 71.0625C56.354 71.0625 57.8473 72.5558 57.8473 74.3958C57.8473 76.2358 56.354 77.7292 54.514 77.7292C52.6651 77.7292 51.1807 76.2358 51.1807 74.3958C51.1807 72.5558 52.6749 71.0625 54.514 71.0625Z" fill="#B41F56"/>
    <path d="M66.43 63.0957C68.27 63.0957 69.7633 64.589 69.7633 66.429C69.7633 68.269 68.27 69.7624 66.43 69.7624C64.5811 69.7624 63.0967 68.269 63.0967 66.429C63.0967 64.589 64.5909 63.0957 66.43 63.0957Z" fill="#B41F56"/>
    <path d="M26.4525 71.0449C28.2925 71.0449 29.7858 72.5383 29.7858 74.3783C29.7858 76.2183 28.2925 77.7116 26.4525 77.7116C24.6036 77.7116 23.1191 76.2183 23.1191 74.3783C23.1191 72.5383 24.6125 71.0449 26.4525 71.0449Z" fill="#B41F56"/>
    <path d="M14.5687 63.0957C16.4087 63.0957 17.902 64.589 17.902 66.429C17.902 68.269 16.4087 69.7624 14.5687 69.7624C12.7198 69.7624 11.2354 68.269 11.2354 66.429C11.2354 64.589 12.7296 63.0957 14.5687 63.0957Z" fill="#B41F56"/>
    <path d="M6.61654 51.2021C8.45654 51.2021 9.94987 52.6955 9.94987 54.5355C9.94987 56.3755 8.45654 57.8688 6.61654 57.8688C4.76765 57.8688 3.2832 56.3755 3.2832 54.5355C3.2832 52.6955 4.77743 51.2021 6.61654 51.2021Z" fill="#B41F56"/>
    <path d="M60.501 48.5001V49.2459C60.501 52.1828 59.3339 55.0005 57.2574 57.077C55.0654 59.269 52.093 60.5001 48.9943 60.5001C46.925 60.5001 44.893 59.9508 43.1063 58.9081C34.4059 53.8334 27.1676 46.5952 22.093 37.8956C21.0503 36.1081 20.501 34.0761 20.501 32.0076C20.501 28.9081 21.7321 25.9356 23.9241 23.7445C26.0014 21.6672 28.8183 20.501 31.7552 20.501H32.501L36.501 31.1676L32.501 35.1668C36.0219 40.4476 40.5534 44.9792 45.8343 48.5001L49.8343 44.5001L60.501 48.5001Z" fill="#B41F56"/>
  </svg>