<svg xmlns="http://www.w3.org/2000/svg" width="85" height="81" viewBox="0 0 85 81" fill="none">
  <path d="M63.3853 45.7461C65.7723 45.7461 67.923 44.3068 68.8378 42.1035C69.7525 39.8969 69.2477 37.3592 67.5592 35.6706C65.8706 33.9821 63.3329 33.4772 61.1263 34.392C58.923 35.3067 57.4837 37.4575 57.4837 39.8444C57.4837 43.1035 60.1263 45.7461 63.3853 45.7461ZM63.3853 36.5653C64.7099 36.5653 65.9066 37.3653 66.4149 38.5883C66.9231 39.8145 66.6411 41.2243 65.7034 42.1621C64.7657 43.0998 63.3558 43.3817 62.1296 42.8735C60.9067 42.3653 60.1066 41.1687 60.1066 39.844C60.1066 38.0342 61.5755 36.5653 63.3853 36.5653Z" fill="url(#paint0_linear_510_14217)"/>
  <path d="M81.7461 64.1066V58.8607C81.7527 58.4115 81.5298 57.9918 81.156 57.746C81.1593 57.6804 81.1593 57.6148 81.156 57.5493V56.9591C81.1429 55.9985 80.4609 55.1788 79.5167 54.9918L77.4183 54.5984L69.8772 47.9098C69.3494 47.3557 68.6117 47.0475 67.8444 47.0574H57.7462C56.9692 47.0639 56.2315 47.3951 55.7134 47.9754L51.7134 52.4345L48.7626 50.0082C48.5364 49.8378 48.261 49.746 47.9757 49.746H47.779L44.8937 50.0082C43.8478 50.1099 43.0511 50.9919 43.0577 52.0411V52.9591C43.0773 53.9395 43.7954 54.7689 44.7625 54.9264L46.3363 55.1231L49.7462 58.992C50.238 59.5461 50.9331 59.8805 51.6708 59.9199C52.4118 59.956 53.1364 59.6937 53.6806 59.1888L56.1725 57.0248V61.6806L56.3036 77.222C56.3036 77.5695 56.4413 77.9039 56.6872 78.1499C56.9331 78.3958 57.2676 78.5335 57.6151 78.5335H61.025C61.6774 78.54 62.2381 78.0646 62.3365 77.4187L62.861 73.681L63.3856 77.4187C63.484 78.0646 64.0447 78.54 64.6971 78.5335H68.107C68.8053 78.5335 69.3824 77.9859 69.4185 77.2875L70.0742 61.8117V56.6313L74.0086 58.992V64.1068H73.4841C72.3267 64.1068 71.3857 65.0478 71.3857 66.2051V77.8116C71.3857 78.969 72.3267 79.91 73.4841 79.91H82.4676C83.025 79.91 83.5594 79.6903 83.9528 79.2969C84.3462 78.9034 84.5659 78.369 84.5659 77.8117V66.2052C84.5659 65.6478 84.3463 65.1133 83.9528 64.7199C83.5594 64.3265 83.0249 64.1068 82.4676 64.1068L81.7461 64.1066ZM69.3523 53.1557C68.9491 52.9229 68.454 52.9196 68.0507 53.1491C67.6441 53.3786 67.3916 53.8049 67.3851 54.2704V61.7458L66.7949 75.9098H65.7457L64.3031 64.8933C64.3457 64.7655 64.3654 64.6343 64.3686 64.4999L64.1719 61.6802C64.1719 60.9556 63.585 60.3687 62.8604 60.3687C62.1358 60.3687 61.549 60.9556 61.549 61.6802L61.3522 64.4999C61.3555 64.6343 61.3752 64.7655 61.4178 64.8933L59.844 75.9098H58.9259L58.7948 61.6803V54.0737C58.7882 53.5655 58.4899 53.1033 58.0276 52.8934C57.562 52.6803 57.0178 52.759 56.6308 53.0902L51.975 57.2869H51.8439L48.1062 53.0246C47.9062 52.782 47.6275 52.6181 47.3193 52.5656H47.5816L50.5324 54.9918C51.3718 55.6967 52.6177 55.6115 53.3521 54.7951L57.7456 49.877H67.9756L68.1067 50.0082L75.9756 56.959C76.1592 57.1295 76.3855 57.2409 76.6314 57.2868H77.156L76.3035 57.418L69.3523 53.1557ZM76.4999 60.1721H79.1228V64.1065H76.4999V60.1721ZM81.7458 77.2209H73.8769V66.7291H81.7458V77.2209Z" fill="url(#paint1_linear_510_14217)"/>
  <path d="M3.05718 77.877C3.05718 78.5721 3.33259 79.241 3.8244 79.7328C4.31621 80.2246 4.98505 80.5 5.68011 80.5H6.99159C7.68667 80.5 8.35553 80.2246 8.84731 79.7328C9.33912 79.2409 9.61452 78.5721 9.61452 77.877V77.2213H45.0249V77.877C45.0249 78.5721 45.3003 79.241 45.7921 79.7328C46.284 80.2246 46.9528 80.5 47.6479 80.5H48.9593C49.6544 80.5 50.3233 80.2246 50.8151 79.7328C51.3069 79.2409 51.5823 78.5721 51.5823 77.877V66.9261L51.3855 66.6638L43.9101 57.4175L43.2544 57.1553L43.0577 57.0241L42.5987 56.7618L42.4675 56.6307L42.0741 56.3028L41.5495 55.7782H41.4839C40.8937 55.0241 40.5527 54.1093 40.5003 53.1552C40.274 52.9848 39.9986 52.8929 39.7134 52.8929H14.7948C14.3817 52.8929 13.9948 53.0864 13.7456 53.4175L13.5489 53.6798V41.8106C13.5489 41.086 14.1358 40.4992 14.8604 40.4992H39.7789C40.1265 40.4992 40.4609 40.6369 40.7068 40.8828C40.9528 41.1287 41.0905 41.4631 41.0905 41.8107V49.614C41.6839 48.6369 42.6183 47.9124 43.7134 47.5812V41.8107C43.7134 39.6369 41.9527 37.8762 39.779 37.8762H14.8604C12.6867 37.8762 10.926 39.6369 10.926 41.8107V55.7119C10.9292 56.0267 11.0473 56.3283 11.2538 56.5644L10.6637 57.3512C10.4014 57.0463 10.0145 56.8758 9.61448 56.8922H6.99152V51.6463H8.95879C9.35878 51.6398 9.73584 51.4496 9.97843 51.1283C10.221 50.8102 10.3063 50.3971 10.2047 50.007L8.89317 44.7611C8.74563 44.1906 8.23743 43.7873 7.64725 43.7774H3.7128C3.12264 43.7873 2.61443 44.1906 2.46687 44.7611L1.15539 50.007C1.05376 50.3972 1.139 50.8103 1.38162 51.1283C1.62424 51.4496 2.0013 51.6398 2.40126 51.6463H4.36853V56.8922H1.74556C1.02097 56.8922 0.434082 57.4791 0.434082 58.2037V64.7611C0.434082 65.1086 0.571785 65.4431 0.817689 65.689C1.06359 65.9349 1.39802 66.0726 1.74559 66.0726H3.71285L3.12269 66.8595V67.1218H3.05712L3.05718 77.877ZM4.76207 46.4015H6.59814L7.25388 49.0245H4.10633L4.76207 46.4015ZM48.9588 77.877H47.6473V75.9098C47.6473 75.5622 47.5096 75.2278 47.2637 74.9819C47.0178 74.736 46.6833 74.5983 46.3358 74.5983H8.30325C7.57866 74.5983 6.99177 75.1852 6.99177 75.9098V77.877H5.68029V68.6962H48.9587L48.9588 77.877ZM15.3849 55.5823H38.9915L47.5159 66.0742H7.05684L15.3849 55.5823ZM3.05651 63.4512V59.5168H8.30244V60.3036L5.81058 63.4512H3.05651Z" fill="url(#paint2_linear_510_14217)"/>
  <path d="M32.0408 31.1227C32.0965 31.6441 32.4572 32.0834 32.9589 32.2375C34.2376 32.608 35.5917 32.6539 36.8933 32.3686C38.749 32.7686 40.6671 32.7916 42.5327 32.4342C43.1786 32.3358 43.654 31.7752 43.6475 31.1227V3.12296C44.3721 3.12296 44.959 2.53607 44.959 1.81148C44.959 1.08689 44.3721 0.5 43.6475 0.5H6.99147C6.26688 0.5 5.67999 1.08689 5.67999 1.81148C5.67999 2.53607 6.26688 3.12296 6.99147 3.12296H7.64721V31.189C7.64066 31.8415 8.11607 32.4021 8.76195 32.5005C9.65376 32.6317 10.5521 32.6972 11.4505 32.6972C12.3619 32.7136 13.2702 32.5792 14.139 32.3038C15.3816 32.612 16.6734 32.6776 17.9422 32.5005C18.5422 32.412 19.0012 31.9235 19.057 31.3202C19.116 30.212 18.9848 29.1039 18.6635 28.0416H32.3684C32.0864 29.0449 31.9782 30.0842 32.0405 31.1236L32.0408 31.1227ZM41.0898 30.008C39.8636 30.1916 38.6144 30.1228 37.4177 29.8113C37.0832 29.6637 36.7029 29.6637 36.3685 29.8113C35.8406 29.9883 35.2767 30.0342 34.7292 29.9424C34.9915 27.2539 37.1554 23.3195 38.0735 21.8768C38.4046 21.3522 38.3226 20.6703 37.8767 20.2375C31.1226 14.0735 31.5816 3.45055 31.5816 3.38508C31.5882 3.31951 31.5882 3.25393 31.5816 3.18836H41.0898L41.0898 30.008ZM22.0081 3.25383H24.0409V14.2703H20.172C21.4802 10.749 22.1032 7.00798 22.0081 3.25383ZM26.6639 3.12269H28.959C28.8475 6.92266 29.4705 10.7064 30.795 14.2701H26.6639V3.12269ZM14.7292 29.7459C14.339 29.5131 13.8472 29.5361 13.4832 29.8115C13.2865 29.8771 12.4341 30.2049 10.3357 30.0082V3.12311H19.3847C19.3781 3.18868 19.3781 3.25426 19.3847 3.31984C19.4568 7.24445 18.6732 11.1395 17.0896 14.7299C16.965 14.884 16.8732 15.0611 16.8273 15.2545C15.9355 17.1004 14.7126 18.766 13.2207 20.1726C12.7748 20.6054 12.6928 21.2873 13.024 21.8119C13.942 23.2546 16.106 27.2546 16.4338 29.9431C15.8568 29.9824 15.28 29.9164 14.7292 29.7459ZM15.8439 21.3525C17.0964 20.0213 18.1554 18.5197 18.9915 16.8934H24.0406V25.4178H17.8111C17.2209 24.0211 16.539 22.6638 15.7783 21.3522L15.8439 21.3525ZM26.6639 25.4181V16.8937H31.9754C32.8311 18.5232 33.9131 20.0249 35.1885 21.3527C34.4443 22.6642 33.7852 24.0216 33.2213 25.4183L26.6639 25.4181Z" fill="url(#paint3_linear_510_14217)"/>
  <path d="M75.8446 69.3526C75.12 69.3526 74.5331 69.9395 74.5331 70.664V73.287C74.5331 74.0116 75.12 74.5985 75.8446 74.5985C76.5692 74.5985 77.1561 74.0116 77.1561 73.287V70.664C77.1561 70.3165 77.0184 69.9821 76.7725 69.7361C76.5266 69.4902 76.1922 69.3526 75.8446 69.3526Z" fill="url(#paint4_linear_510_14217)"/>
  <path d="M78.4677 70.6643V73.2872C78.4677 74.0118 79.0545 74.5987 79.7791 74.5987C80.5037 74.5987 81.0906 74.0118 81.0906 73.2872V70.6643C81.0906 69.9397 80.5037 69.3528 79.7791 69.3528C79.0545 69.3528 78.4677 69.9397 78.4677 70.6643Z" fill="url(#paint5_linear_510_14217)"/>
  <defs>
    <linearGradient id="paint0_linear_510_14217" x1="57.5012" y1="40.1407" x2="69.2933" y2="40.1407" gradientUnits="userSpaceOnUse">
      <stop stop-color="#4BC6DE"/>
      <stop offset="0.5" stop-color="#00A79C"/>
      <stop offset="0.99" stop-color="#26515C"/>
      <stop offset="1" stop-color="#26515C"/>
    </linearGradient>
    <linearGradient id="paint1_linear_510_14217" x1="43.1191" y1="64.3098" x2="84.5841" y2="64.3098" gradientUnits="userSpaceOnUse">
      <stop stop-color="#4BC6DE"/>
      <stop offset="0.5" stop-color="#00A79C"/>
      <stop offset="0.99" stop-color="#26515C"/>
      <stop offset="1" stop-color="#26515C"/>
    </linearGradient>
    <linearGradient id="paint2_linear_510_14217" x1="0.509816" y1="60.26" x2="51.6047" y2="60.26" gradientUnits="userSpaceOnUse">
      <stop stop-color="#4BC6DE"/>
      <stop offset="0.5" stop-color="#00A79C"/>
      <stop offset="0.99" stop-color="#26515C"/>
      <stop offset="1" stop-color="#26515C"/>
    </linearGradient>
    <linearGradient id="paint3_linear_510_14217" x1="5.73815" y1="17.4091" x2="44.9762" y2="17.4091" gradientUnits="userSpaceOnUse">
      <stop stop-color="#4BC6DE"/>
      <stop offset="0.5" stop-color="#00A79C"/>
      <stop offset="0.99" stop-color="#26515C"/>
      <stop offset="1" stop-color="#26515C"/>
    </linearGradient>
    <linearGradient id="paint4_linear_510_14217" x1="74.537" y1="72.1074" x2="77.1573" y2="72.1074" gradientUnits="userSpaceOnUse">
      <stop stop-color="#4BC6DE"/>
      <stop offset="0.5" stop-color="#00A79C"/>
      <stop offset="0.99" stop-color="#26515C"/>
      <stop offset="1" stop-color="#26515C"/>
    </linearGradient>
    <linearGradient id="paint5_linear_510_14217" x1="78.4715" y1="72.1077" x2="81.0918" y2="72.1077" gradientUnits="userSpaceOnUse">
      <stop stop-color="#4BC6DE"/>
      <stop offset="0.5" stop-color="#00A79C"/>
      <stop offset="0.99" stop-color="#26515C"/>
      <stop offset="1" stop-color="#26515C"/>
    </linearGradient>
  </defs>
</svg>