<svg xmlns="http://www.w3.org/2000/svg" width="80" height="81" viewBox="0 0 80 81" fill="none">
    <path d="M46.2234 20.0567H33.7801V18.2801H46.2234V20.0567ZM46.2234 25.39H33.7801V28.9467H46.2234V25.39ZM80 40.5C80 62.557 62.057 80.5 40 80.5C17.943 80.5 0 62.557 0 40.5C0 18.443 17.943 0.5 40 0.5C62.057 0.5 80 18.443 80 40.5ZM32 20.9433C32 21.4333 32.3967 21.8333 32.89 21.8333H47.1134C47.6034 21.8333 48.0034 21.4367 48.0034 20.9433V17.3866C48.0034 16.8966 47.6068 16.4966 47.1134 16.4966H32.89C32.4 16.4966 32 16.8932 32 17.3866V20.9433ZM32 29.8333C32 30.3233 32.3967 30.7234 32.89 30.7234H47.1134C47.6034 30.7234 48.0034 30.3267 48.0034 29.8333V24.5C48.0034 24.01 47.6068 23.61 47.1134 23.61H32.89C32.4 23.61 32 24.0066 32 24.5V29.8333ZM57.4131 43.863C57.1231 43.213 56.4998 42.813 55.7898 42.813H47.9965V33.3896C47.9965 32.8996 47.5998 32.4996 47.1065 32.4996H32.8831C32.3931 32.4996 31.9931 32.8962 31.9931 33.3896V42.813H24.1998C23.4898 42.813 22.8664 43.2163 22.5765 43.863C22.2865 44.513 22.3998 45.243 22.8731 45.773L38.6666 63.46C39.0033 63.8367 39.4866 64.0534 39.9933 64.0534C40.5 64.0534 40.9833 63.8367 41.32 63.46L57.1135 45.773C57.5868 45.243 57.7001 44.5096 57.4102 43.863H57.4131ZM46.2199 43.6997V34.2763H33.7766V43.6997C33.7766 44.1897 33.38 44.5897 32.8866 44.5897H24.2065L40 62.2767L55.7935 44.5897H47.1134C46.6234 44.5897 46.2234 44.193 46.2234 43.6997H46.2199Z" fill="#B41F56"/>
  </svg>