<svg xmlns="http://www.w3.org/2000/svg" width="73" height="72" viewBox="0 0 73 72" fill="none">
    <path d="M66.5375 16.0796H44.0563C47.3642 15.0608 50.4771 13.6907 52.3919 11.8658C54.6739 9.78633 55.3099 7.03617 54.0922 4.51175C52.6412 1.50054 49.0904 -0.250114 45.6608 0.349504C43.4779 0.729942 38.6935 2.63532 36.4497 11.8046C34.2124 2.64151 29.4504 0.733293 27.2803 0.349504C23.8637 -0.256609 20.3194 1.4908 18.8555 4.49558C17.625 7.02322 18.2386 9.77651 20.4982 11.8593C22.2624 13.4907 25.0814 14.8995 28.9034 16.0763L6.35836 16.0796C3.12719 16.0796 0.5 18.7297 0.5 21.9892V32.6643C0.5 33.1544 0.893112 33.5509 1.37889 33.5509H3.83344V65.2139C3.83344 68.5314 6.5085 71.23 9.79727 71.23H63.5159C66.8046 71.23 69.4798 68.5315 69.4798 65.2139L69.4766 33.5509H71.6211C72.1069 33.5509 72.5 33.1544 72.5 32.6643V21.9892C72.5 18.7298 69.8249 16.0796 66.5362 16.0796L66.5375 16.0796ZM24.9795 31.7778V17.8533H48.3329V31.7811L24.9795 31.7778ZM45.9618 2.09405C46.323 2.02957 46.6809 2.00055 47.0293 2.00055C49.5733 2.00055 51.6923 3.58036 52.5137 5.28587C53.025 6.34661 53.5364 8.43896 51.2033 10.5636C48.9021 12.7527 44.1688 14.5807 37.47 15.8736C39.0169 4.53158 43.8875 2.45473 45.9618 2.09405ZM20.432 5.27941C21.2598 3.57713 23.3788 2.00054 25.9068 2.00054C26.2552 2.00054 26.6131 2.02956 26.9775 2.09403C29.0389 2.45835 33.8841 4.53782 35.431 15.8675C27.0544 14.2071 23.3374 12.0793 21.6879 10.5543C19.39 8.43934 19.9143 6.34007 20.432 5.27941ZM2.25934 21.9895C2.25934 19.7069 4.10025 17.8531 6.35983 17.8531H23.2218V31.7809L2.25909 31.7777L2.25934 21.9895ZM28.307 69.4571H9.7989C7.48181 69.4571 5.59295 67.5549 5.59295 65.2143V33.5513H28.3074L28.307 69.4571ZM43.2487 69.4571H30.0653V33.551H43.2487V69.4571ZM67.7239 65.2175C67.7239 67.5582 65.8382 69.4603 63.5179 69.4603L45.0065 69.4571V33.551H67.7209L67.7239 65.2175ZM70.7441 31.7776H50.0915V17.8531H66.5411C68.8199 17.8531 70.747 19.7488 70.747 21.9895L70.7441 31.7776Z" fill="url(#paint0_linear_182_66705)"/>
    <defs>
      <linearGradient id="paint0_linear_182_66705" x1="0.606608" y1="37.5156" x2="72.5316" y2="37.5156" gradientUnits="userSpaceOnUse">
        <stop stop-color="#4BC6DE"/>
        <stop offset="0.5" stop-color="#00A79C"/>
        <stop offset="0.99" stop-color="#26515C"/>
        <stop offset="1" stop-color="#26515C"/>
      </linearGradient>
    </defs>
  </svg>