<svg xmlns="http://www.w3.org/2000/svg" width="81" height="81" viewBox="0 0 81 81" fill="none">
  <path d="M57.4691 53.8297H49.2723C48.8117 53.8297 48.3943 53.5742 48.1892 53.1604L47.1061 50.9907C46.4872 49.7492 45.2387 48.9792 43.8533 48.9792H39.5787C38.1933 48.9792 36.9483 49.7493 36.3259 50.9907L35.2428 53.1604C35.0377 53.5742 34.6203 53.8297 34.1597 53.8297H25.9629C23.9587 53.8297 22.3251 55.4597 22.3251 57.4675V76.8586C22.3251 78.8629 23.9551 80.4964 25.9629 80.4964H57.4764C59.4807 80.4964 61.1142 78.8665 61.1142 76.8586V57.4675C61.1142 55.4633 59.4843 53.8297 57.4764 53.8297H57.4691ZM38.4888 52.0774C38.6939 51.6636 39.1112 51.4081 39.5718 51.4081H43.8465C44.3071 51.4081 44.7245 51.6636 44.9296 52.0774L45.8076 53.8297H37.6108L38.4888 52.0774ZM58.6822 76.8582C58.6822 77.5274 58.1389 78.0708 57.4696 78.0708H53.8318V70.7988C53.8318 70.1295 53.2885 69.5862 52.6192 69.5862C51.9499 69.5862 51.4066 70.1295 51.4066 70.7988V78.0708H25.9524C25.2832 78.0708 24.7398 77.5274 24.7398 76.8582V57.4671C24.7398 56.7978 25.2832 56.2545 25.9524 56.2545H29.5902V65.9514C29.5902 66.6207 30.1336 67.164 30.8029 67.164C31.4721 67.164 32.0155 66.6207 32.0155 65.9514V56.2545H57.4696C58.1389 56.2545 58.6822 56.7978 58.6822 57.4671V76.8582Z" fill="url(#paint0_linear_510_14228)"/>
  <path d="M52.6183 63.5266C51.949 63.5266 51.4057 64.0699 51.4057 64.7392V67.1644C51.4057 67.8337 51.949 68.377 52.6183 68.377C53.2876 68.377 53.8309 67.8337 53.8309 67.1644V64.7392C53.8309 64.0699 53.2876 63.5266 52.6183 63.5266Z" fill="url(#paint1_linear_510_14228)"/>
  <path d="M52.6183 58.6797C51.949 58.6797 51.4057 59.223 51.4057 59.8923V61.1049C51.4057 61.7742 51.949 62.3175 52.6183 62.3175C53.2876 62.3175 53.8309 61.7742 53.8309 61.1049V59.8923C53.8309 59.223 53.2876 58.6797 52.6183 58.6797Z" fill="url(#paint2_linear_510_14228)"/>
  <path d="M30.8026 68.3738C30.1334 68.3738 29.59 68.9171 29.59 69.5864V72.0116C29.59 72.6809 30.1334 73.2242 30.8026 73.2242C31.4719 73.2242 32.0152 72.6809 32.0152 72.0116V69.5864C32.0152 68.9171 31.4719 68.3738 30.8026 68.3738Z" fill="url(#paint3_linear_510_14228)"/>
  <path d="M74.4387 34.4388H68.3792V23.5287C68.3792 21.5244 66.7493 19.8909 64.7414 19.8909H62.3162C60.312 19.8909 58.6784 21.5208 58.6784 23.5287V34.4388H52.619C49.2762 34.4388 46.5596 37.159 46.5596 40.4982V48.0005C46.5596 48.6698 47.1029 49.2131 47.7722 49.2131C48.4414 49.2131 48.9848 48.6698 48.9848 48.0005V40.4982C48.9848 38.4939 50.6148 36.8604 52.6226 36.8604H74.4391C76.4434 36.8604 78.0769 38.4904 78.0769 40.4982V72.0116C78.0769 74.0159 76.4469 75.6494 74.4391 75.6494H63.529C62.8597 75.6494 62.3164 76.1928 62.3164 76.862C62.3164 77.5313 62.8597 78.0746 63.529 78.0746H72.0136V78.9094C72.0136 79.9637 72.4202 80.4999 73.2262 80.4999C73.8955 80.4999 74.4388 79.9566 74.4388 79.2873V79.2657V78.0747C77.7816 78.0747 80.4983 75.3544 80.4983 72.0152V40.5018C80.4983 37.159 77.778 34.4424 74.4388 34.4424L74.4387 34.4388ZM61.1032 34.4388V23.5287C61.1032 22.8594 61.6465 22.3161 62.3158 22.3161H64.741C65.4102 22.3161 65.9536 22.8594 65.9536 23.5287V34.4388H61.1032Z" fill="url(#paint4_linear_510_14228)"/>
  <path d="M63.5285 69.5859C64.1977 69.5859 64.7411 69.0425 64.7411 68.3733V44.1323C64.7411 43.463 64.1977 42.9197 63.5285 42.9197C62.8592 42.9197 62.3159 43.463 62.3159 44.1323V68.3733C62.3159 69.0425 62.8592 69.5859 63.5285 69.5859Z" fill="url(#paint5_linear_510_14228)"/>
  <path d="M72.0132 63.5267V48.9826C72.0132 48.3133 71.4699 47.77 70.8006 47.77C70.1313 47.77 69.588 48.3133 69.588 48.9826V63.5267C69.588 64.1959 70.1313 64.7393 70.8006 64.7393C71.4699 64.7393 72.0132 64.1959 72.0132 63.5267Z" fill="url(#paint6_linear_510_14228)"/>
  <path d="M57.4692 51.4081V48.9829C57.4692 48.3136 56.9259 47.7703 56.2566 47.7703C55.5873 47.7703 55.044 48.3136 55.044 48.9829V51.4081C55.044 52.0773 55.5873 52.6207 56.2566 52.6207C56.9259 52.6207 57.4692 52.0773 57.4692 51.4081Z" fill="url(#paint7_linear_510_14228)"/>
  <path d="M55.0439 19.8949V22.3201C55.0439 22.9894 55.5872 23.5327 56.2565 23.5327C56.9258 23.5327 57.4691 22.9894 57.4691 22.3201V19.8949C57.4691 19.2256 58.0124 18.6823 58.6817 18.6823H68.3786C69.0479 18.6823 69.5912 19.2256 69.5912 19.8949V22.3201C69.5912 22.9894 70.1346 23.5327 70.8038 23.5327C71.4731 23.5327 72.0165 22.9894 72.0165 22.3201V19.8949C72.0165 17.8906 70.3865 16.2571 68.3786 16.2571H58.6817C56.6774 16.2571 55.0439 17.8871 55.0439 19.8949Z" fill="url(#paint8_linear_510_14228)"/>
  <path d="M19.7922 56.2583C12.8081 52.1743 7.99046 45.0424 6.84179 37.0256C6.71585 36.1621 6.63668 35.2985 6.59351 34.4349H28.3769C29.3412 34.4349 30.2588 34.8163 30.9425 35.4927C31.6297 36.1908 32.0112 37.1084 32.0112 38.0727C32.0112 40.0769 30.3812 41.7105 28.3734 41.7105H26.5562C25.4192 41.7105 24.3541 42.1495 23.5553 42.9519C22.7565 43.7508 22.3139 44.8158 22.3139 45.9529C22.3139 48.2918 24.2173 50.1952 26.5562 50.1952H34.7243C35.3935 50.1952 35.9369 49.6519 35.9369 48.9826C35.9369 48.3133 35.3935 47.77 34.7243 47.77H26.5562C25.5524 47.77 24.7391 46.9532 24.7391 45.9529C24.7391 45.4635 24.9262 45.0066 25.268 44.6647C25.6098 44.3229 26.0668 44.1358 26.5561 44.1358H28.3733C31.7161 44.1358 34.4327 41.4155 34.4327 38.0764C34.4327 36.4715 33.8066 34.9495 32.6552 33.7836C31.5001 32.643 29.9781 32.0169 28.3733 32.0169L6.59638 32.0133C6.82307 26.7095 8.62218 21.5997 11.8714 17.2564C16.1354 11.5532 22.3707 7.85427 29.424 6.83916C30.2911 6.71322 31.1547 6.64485 32.0147 6.60168V10.1963C32.0147 13.539 34.735 16.2557 38.0741 16.2557H39.2867C39.956 16.2557 40.4993 16.799 40.4993 17.4683C40.4993 17.7921 40.377 18.0908 40.1287 18.3319C39.9092 18.5586 39.6106 18.6809 39.2867 18.6809H25.347C23.0081 18.6809 21.1046 20.5844 21.1046 22.9233C21.1046 24.0603 21.5436 25.1254 22.346 25.9242C23.1448 26.723 24.2099 27.1656 25.347 27.1656H31.2733C33.6049 27.1656 35.7675 28.3242 37.0629 30.2565C37.9013 31.5231 39.0707 32.5846 40.4417 33.3222C41.7874 34.0527 43.3203 34.4376 44.8711 34.4376H48.2535C48.9228 34.4376 49.4661 33.8943 49.4661 33.225C49.4661 32.5558 48.9228 32.0124 48.2535 32.0124H44.8711C43.7233 32.0124 42.5898 31.7282 41.5895 31.1884C40.5532 30.6307 39.7076 29.8679 39.0779 28.918C37.3292 26.3057 34.411 24.7441 31.2697 24.7441H25.3434C24.854 24.7441 24.3971 24.557 24.0552 24.2151C23.7134 23.8733 23.5263 23.4163 23.5263 22.927C23.5263 21.9231 24.3431 21.1098 25.3434 21.1098H39.2832C40.2655 21.1098 41.1795 20.7248 41.8379 20.052C42.536 19.3719 42.9174 18.4579 42.9174 17.4756C42.9174 15.4714 41.2874 13.8378 39.2796 13.8378H38.067C36.0628 13.8378 34.4292 12.2079 34.4292 10.2V6.58737C41.8524 6.89682 48.8148 10.2935 53.7015 16.1627C54.1297 16.6773 54.8926 16.7456 55.4071 16.3174C55.9217 15.8893 55.99 15.1228 55.5618 14.6083C49.0383 6.77848 39.1322 2.97505 29.064 4.43968C21.3709 5.54791 14.5706 9.58153 9.91791 15.803C5.26518 22.0244 3.31511 29.6847 4.43062 37.3708C5.72594 46.3952 11.2853 54.3936 19.3026 58.7691C19.4825 58.8662 19.684 58.9166 19.8819 58.9166C20.0978 58.9166 20.3101 58.8591 20.5008 58.7475C20.8678 58.528 21.0945 58.1322 21.0945 57.704V57.4629C21.0945 56.7577 20.4612 56.2 19.7811 56.2539L19.7922 56.2583Z" fill="url(#paint9_linear_510_14228)"/>
  <path d="M32.0151 2.9252H34.4403C35.1096 2.9252 35.6529 2.38187 35.6529 1.7126C35.6529 1.04333 35.1096 0.5 34.4403 0.5H32.0151C31.3458 0.5 30.8025 1.04333 30.8025 1.7126C30.8025 2.38187 31.3458 2.9252 32.0151 2.9252Z" fill="url(#paint10_linear_510_14228)"/>
  <path d="M25.8913 3.7671C25.9704 3.7671 26.0496 3.75991 26.1288 3.74551L28.5072 3.27414C29.162 3.14461 29.5903 2.50412 29.4607 1.84922C29.3312 1.19433 28.6943 0.76972 28.0358 0.895641L25.6574 1.36701C25.0025 1.49654 24.5743 2.13704 24.7038 2.79194C24.819 3.36766 25.3263 3.7671 25.8913 3.7671Z" fill="url(#paint11_linear_510_14228)"/>
  <path d="M20.0475 5.78912C20.2022 5.78912 20.3605 5.76034 20.5117 5.69557L22.7498 4.76724C23.3687 4.51177 23.6601 3.80289 23.4047 3.18397C23.1492 2.56506 22.4403 2.27001 21.8214 2.52908L19.5833 3.45742C18.9644 3.71289 18.6729 4.42177 18.9284 5.04069C19.1227 5.50846 19.5726 5.78912 20.0475 5.78912Z" fill="url(#paint12_linear_510_14228)"/>
  <path d="M14.7148 8.90902C14.9451 8.90902 15.179 8.84426 15.3877 8.70392L17.4027 7.35821C17.9604 6.9876 18.1079 6.23192 17.7373 5.67785C17.3667 5.12012 16.611 4.9726 16.0569 5.34322L14.0419 6.68892C13.4842 7.05954 13.3367 7.81521 13.7073 8.36929C13.9412 8.71832 14.3261 8.90902 14.7148 8.90902Z" fill="url(#paint13_linear_510_14228)"/>
  <path d="M10.087 13.0111C10.3964 13.0111 10.7059 12.8923 10.9433 12.6548L12.6561 10.9421C13.1311 10.4671 13.1311 9.70063 12.6561 9.22928C12.1812 8.7543 11.4147 8.7543 10.9433 9.22928L9.23056 10.9421C8.75559 11.417 8.75559 12.1835 9.23056 12.6548C9.46804 12.8923 9.77751 13.0111 10.087 13.0111Z" fill="url(#paint14_linear_510_14228)"/>
  <path d="M6.35255 17.9372C6.74476 17.9372 7.12617 17.7501 7.36011 17.3975L8.70582 15.3825C9.07643 14.8247 8.92891 14.0727 8.37118 13.7021C7.81345 13.3315 7.0614 13.479 6.69082 14.0367L5.34511 16.0518C4.97449 16.6095 5.12202 17.3615 5.67975 17.7321C5.88844 17.8689 6.12227 17.9372 6.35255 17.9372Z" fill="url(#paint15_linear_510_14228)"/>
  <path d="M3.18583 23.4059C3.33696 23.4671 3.49528 23.4995 3.65001 23.4995C4.12497 23.4995 4.57835 23.2188 4.76902 22.7511L5.69736 20.5129C5.95283 19.894 5.66138 19.1852 5.04248 18.9297C4.41998 18.6742 3.71473 18.9657 3.4592 19.5846L2.53087 21.8227C2.2754 22.4416 2.56693 23.1504 3.18583 23.4059Z" fill="url(#paint16_linear_510_14228)"/>
  <path d="M1.84748 29.4554C1.92664 29.4698 2.00581 29.477 2.08496 29.477C2.64989 29.477 3.15727 29.0776 3.27242 28.5019L3.74379 26.1235C3.87332 25.465 3.44873 24.8282 2.79021 24.6986C2.13169 24.569 1.49489 24.9936 1.36529 25.6521L0.893915 28.0305C0.764383 28.689 1.18896 29.3258 1.84748 29.4554Z" fill="url(#paint17_linear_510_14228)"/>
  <path d="M2.92685 34.4388V32.0136C2.92685 31.3444 2.38352 30.801 1.71425 30.801C1.04498 30.801 0.501648 31.3444 0.501648 32.0136V34.4388C0.501648 35.1081 1.04498 35.6514 1.71425 35.6514C2.38352 35.6514 2.92685 35.1081 2.92685 34.4388Z" fill="url(#paint18_linear_510_14228)"/>
  <path d="M2.79361 41.7497C3.44849 41.6202 3.8767 40.9797 3.74718 40.3248L3.27581 37.9464C3.14628 37.2915 2.50939 36.8705 1.85089 36.9928C1.196 37.1223 0.767797 37.7628 0.89731 38.4177L1.36868 40.7961C1.48382 41.3719 1.99118 41.7713 2.55614 41.7713C2.6353 41.7713 2.71445 41.7641 2.79361 41.7497Z" fill="url(#paint19_linear_510_14228)"/>
  <path d="M5.69766 45.9421L4.76933 43.704C4.51386 43.0851 3.80498 42.79 3.18606 43.0491C2.56715 43.3046 2.2757 44.0135 2.53117 44.6324L3.45951 46.8705C3.65382 47.3383 4.10359 47.6189 4.57852 47.6189C4.73325 47.6189 4.89157 47.5901 5.0427 47.5254C5.6616 47.2699 5.95314 46.561 5.69766 45.9421Z" fill="url(#paint20_linear_510_14228)"/>
  <path d="M8.70521 51.0664L7.3595 49.0514C6.98888 48.4937 6.23321 48.3461 5.67913 48.7168C5.12141 49.0874 4.97388 49.843 5.3445 50.3971L6.69021 52.4121C6.9241 52.7612 7.30911 52.9519 7.69776 52.9519C7.92805 52.9519 8.16194 52.8871 8.37063 52.7468C8.92836 52.3761 9.07582 51.6205 8.70521 51.0664Z" fill="url(#paint21_linear_510_14228)"/>
  <path d="M10.9438 53.794C10.4688 53.319 9.70234 53.319 9.23099 53.794C8.75601 54.2689 8.75601 55.0354 9.23099 55.5068L10.9438 57.2195C11.1813 57.457 11.4907 57.5758 11.8002 57.5758C12.1096 57.5758 12.4191 57.457 12.6565 57.2195C13.1315 56.7446 13.1315 55.9781 12.6565 55.5068L10.9438 53.794Z" fill="url(#paint22_linear_510_14228)"/>
  <path d="M15.3837 57.7482C14.826 57.3776 14.0739 57.5252 13.7033 58.0829C13.3327 58.6406 13.4802 59.3927 14.038 59.7632L16.053 61.109C16.2617 61.2457 16.4956 61.3141 16.7258 61.3141C17.1181 61.3141 17.4995 61.127 17.7334 60.7743C18.104 60.2166 17.9565 59.4645 17.3988 59.094L15.3837 57.7482Z" fill="url(#paint23_linear_510_14228)"/>
  <path d="M55.5116 12.658C55.7491 12.8955 56.0585 13.0142 56.368 13.0142C56.6774 13.0142 56.9869 12.8955 57.2244 12.658C57.6993 12.1831 57.6993 11.4166 57.2244 10.9452L55.5116 9.23244C55.0366 8.75748 54.2701 8.75748 53.7988 9.23244C53.3238 9.70741 53.3238 10.4739 53.7988 10.9452L55.5116 12.658Z" fill="url(#paint24_linear_510_14228)"/>
  <path d="M51.068 8.70343C51.2767 8.84017 51.5106 8.90854 51.7408 8.90854C52.1331 8.90854 52.5145 8.72143 52.7484 8.3688C53.119 7.81107 52.9715 7.05902 52.4138 6.68844L50.3987 5.34273C49.841 4.97211 49.089 5.11964 48.7184 5.67736C48.3478 6.23509 48.4953 6.98715 49.053 7.35773L51.068 8.70343Z" fill="url(#paint25_linear_510_14228)"/>
  <path d="M43.7026 4.76768L45.9407 5.69601C46.0918 5.75718 46.2501 5.78956 46.4049 5.78956C46.8798 5.78956 47.3332 5.5089 47.5239 5.04113C47.7793 4.42224 47.4879 3.71338 46.869 3.45786L44.6309 2.52952C44.012 2.27405 43.3031 2.5691 43.0476 3.18441C42.7921 3.8033 43.0837 4.51215 43.7026 4.76768Z" fill="url(#paint26_linear_510_14228)"/>
  <path d="M37.9482 3.27037L40.3266 3.74174C40.4058 3.75613 40.4849 3.76333 40.5641 3.76333C41.129 3.76333 41.6364 3.36393 41.7515 2.7882C41.8811 2.12972 41.4565 1.49288 40.798 1.36327L38.4196 0.891901C37.7611 0.762369 37.1242 1.18695 36.9946 1.84548C36.8651 2.50395 37.2897 3.14076 37.9482 3.27037Z" fill="url(#paint27_linear_510_14228)"/>
  <defs>
    <linearGradient id="paint0_linear_510_14228" x1="42.0781" y1="107.829" x2="42.0781" y2="68.2761" gradientUnits="userSpaceOnUse">
      <stop stop-color="#F15B2A"/>
      <stop offset="0.34" stop-color="#EB2127"/>
      <stop offset="0.69" stop-color="#E7216A"/>
      <stop offset="1" stop-color="#B41F56"/>
    </linearGradient>
    <linearGradient id="paint1_linear_510_14228" x1="52.6407" y1="72.5835" x2="52.6407" y2="66.4963" gradientUnits="userSpaceOnUse">
      <stop stop-color="#F15B2A"/>
      <stop offset="0.34" stop-color="#EB2127"/>
      <stop offset="0.69" stop-color="#E7216A"/>
      <stop offset="1" stop-color="#B41F56"/>
    </linearGradient>
    <linearGradient id="paint2_linear_510_14228" x1="52.6407" y1="65.4723" x2="52.6407" y2="60.907" gradientUnits="userSpaceOnUse">
      <stop stop-color="#F15B2A"/>
      <stop offset="0.34" stop-color="#EB2127"/>
      <stop offset="0.69" stop-color="#E7216A"/>
      <stop offset="1" stop-color="#B41F56"/>
    </linearGradient>
    <linearGradient id="paint3_linear_510_14228" x1="30.825" y1="77.4306" x2="30.825" y2="71.3435" gradientUnits="userSpaceOnUse">
      <stop stop-color="#F15B2A"/>
      <stop offset="0.34" stop-color="#EB2127"/>
      <stop offset="0.69" stop-color="#E7216A"/>
      <stop offset="1" stop-color="#B41F56"/>
    </linearGradient>
    <linearGradient id="paint4_linear_510_14228" x1="63.8425" y1="133.062" x2="63.8425" y2="56.9997" gradientUnits="userSpaceOnUse">
      <stop stop-color="#F15B2A"/>
      <stop offset="0.34" stop-color="#EB2127"/>
      <stop offset="0.69" stop-color="#E7216A"/>
      <stop offset="1" stop-color="#B41F56"/>
    </linearGradient>
    <linearGradient id="paint5_linear_510_14228" x1="63.5509" y1="92.7117" x2="63.5509" y2="59.2465" gradientUnits="userSpaceOnUse">
      <stop stop-color="#F15B2A"/>
      <stop offset="0.34" stop-color="#EB2127"/>
      <stop offset="0.69" stop-color="#E7216A"/>
      <stop offset="1" stop-color="#B41F56"/>
    </linearGradient>
    <linearGradient id="paint6_linear_510_14228" x1="70.823" y1="79.4556" x2="70.823" y2="58.1597" gradientUnits="userSpaceOnUse">
      <stop stop-color="#F15B2A"/>
      <stop offset="0.34" stop-color="#EB2127"/>
      <stop offset="0.69" stop-color="#E7216A"/>
      <stop offset="1" stop-color="#B41F56"/>
    </linearGradient>
    <linearGradient id="paint7_linear_510_14228" x1="56.279" y1="56.8271" x2="56.279" y2="50.74" gradientUnits="userSpaceOnUse">
      <stop stop-color="#F15B2A"/>
      <stop offset="0.34" stop-color="#EB2127"/>
      <stop offset="0.69" stop-color="#E7216A"/>
      <stop offset="1" stop-color="#B41F56"/>
    </linearGradient>
    <linearGradient id="paint8_linear_510_14228" x1="63.687" y1="29.8424" x2="63.687" y2="20.7117" gradientUnits="userSpaceOnUse">
      <stop stop-color="#F15B2A"/>
      <stop offset="0.34" stop-color="#EB2127"/>
      <stop offset="0.69" stop-color="#E7216A"/>
      <stop offset="1" stop-color="#B41F56"/>
    </linearGradient>
    <linearGradient id="paint9_linear_510_14228" x1="30.4613" y1="106.429" x2="30.4613" y2="37.6743" gradientUnits="userSpaceOnUse">
      <stop stop-color="#F15B2A"/>
      <stop offset="0.34" stop-color="#EB2127"/>
      <stop offset="0.69" stop-color="#E7216A"/>
      <stop offset="1" stop-color="#B41F56"/>
    </linearGradient>
    <linearGradient id="paint10_linear_510_14228" x1="33.2725" y1="5.02843" x2="33.2725" y2="1.98487" gradientUnits="userSpaceOnUse">
      <stop stop-color="#F15B2A"/>
      <stop offset="0.34" stop-color="#EB2127"/>
      <stop offset="0.69" stop-color="#E7216A"/>
      <stop offset="1" stop-color="#B41F56"/>
    </linearGradient>
    <linearGradient id="paint11_linear_510_14228" x1="27.1267" y1="6.27651" x2="27.1267" y2="2.64517" gradientUnits="userSpaceOnUse">
      <stop stop-color="#F15B2A"/>
      <stop offset="0.34" stop-color="#EB2127"/>
      <stop offset="0.69" stop-color="#E7216A"/>
      <stop offset="1" stop-color="#B41F56"/>
    </linearGradient>
    <linearGradient id="paint12_linear_510_14228" x1="21.2096" y1="8.69789" x2="21.2096" y2="4.48864" gradientUnits="userSpaceOnUse">
      <stop stop-color="#F15B2A"/>
      <stop offset="0.34" stop-color="#EB2127"/>
      <stop offset="0.69" stop-color="#E7216A"/>
      <stop offset="1" stop-color="#B41F56"/>
    </linearGradient>
    <linearGradient id="paint13_linear_510_14228" x1="15.7633" y1="12.1784" x2="15.7633" y2="7.44732" gradientUnits="userSpaceOnUse">
      <stop stop-color="#F15B2A"/>
      <stop offset="0.34" stop-color="#EB2127"/>
      <stop offset="0.69" stop-color="#E7216A"/>
      <stop offset="1" stop-color="#B41F56"/>
    </linearGradient>
    <linearGradient id="paint14_linear_510_14228" x1="10.9816" y1="16.5997" x2="10.9816" y2="11.4066" gradientUnits="userSpaceOnUse">
      <stop stop-color="#F15B2A"/>
      <stop offset="0.34" stop-color="#EB2127"/>
      <stop offset="0.69" stop-color="#E7216A"/>
      <stop offset="1" stop-color="#B41F56"/>
    </linearGradient>
    <linearGradient id="paint15_linear_510_14228" x1="7.06029" y1="21.787" x2="7.06029" y2="16.216" gradientUnits="userSpaceOnUse">
      <stop stop-color="#F15B2A"/>
      <stop offset="0.34" stop-color="#EB2127"/>
      <stop offset="0.69" stop-color="#E7216A"/>
      <stop offset="1" stop-color="#B41F56"/>
    </linearGradient>
    <linearGradient id="paint16_linear_510_14228" x1="4.14508" y1="27.5428" x2="4.14508" y2="21.6917" gradientUnits="userSpaceOnUse">
      <stop stop-color="#F15B2A"/>
      <stop offset="0.34" stop-color="#EB2127"/>
      <stop offset="0.69" stop-color="#E7216A"/>
      <stop offset="1" stop-color="#B41F56"/>
    </linearGradient>
    <linearGradient id="paint17_linear_510_14228" x1="2.34561" y1="33.6413" x2="2.34561" y2="27.6152" gradientUnits="userSpaceOnUse">
      <stop stop-color="#F15B2A"/>
      <stop offset="0.34" stop-color="#EB2127"/>
      <stop offset="0.69" stop-color="#E7216A"/>
      <stop offset="1" stop-color="#B41F56"/>
    </linearGradient>
    <linearGradient id="paint18_linear_510_14228" x1="1.73666" y1="39.8579" x2="1.73666" y2="33.7708" gradientUnits="userSpaceOnUse">
      <stop stop-color="#F15B2A"/>
      <stop offset="0.34" stop-color="#EB2127"/>
      <stop offset="0.69" stop-color="#E7216A"/>
      <stop offset="1" stop-color="#B41F56"/>
    </linearGradient>
    <linearGradient id="paint19_linear_510_14228" x1="2.34901" y1="45.9336" x2="2.34901" y2="39.9103" gradientUnits="userSpaceOnUse">
      <stop stop-color="#F15B2A"/>
      <stop offset="0.34" stop-color="#EB2127"/>
      <stop offset="0.69" stop-color="#E7216A"/>
      <stop offset="1" stop-color="#B41F56"/>
    </linearGradient>
    <linearGradient id="paint20_linear_510_14228" x1="4.14534" y1="51.6636" x2="4.14534" y2="45.8106" gradientUnits="userSpaceOnUse">
      <stop stop-color="#F15B2A"/>
      <stop offset="0.34" stop-color="#EB2127"/>
      <stop offset="0.69" stop-color="#E7216A"/>
      <stop offset="1" stop-color="#B41F56"/>
    </linearGradient>
    <linearGradient id="paint21_linear_510_14228" x1="7.05971" y1="56.8017" x2="7.05971" y2="51.2306" gradientUnits="userSpaceOnUse">
      <stop stop-color="#F15B2A"/>
      <stop offset="0.34" stop-color="#EB2127"/>
      <stop offset="0.69" stop-color="#E7216A"/>
      <stop offset="1" stop-color="#B41F56"/>
    </linearGradient>
    <linearGradient id="paint22_linear_510_14228" x1="10.982" y1="61.1644" x2="10.982" y2="55.9713" gradientUnits="userSpaceOnUse">
      <stop stop-color="#F15B2A"/>
      <stop offset="0.34" stop-color="#EB2127"/>
      <stop offset="0.69" stop-color="#E7216A"/>
      <stop offset="1" stop-color="#B41F56"/>
    </linearGradient>
    <linearGradient id="paint23_linear_510_14228" x1="15.7594" y1="64.5834" x2="15.7594" y2="59.8523" gradientUnits="userSpaceOnUse">
      <stop stop-color="#F15B2A"/>
      <stop offset="0.34" stop-color="#EB2127"/>
      <stop offset="0.69" stop-color="#E7216A"/>
      <stop offset="1" stop-color="#B41F56"/>
    </linearGradient>
    <linearGradient id="paint24_linear_510_14228" x1="55.5498" y1="16.6029" x2="55.5498" y2="11.4098" gradientUnits="userSpaceOnUse">
      <stop stop-color="#F15B2A"/>
      <stop offset="0.34" stop-color="#EB2127"/>
      <stop offset="0.69" stop-color="#E7216A"/>
      <stop offset="1" stop-color="#B41F56"/>
    </linearGradient>
    <linearGradient id="paint25_linear_510_14228" x1="50.7744" y1="12.1779" x2="50.7744" y2="7.44683" gradientUnits="userSpaceOnUse">
      <stop stop-color="#F15B2A"/>
      <stop offset="0.34" stop-color="#EB2127"/>
      <stop offset="0.69" stop-color="#E7216A"/>
      <stop offset="1" stop-color="#B41F56"/>
    </linearGradient>
    <linearGradient id="paint26_linear_510_14228" x1="45.3288" y1="8.6966" x2="45.3288" y2="4.48985" gradientUnits="userSpaceOnUse">
      <stop stop-color="#F15B2A"/>
      <stop offset="0.34" stop-color="#EB2127"/>
      <stop offset="0.69" stop-color="#E7216A"/>
      <stop offset="1" stop-color="#B41F56"/>
    </linearGradient>
    <linearGradient id="paint27_linear_510_14228" x1="39.4175" y1="6.2737" x2="39.4175" y2="2.64096" gradientUnits="userSpaceOnUse">
      <stop stop-color="#F15B2A"/>
      <stop offset="0.34" stop-color="#EB2127"/>
      <stop offset="0.69" stop-color="#E7216A"/>
      <stop offset="1" stop-color="#B41F56"/>
    </linearGradient>
  </defs>
</svg>