<svg xmlns="http://www.w3.org/2000/svg" width="80" height="81" viewBox="0 0 80 81" fill="none">
  <path d="M7.49868 36.0357H8.74872C9.08041 36.035 9.39827 35.9027 9.63255 35.6679C9.86683 35.4331 9.9984 35.1149 9.9984 34.7832C9.9984 34.4515 9.86683 34.1334 9.63255 33.8986C9.39827 33.6638 9.08041 33.5315 8.74872 33.5308H7.49868C7.16698 33.5315 6.84913 33.6638 6.61485 33.8986C6.38057 34.1334 6.24899 34.4515 6.24899 34.7832C6.24899 35.1149 6.38057 35.4331 6.61485 35.6679C6.84913 35.9027 7.16698 36.035 7.49868 36.0357Z" fill="url(#paint0_linear_510_14168)"/>
  <path d="M7.49868 41.0474H8.74872C9.08041 41.0467 9.39827 40.9144 9.63255 40.6796C9.86683 40.4448 9.9984 40.1267 9.9984 39.795C9.9984 39.4633 9.86683 39.1451 9.63255 38.9103C9.39827 38.6755 9.08041 38.5432 8.74872 38.5425H7.49868C7.16698 38.5432 6.84913 38.6755 6.61485 38.9103C6.38057 39.1451 6.24899 39.4633 6.24899 39.795C6.24899 40.1267 6.38057 40.4448 6.61485 40.6796C6.84913 40.9144 7.16698 41.0467 7.49868 41.0474Z" fill="url(#paint1_linear_510_14168)"/>
  <path d="M19.0615 36.0357H20.3116C20.6433 36.035 20.9611 35.9027 21.1954 35.6679C21.4297 35.4331 21.5613 35.1149 21.5613 34.7832C21.5613 34.4515 21.4297 34.1334 21.1954 33.8986C20.9611 33.6638 20.6433 33.5315 20.3116 33.5308H19.0615C18.7299 33.5315 18.412 33.6638 18.1777 33.8986C17.9434 34.1334 17.8119 34.4515 17.8119 34.7832C17.8119 35.1149 17.9434 35.4331 18.1777 35.6679C18.412 35.9027 18.7299 36.035 19.0615 36.0357Z" fill="url(#paint2_linear_510_14168)"/>
  <path d="M25.3117 36.0357H26.5617C26.8934 36.035 27.2113 35.9027 27.4455 35.6679C27.6798 35.4331 27.8114 35.1149 27.8114 34.7832C27.8114 34.4515 27.6798 34.1334 27.4455 33.8986C27.2113 33.6638 26.8934 33.5315 26.5617 33.5308H25.3117C24.98 33.5315 24.6621 33.6638 24.4278 33.8986C24.1936 34.1334 24.062 34.4515 24.062 34.7832C24.062 35.1149 24.1936 35.4331 24.4278 35.6679C24.6621 35.9027 24.98 36.035 25.3117 36.0357Z" fill="url(#paint3_linear_510_14168)"/>
  <path d="M37.4995 33.5308H36.2495C35.9181 33.5321 35.6008 33.6646 35.367 33.8993C35.1331 34.1341 35.0018 34.4519 35.0018 34.7832C35.0018 35.1146 35.1331 35.4324 35.367 35.6672C35.6008 35.9019 35.9181 36.0344 36.2495 36.0357H37.4995C37.8312 36.035 38.1491 35.9027 38.3833 35.6679C38.6176 35.4331 38.7492 35.1149 38.7492 34.7832C38.7492 34.4515 38.6176 34.1334 38.3833 33.8986C38.1491 33.6638 37.8312 33.5315 37.4995 33.5308Z" fill="url(#paint4_linear_510_14168)"/>
  <path d="M37.4996 38.5425H36.2495C35.9178 38.5432 35.6 38.6755 35.3657 38.9103C35.1314 39.1451 34.9998 39.4633 34.9998 39.795C34.9998 40.1267 35.1314 40.4448 35.3657 40.6796C35.6 40.9144 35.9178 41.0467 36.2495 41.0474H37.4996C37.8313 41.0467 38.1491 40.9144 38.3834 40.6796C38.6177 40.4448 38.7493 40.1267 38.7493 39.795C38.7493 39.4633 38.6177 39.1451 38.3834 38.9103C38.1491 38.6755 37.8313 38.5432 37.4996 38.5425Z" fill="url(#paint5_linear_510_14168)"/>
  <path d="M19.0615 41.0474H20.3116C20.6433 41.0467 20.9611 40.9144 21.1954 40.6796C21.4297 40.4448 21.5613 40.1267 21.5613 39.795C21.5613 39.4633 21.4297 39.1451 21.1954 38.9103C20.9611 38.6755 20.6433 38.5432 20.3116 38.5425H19.0615C18.7299 38.5432 18.412 38.6755 18.1777 38.9103C17.9434 39.1451 17.8119 39.4633 17.8119 39.795C17.8119 40.1267 17.9434 40.4448 18.1777 40.6796C18.412 40.9144 18.7299 41.0467 19.0615 41.0474Z" fill="url(#paint6_linear_510_14168)"/>
  <path d="M25.3117 41.0474H26.5617C26.8934 41.0467 27.2113 40.9144 27.4455 40.6796C27.6798 40.4448 27.8114 40.1267 27.8114 39.795C27.8114 39.4633 27.6798 39.1451 27.4455 38.9103C27.2113 38.6755 26.8934 38.5432 26.5617 38.5425H25.3117C24.98 38.5432 24.6621 38.6755 24.4278 38.9103C24.1936 39.1451 24.062 39.4633 24.062 39.795C24.062 40.1267 24.1936 40.4448 24.4278 40.6796C24.6621 40.9144 24.98 41.0467 25.3117 41.0474Z" fill="url(#paint7_linear_510_14168)"/>
  <path d="M19.0615 46.0555H20.3116C20.6433 46.0547 20.9611 45.9225 21.1954 45.6877C21.4297 45.4529 21.5613 45.1347 21.5613 44.803C21.5613 44.4713 21.4297 44.1532 21.1954 43.9184C20.9611 43.6836 20.6433 43.5513 20.3116 43.5505H19.0615C18.7299 43.5513 18.412 43.6836 18.1777 43.9184C17.9434 44.1532 17.8119 44.4713 17.8119 44.803C17.8119 45.1347 17.9434 45.4529 18.1777 45.6877C18.412 45.9225 18.7299 46.0547 19.0615 46.0555Z" fill="url(#paint8_linear_510_14168)"/>
  <path d="M25.3117 46.0555H26.5617C26.8934 46.0547 27.2113 45.9225 27.4455 45.6877C27.6798 45.4529 27.8114 45.1347 27.8114 44.803C27.8114 44.4713 27.6798 44.1532 27.4455 43.9184C27.2113 43.6836 26.8934 43.5513 26.5617 43.5505H25.3117C24.98 43.5513 24.6621 43.6836 24.4278 43.9184C24.1936 44.1532 24.062 44.4713 24.062 44.803C24.062 45.1347 24.1936 45.4529 24.4278 45.6877C24.6621 45.9225 24.98 46.0547 25.3117 46.0555Z" fill="url(#paint9_linear_510_14168)"/>
  <path d="M19.0615 51.0672H20.3116C20.6433 51.0665 20.9611 50.9342 21.1954 50.6994C21.4297 50.4646 21.5613 50.1464 21.5613 49.8147C21.5613 49.483 21.4297 49.1649 21.1954 48.9301C20.9611 48.6953 20.6433 48.563 20.3116 48.5623H19.0615C18.7299 48.563 18.412 48.6953 18.1777 48.9301C17.9434 49.1649 17.8119 49.483 17.8119 49.8147C17.8119 50.1464 17.9434 50.4646 18.1777 50.6994C18.412 50.9342 18.7299 51.0665 19.0615 51.0672Z" fill="url(#paint10_linear_510_14168)"/>
  <path d="M25.3117 51.0672H26.5617C26.8934 51.0665 27.2113 50.9342 27.4455 50.6994C27.6798 50.4646 27.8114 50.1464 27.8114 49.8147C27.8114 49.483 27.6798 49.1649 27.4455 48.9301C27.2113 48.6953 26.8934 48.563 26.5617 48.5623H25.3117C24.98 48.563 24.6621 48.6953 24.4278 48.9301C24.1936 49.1649 24.062 49.483 24.062 49.8147C24.062 50.1464 24.1936 50.4646 24.4278 50.6994C24.6621 50.9342 24.98 51.0665 25.3117 51.0672Z" fill="url(#paint11_linear_510_14168)"/>
  <path d="M19.0615 56.0753H20.3116C20.6433 56.0745 20.9611 55.9422 21.1954 55.7074C21.4297 55.4726 21.5613 55.1545 21.5613 54.8228C21.5613 54.4911 21.4297 54.1729 21.1954 53.9381C20.9611 53.7033 20.6433 53.5711 20.3116 53.5703H19.0615C18.7299 53.5711 18.412 53.7033 18.1777 53.9381C17.9434 54.1729 17.8119 54.4911 17.8119 54.8228C17.8119 55.1545 17.9434 55.4726 18.1777 55.7074C18.412 55.9422 18.7299 56.0745 19.0615 56.0753Z" fill="url(#paint12_linear_510_14168)"/>
  <path d="M25.3117 56.0753H26.5617C26.8934 56.0745 27.2113 55.9422 27.4455 55.7074C27.6798 55.4726 27.8114 55.1545 27.8114 54.8228C27.8114 54.4911 27.6798 54.1729 27.4455 53.9381C27.2113 53.7033 26.8934 53.5711 26.5617 53.5703H25.3117C24.98 53.5711 24.6621 53.7033 24.4278 53.9381C24.1936 54.1729 24.062 54.4911 24.062 54.8228C24.062 55.1545 24.1936 55.4726 24.4278 55.7074C24.6621 55.9422 24.98 56.0745 25.3117 56.0753Z" fill="url(#paint13_linear_510_14168)"/>
  <path d="M55.0001 28.5227H52.5C52.1683 28.5234 51.8505 28.6557 51.6162 28.8905C51.3819 29.1253 51.2503 29.4435 51.2503 29.7752C51.2503 30.1069 51.3819 30.425 51.6162 30.6598C51.8505 30.8946 52.1683 31.0269 52.5 31.0277H55.0001C55.3318 31.0269 55.6497 30.8946 55.8839 30.6598C56.1182 30.425 56.2498 30.1069 56.2498 29.7752C56.2498 29.4435 56.1182 29.1253 55.8839 28.8905C55.6497 28.6557 55.3318 28.5234 55.0001 28.5227Z" fill="url(#paint14_linear_510_14168)"/>
  <path d="M54.9999 33.5308H52.4998C52.1685 33.5321 51.8512 33.6646 51.6173 33.8993C51.3835 34.1341 51.2522 34.4519 51.2522 34.7832C51.2522 35.1146 51.3835 35.4324 51.6173 35.6672C51.8512 35.9019 52.1685 36.0344 52.4998 36.0357H54.9999C55.3316 36.035 55.6495 35.9027 55.8837 35.6679C56.118 35.4331 56.2496 35.1149 56.2496 34.7832C56.2496 34.4515 56.118 34.1334 55.8837 33.8986C55.6495 33.6638 55.3316 33.5315 54.9999 33.5308Z" fill="url(#paint15_linear_510_14168)"/>
  <path d="M55.0001 38.5425H52.5C52.1683 38.5432 51.8505 38.6755 51.6162 38.9103C51.3819 39.1451 51.2503 39.4633 51.2503 39.795C51.2503 40.1267 51.3819 40.4448 51.6162 40.6796C51.8505 40.9144 52.1683 41.0467 52.5 41.0474H55.0001C55.3318 41.0467 55.6497 40.9144 55.8839 40.6796C56.1182 40.4448 56.2498 40.1267 56.2498 39.795C56.2498 39.4633 56.1182 39.1451 55.8839 38.9103C55.6497 38.6755 55.3318 38.5432 55.0001 38.5425Z" fill="url(#paint16_linear_510_14168)"/>
  <path d="M55.0001 43.5505H52.5C52.1683 43.5513 51.8505 43.6836 51.6162 43.9184C51.3819 44.1532 51.2503 44.4713 51.2503 44.803C51.2503 45.1347 51.3819 45.4529 51.6162 45.6877C51.8505 45.9225 52.1683 46.0547 52.5 46.0555H55.0001C55.3318 46.0547 55.6497 45.9225 55.8839 45.6877C56.1182 45.4529 56.2498 45.1347 56.2498 44.803C56.2498 44.4713 56.1182 44.1532 55.8839 43.9184C55.6497 43.6836 55.3318 43.5513 55.0001 43.5505Z" fill="url(#paint17_linear_510_14168)"/>
  <path d="M54.9999 48.5623H52.4998C52.1685 48.5635 51.8512 48.6961 51.6173 48.9308C51.3835 49.1656 51.2522 49.4834 51.2522 49.8147C51.2522 50.1461 51.3835 50.4639 51.6173 50.6987C51.8512 50.9334 52.1685 51.0659 52.4998 51.0672H54.9999C55.3316 51.0665 55.6495 50.9342 55.8837 50.6994C56.118 50.4646 56.2496 50.1464 56.2496 49.8147C56.2496 49.483 56.118 49.1649 55.8837 48.9301C55.6495 48.6953 55.3316 48.563 54.9999 48.5623Z" fill="url(#paint18_linear_510_14168)"/>
  <path d="M55.0001 53.5703H52.5C52.1683 53.5711 51.8505 53.7033 51.6162 53.9381C51.3819 54.1729 51.2503 54.4911 51.2503 54.8228C51.2503 55.1545 51.3819 55.4726 51.6162 55.7074C51.8505 55.9422 52.1683 56.0745 52.5 56.0753H55.0001C55.3318 56.0745 55.6497 55.9422 55.8839 55.7074C56.1182 55.4726 56.2498 55.1545 56.2498 54.8228C56.2498 54.4911 56.1182 54.1729 55.8839 53.9381C55.6497 53.7033 55.3318 53.5711 55.0001 53.5703Z" fill="url(#paint19_linear_510_14168)"/>
  <path d="M70.0005 31.0277H72.5006C72.8323 31.0269 73.1502 30.8946 73.3845 30.6598C73.6187 30.425 73.7503 30.1069 73.7503 29.7752C73.7503 29.4435 73.6187 29.1253 73.3845 28.8905C73.1502 28.6557 72.8323 28.5234 72.5006 28.5227H70.0005C69.6688 28.5234 69.351 28.6557 69.1167 28.8905C68.8824 29.1253 68.7509 29.4435 68.7509 29.7752C68.7509 30.1069 68.8824 30.425 69.1167 30.6598C69.351 30.8946 69.6688 31.0269 70.0005 31.0277Z" fill="url(#paint20_linear_510_14168)"/>
  <path d="M70.0005 36.0357H72.5006C72.8323 36.035 73.1502 35.9027 73.3845 35.6679C73.6187 35.4331 73.7503 35.1149 73.7503 34.7832C73.7503 34.4515 73.6187 34.1334 73.3845 33.8986C73.1502 33.6638 72.8323 33.5315 72.5006 33.5308H70.0005C69.6688 33.5315 69.351 33.6638 69.1167 33.8986C68.8824 34.1334 68.7509 34.4515 68.7509 34.7832C68.7509 35.1149 68.8824 35.4331 69.1167 35.6679C69.351 35.9027 69.6688 36.035 70.0005 36.0357Z" fill="url(#paint21_linear_510_14168)"/>
  <path d="M70.0005 41.0474H72.5006C72.8323 41.0467 73.1502 40.9144 73.3845 40.6796C73.6187 40.4448 73.7503 40.1267 73.7503 39.795C73.7503 39.4633 73.6187 39.1451 73.3845 38.9103C73.1502 38.6755 72.8323 38.5432 72.5006 38.5425H70.0005C69.6688 38.5432 69.351 38.6755 69.1167 38.9103C68.8824 39.1451 68.7509 39.4633 68.7509 39.795C68.7509 40.1267 68.8824 40.4448 69.1167 40.6796C69.351 40.9144 69.6688 41.0467 70.0005 41.0474Z" fill="url(#paint22_linear_510_14168)"/>
  <path d="M70.0005 46.0555H72.5006C72.8323 46.0547 73.1502 45.9225 73.3845 45.6877C73.6187 45.4529 73.7503 45.1347 73.7503 44.803C73.7503 44.4713 73.6187 44.1532 73.3845 43.9184C73.1502 43.6836 72.8323 43.5513 72.5006 43.5505H70.0005C69.6688 43.5513 69.351 43.6836 69.1167 43.9184C68.8824 44.1532 68.7509 44.4713 68.7509 44.803C68.7509 45.1347 68.8824 45.4529 69.1167 45.6877C69.351 45.9225 69.6688 46.0547 70.0005 46.0555Z" fill="url(#paint23_linear_510_14168)"/>
  <path d="M70.0005 51.0672H72.5006C72.8323 51.0665 73.1502 50.9342 73.3845 50.6994C73.6187 50.4646 73.7503 50.1464 73.7503 49.8147C73.7503 49.483 73.6187 49.1649 73.3845 48.9301C73.1502 48.6953 72.8323 48.563 72.5006 48.5623H70.0005C69.6688 48.563 69.351 48.6953 69.1167 48.9301C68.8824 49.1649 68.7509 49.483 68.7509 49.8147C68.7509 50.1464 68.8824 50.4646 69.1167 50.6994C69.351 50.9342 69.6688 51.0665 70.0005 51.0672Z" fill="url(#paint24_linear_510_14168)"/>
  <path d="M70.0005 56.0753H72.5006C72.8323 56.0745 73.1502 55.9422 73.3845 55.7074C73.6187 55.4726 73.7503 55.1545 73.7503 54.8228C73.7503 54.4911 73.6187 54.1729 73.3845 53.9381C73.1502 53.7033 72.8323 53.5711 72.5006 53.5703H70.0005C69.6688 53.5711 69.351 53.7033 69.1167 53.9381C68.8824 54.1729 68.7509 54.4911 68.7509 54.8228C68.7509 55.1545 68.8824 55.4726 69.1167 55.7074C69.351 55.9422 69.6688 56.0745 70.0005 56.0753Z" fill="url(#paint25_linear_510_14168)"/>
  <path d="M63.1255 5.6861C63.4574 5.68577 63.7755 5.55363 64.0099 5.31874C64.2443 5.08386 64.3759 4.76547 64.3755 4.43362V1.74979C64.3755 1.41826 64.2438 1.10031 64.0094 0.865883C63.775 0.631456 63.457 0.499756 63.1255 0.499756C62.794 0.499756 62.476 0.631456 62.2416 0.865883C62.0072 1.10031 61.8755 1.41826 61.8755 1.74979V4.43362C61.8751 4.76547 62.0067 5.08386 62.2411 5.31874C62.4755 5.55363 62.7936 5.68577 63.1255 5.6861Z" fill="url(#paint26_linear_510_14168)"/>
  <path d="M54.7942 8.0104C55.0414 8.23193 55.3665 8.3462 55.6979 8.32806C56.0293 8.30992 56.34 8.16086 56.5615 7.91368C56.7831 7.66649 56.8973 7.34142 56.8792 7.00999C56.8611 6.67856 56.712 6.3679 56.4648 6.14637L54.4918 4.37132C54.2443 4.15149 53.9199 4.03864 53.5894 4.05744C53.259 4.07625 52.9494 4.2252 52.7285 4.47168C52.5076 4.71816 52.3934 5.04212 52.4107 5.37265C52.4281 5.70318 52.5757 6.01337 52.8212 6.23535L54.7942 8.0104Z" fill="url(#paint27_linear_510_14168)"/>
  <path d="M69.8294 7.91546C69.939 8.03782 70.0716 8.13737 70.2197 8.20841C70.3677 8.27946 70.5284 8.3206 70.6923 8.32949C70.8563 8.33837 71.0205 8.31483 71.1753 8.2602C71.3302 8.20558 71.4728 8.12094 71.5949 8.01114L73.5689 6.23641C73.6913 6.12676 73.791 5.99407 73.8621 5.84591C73.9333 5.69775 73.9745 5.53703 73.9836 5.37291C73.9926 5.2088 73.9692 5.04452 73.9148 4.88944C73.8603 4.73436 73.7759 4.59153 73.6662 4.46909C73.5566 4.34665 73.4239 4.24701 73.2757 4.17586C73.1276 4.1047 72.9668 4.06343 72.8027 4.05439C72.4713 4.03613 72.1462 4.15028 71.8989 4.37173L69.925 6.1465C69.6783 6.36873 69.5297 6.67968 69.5118 7.01125C69.4939 7.34281 69.6081 7.66795 69.8294 7.91546Z" fill="url(#paint28_linear_510_14168)"/>
  <path d="M57.9684 5.51511C58.0371 5.66446 58.1345 5.79881 58.2552 5.91047C58.3758 6.02213 58.5173 6.10891 58.6715 6.16585C58.8257 6.22278 58.9896 6.24876 59.1538 6.24228C59.3181 6.2358 59.4795 6.19701 59.6287 6.12811C59.7779 6.05921 59.9121 5.96156 60.0236 5.84075C60.1351 5.71994 60.2216 5.57833 60.2783 5.42404C60.335 5.26974 60.3607 5.10579 60.354 4.94155C60.3472 4.77731 60.3082 4.61601 60.239 4.46688L59.1718 2.14659C59.1031 1.99728 59.0057 1.86297 58.885 1.75134C58.7644 1.63972 58.6229 1.55297 58.4688 1.49606C58.3146 1.43915 58.1507 1.41319 57.9865 1.41967C57.8222 1.42616 57.6609 1.46495 57.5117 1.53384C57.3624 1.60272 57.2283 1.70035 57.1168 1.82114C57.0054 1.94193 56.9188 2.0835 56.8621 2.23776C56.8054 2.39203 56.7797 2.55596 56.7864 2.72017C56.7931 2.88439 56.8321 3.04567 56.9012 3.1948L57.9684 5.51511Z" fill="url(#paint29_linear_510_14168)"/>
  <path d="M66.7835 6.13709C66.9324 6.20649 67.0936 6.2458 67.2577 6.25278C67.4219 6.25976 67.5858 6.23426 67.7401 6.17776C67.8943 6.12126 68.0359 6.03485 68.1567 5.92351C68.2775 5.81216 68.3752 5.67806 68.444 5.5289L69.5183 3.21171C69.5878 3.06279 69.6274 2.90161 69.6346 2.73741C69.6418 2.5732 69.6166 2.40918 69.5604 2.25473C69.5042 2.10028 69.418 1.95843 69.307 1.83728C69.1959 1.71613 69.062 1.61808 68.913 1.54871C68.764 1.47934 68.6028 1.44003 68.4385 1.43302C68.2743 1.42601 68.1103 1.45144 67.956 1.50786C67.8016 1.56428 67.6598 1.65057 67.5388 1.76181C67.4178 1.87305 67.3199 2.00705 67.2508 2.15615L66.1765 4.47334C66.0368 4.77452 66.0222 5.11882 66.136 5.43072C66.2498 5.74262 66.4827 5.99665 66.7835 6.13709Z" fill="url(#paint30_linear_510_14168)"/>
  <path d="M71.8844 10.5892C71.942 10.7431 72.0295 10.8841 72.1417 11.004C72.254 11.124 72.3888 11.2207 72.5385 11.2884C72.6882 11.3561 72.8498 11.3936 73.0141 11.3986C73.1783 11.4037 73.3419 11.3762 73.4955 11.3179L76.0682 10.3437C76.3789 10.2265 76.6303 9.99063 76.7671 9.68807C76.904 9.3855 76.915 9.04098 76.7978 8.73029C76.6806 8.4196 76.4448 8.1682 76.1422 8.03138C75.8396 7.89456 75.4951 7.88354 75.1844 8.00075L72.6117 8.97497C72.3014 9.09279 72.0505 9.32895 71.9141 9.63161C71.7777 9.93426 71.7671 10.2787 71.8844 10.5892Z" fill="url(#paint31_linear_510_14168)"/>
  <path d="M50.2128 10.6604L52.8139 11.5714C53.1274 11.6799 53.471 11.6597 53.7696 11.5152C54.0681 11.3706 54.2971 11.1136 54.4063 10.8004C54.5155 10.4872 54.496 10.1435 54.352 9.84466C54.2081 9.54584 53.9515 9.31632 53.6386 9.20647L51.0375 8.29553C50.7241 8.18698 50.3804 8.2072 50.0819 8.35174C49.7833 8.49629 49.5544 8.75336 49.4452 9.06654C49.336 9.37972 49.3555 9.72343 49.4994 10.0223C49.6433 10.3211 49.8999 10.5506 50.2128 10.6604Z" fill="url(#paint32_linear_510_14168)"/>
  <path d="M63.1257 6.54248C58.6071 6.54248 54.9309 10.0104 54.9309 14.273C54.9309 14.6045 55.0626 14.9224 55.297 15.1569C55.5314 15.3913 55.8494 15.523 56.1809 15.523C56.5124 15.523 56.8304 15.3913 57.0648 15.1569C57.2993 14.9224 57.431 14.6045 57.431 14.273C57.431 11.3916 59.9857 9.04748 63.1257 9.04748C66.2658 9.04748 68.8205 11.3916 68.8205 14.273C68.8205 14.6045 68.9522 14.9224 69.1866 15.1569C69.421 15.3913 69.739 15.523 70.0705 15.523C70.402 15.523 70.72 15.3913 70.9544 15.1569C71.1889 14.9224 71.3206 14.6045 71.3206 14.273C71.3206 10.0104 67.6443 6.54248 63.1257 6.54248Z" fill="url(#paint33_linear_510_14168)"/>
  <path d="M78.751 77.9956H1.24857C0.916876 77.9963 0.599016 78.1286 0.364732 78.3634C0.130447 78.5983 -0.00112915 78.9164 -0.00112915 79.2481C-0.00112915 79.5798 0.130447 79.898 0.364732 80.1328C0.599016 80.3676 0.916876 80.4999 1.24857 80.5006H78.751C79.0827 80.4999 79.4006 80.3676 79.6349 80.1328C79.8692 79.898 80.0007 79.5798 80.0007 79.2481C80.0007 78.9164 79.8692 78.5983 79.6349 78.3634C79.4006 78.1286 79.0827 77.9963 78.751 77.9956Z" fill="url(#paint34_linear_510_14168)"/>
  <path d="M31.2493 68.6018C30.9176 68.6025 30.5997 68.7348 30.3655 68.9696C30.1312 69.2044 29.9996 69.5226 29.9996 69.8543C29.9996 70.186 30.1312 70.5041 30.3655 70.7389C30.5997 70.9737 30.9176 71.106 31.2493 71.1068H33.7494C34.0811 71.106 34.3989 70.9737 34.6332 70.7389C34.8675 70.5041 34.9991 70.186 34.9991 69.8543C34.9991 69.5226 34.8675 69.2044 34.6332 68.9696C34.3989 68.7348 34.0811 68.6025 33.7494 68.6018H31.2493Z" fill="url(#paint35_linear_510_14168)"/>
  <path d="M78.7517 68.6018H78.4131C78.4314 68.6854 78.4539 68.767 78.4691 68.8519C78.4984 69.0129 78.5168 69.1756 78.5244 69.339L78.6079 71.1068H78.7517C79.0834 71.106 79.4013 70.9737 79.6356 70.7389C79.8698 70.5041 80.0014 70.186 80.0014 69.8543C80.0014 69.5226 79.8698 69.2044 79.6356 68.9696C79.4013 68.7348 79.0834 68.6025 78.7517 68.6018Z" fill="url(#paint36_linear_510_14168)"/>
  <path d="M23.7492 68.6018C23.4175 68.6025 23.0996 68.7348 22.8653 68.9696C22.6311 69.2044 22.4995 69.5226 22.4995 69.8543C22.4995 70.186 22.6311 70.5041 22.8653 70.7389C23.0996 70.9737 23.4175 71.106 23.7492 71.1068H26.2492C26.5809 71.106 26.8988 70.9737 27.1331 70.7389C27.3674 70.5041 27.4989 70.186 27.4989 69.8543C27.4989 69.5226 27.3674 69.2044 27.1331 68.9696C26.8988 68.7348 26.5809 68.6025 26.2492 68.6018H23.7492Z" fill="url(#paint37_linear_510_14168)"/>
  <path d="M8.7488 68.6018C8.41711 68.6025 8.09925 68.7348 7.86497 68.9696C7.63069 69.2044 7.49911 69.5226 7.49911 69.8543C7.49911 70.186 7.63069 70.5041 7.86497 70.7389C8.09925 70.9737 8.41711 71.106 8.7488 71.1068H11.2489C11.5806 71.106 11.8984 70.9737 12.1327 70.7389C12.367 70.5041 12.4986 70.186 12.4986 69.8543C12.4986 69.5226 12.367 69.2044 12.1327 68.9696C11.8984 68.7348 11.5806 68.6025 11.2489 68.6018H8.7488Z" fill="url(#paint38_linear_510_14168)"/>
  <path d="M1.24856 71.1068H3.74864C4.08033 71.106 4.39818 70.9737 4.63247 70.7389C4.86675 70.5041 4.99832 70.186 4.99832 69.8543C4.99832 69.5226 4.86675 69.2044 4.63247 68.9696C4.39818 68.7348 4.08033 68.6025 3.74864 68.6018H1.24856C0.916863 68.6025 0.599007 68.7348 0.364726 68.9696C0.130445 69.2044 -0.00112915 69.5226 -0.00112915 69.8543C-0.00112915 70.186 0.130445 70.5041 0.364726 70.7389C0.599007 70.9737 0.916863 71.106 1.24856 71.1068Z" fill="url(#paint39_linear_510_14168)"/>
  <path d="M16.2489 68.6018C15.9172 68.6025 15.5994 68.7348 15.3651 68.9696C15.1308 69.2044 14.9992 69.5226 14.9992 69.8543C14.9992 70.186 15.1308 70.5041 15.3651 70.7389C15.5994 70.9737 15.9172 71.106 16.2489 71.1068H18.749C19.0807 71.106 19.3986 70.9737 19.6328 70.7389C19.8671 70.5041 19.9987 70.186 19.9987 69.8543C19.9987 69.5226 19.8671 69.2044 19.6328 68.9696C19.3986 68.7348 19.0807 68.6025 18.749 68.6018H16.2489Z" fill="url(#paint40_linear_510_14168)"/>
  <path d="M1.24868 58.5817C0.916985 58.5825 0.59913 58.7148 0.364848 58.9496C0.130567 59.1844 -0.00100704 59.5025 -0.00100704 59.8342C-0.00100704 60.1659 0.130567 60.4841 0.364848 60.7189C0.59913 60.9537 0.916985 61.086 1.24868 61.0867H49.2675L50.0478 60.2179C50.6668 59.5292 51.4186 58.9727 52.258 58.5817H48.7502V17.7152L58.7505 27.4846V57.9555H61.2506V26.9565C61.2506 26.7894 61.2172 26.624 61.1524 26.47C61.0875 26.316 60.9926 26.1764 60.8731 26.0596L48.3727 13.8479C48.1965 13.6761 47.9736 13.5601 47.7318 13.5144C47.49 13.4688 47.2401 13.4955 47.0135 13.5913C46.7868 13.687 46.5934 13.8476 46.4576 14.0528C46.3219 14.258 46.2497 14.4987 46.2501 14.7448V58.5817H41.25V54.6594C42.4283 54.3551 43.4553 53.6316 44.1383 52.6243C44.8213 51.6171 45.1136 50.3953 44.9602 49.188C44.8069 47.9807 44.2185 46.8707 43.3053 46.0662C42.3921 45.2617 41.2169 44.8179 39.9999 44.8179C38.7829 44.8179 37.6077 45.2617 36.6945 46.0662C35.7814 46.8707 35.193 47.9807 35.0396 49.188C34.8863 50.3953 35.1785 51.6171 35.8615 52.6243C36.5446 53.6316 37.5715 54.3551 38.7499 54.6594V58.5817H32.4997V31.0271H41.25V42.4126C42.1309 42.561 42.9778 42.8671 43.75 43.3163V29.7746C43.7503 29.4428 43.6188 29.1244 43.3844 28.8895C43.15 28.6546 42.8318 28.5225 42.5 28.5222H40.6249V24.7647C40.6252 24.4328 40.4937 24.1145 40.2593 23.8796C40.0249 23.6447 39.7067 23.5125 39.3749 23.5122H32.4997V19.7548C32.5 19.4229 32.3685 19.1045 32.134 18.8696C31.8996 18.6348 31.5815 18.5026 31.2496 18.5023H29.3746V14.7448C29.3749 14.413 29.2434 14.0946 29.0089 13.8597C28.7745 13.6248 28.4564 13.4927 28.1245 13.4923H27.4995V12.2399C27.4995 11.9083 27.3678 11.5904 27.1334 11.3559C26.899 11.1215 26.581 10.9898 26.2495 10.9898C25.9179 10.9898 25.6 11.1215 25.3656 11.3559C25.1311 11.5904 24.9994 11.9083 24.9994 12.2399V13.4923H19.9993V9.7349C19.9993 9.40337 19.8676 9.08542 19.6331 8.85099C19.3987 8.61656 19.0808 8.48486 18.7492 8.48486C18.4177 8.48486 18.0998 8.61656 17.8653 8.85099C17.6309 9.08542 17.4992 9.40337 17.4992 9.7349V13.4923H16.8742C16.5423 13.4927 16.2242 13.6248 15.9898 13.8597C15.7554 14.0946 15.6238 14.413 15.6241 14.7448V18.5023H13.7491C13.4172 18.5026 13.0991 18.6348 12.8647 18.8696C12.6302 19.1045 12.4987 19.4229 12.499 19.7548V23.5122H5.62382C5.29197 23.5125 4.97384 23.6447 4.73942 23.8796C4.505 24.1145 4.37347 24.4328 4.37378 24.7647V28.5222H2.49872C2.16687 28.5225 1.84873 28.6546 1.61431 28.8895C1.37988 29.1244 1.24836 29.4428 1.24868 29.7746V43.3163C2.0209 42.8671 2.86783 42.561 3.74876 42.4126V31.0271H12.499V58.5817H6.24884V54.6594C7.4272 54.3551 8.45414 53.6316 9.13718 52.6243C9.82022 51.6171 10.1125 50.3953 9.9591 49.188C9.80576 47.9807 9.21735 46.8707 8.30419 46.0662C7.39103 45.2617 6.2158 44.8179 4.9988 44.8179C3.78179 44.8179 2.60656 45.2617 1.6934 46.0662C0.780241 46.8707 0.19184 47.9807 0.0384917 49.188C-0.114856 50.3953 0.177377 51.6171 0.860414 52.6243C1.54345 53.6316 2.5704 54.3551 3.74876 54.6594V58.5817L1.24868 58.5817ZM37.4998 49.8144C37.5008 49.3201 37.6482 48.8372 37.9235 48.4267C38.1988 48.0162 38.5896 47.6965 39.0465 47.5081C39.5035 47.3196 40.006 47.2708 40.4906 47.3678C40.9753 47.4648 41.4203 47.7033 41.7695 48.0531C42.1186 48.403 42.3562 48.8485 42.4523 49.3333C42.5484 49.8181 42.4986 50.3206 42.3092 50.7771C42.1198 51.2336 41.7994 51.6238 41.3884 51.8983C40.9773 52.1728 40.4942 52.3193 39.9999 52.3193C39.3364 52.3179 38.7006 52.0534 38.2319 51.5838C37.7632 51.1142 37.4999 50.4778 37.4998 49.8144ZM29.9996 58.5817H14.9991V31.0271H29.9996V58.5817ZM18.1242 15.9973H26.8745V18.5023H18.1242V15.9973ZM14.9991 21.0072H29.9996V23.5122H14.9991V21.0072ZM6.87386 28.5222V26.0172H38.1249V28.5221L6.87386 28.5222ZM2.49872 49.8144C2.49968 49.3201 2.64713 48.8372 2.92243 48.4267C3.19773 48.0162 3.58852 47.6965 4.04544 47.5081C4.50235 47.3196 5.00488 47.2708 5.48952 47.3678C5.97417 47.4648 6.41918 47.7033 6.76834 48.0531C7.11749 48.403 7.35512 48.8485 7.45119 49.3333C7.54726 49.8181 7.49747 50.3205 7.3081 50.7771C7.11873 51.2336 6.79829 51.6238 6.38726 51.8983C5.97623 52.1728 5.49306 52.3193 4.9988 52.3193C4.33532 52.3179 3.6995 52.0534 3.23081 51.5838C2.76212 51.1142 2.49884 50.4778 2.49872 49.8144Z" fill="url(#paint41_linear_510_14168)"/>
  <path d="M78.7509 58.5805V14.7435C78.7514 14.4975 78.6792 14.2568 78.5434 14.0515C78.4076 13.8463 78.2142 13.6858 77.9876 13.59C77.7609 13.4942 77.511 13.4675 77.2692 13.5132C77.0274 13.5588 76.8045 13.6748 76.6284 13.8467L64.128 26.0584C64.0085 26.1752 63.9135 26.3147 63.8487 26.4687C63.7838 26.6227 63.7504 26.7881 63.7505 26.9552V58.028C64.3845 58.1226 65.0015 58.3089 65.582 58.5811C65.8549 58.7075 66.1191 58.8521 66.3728 59.0138C66.3859 59.022 66.399 59.0299 66.4121 59.0383C66.6451 59.189 66.8687 59.3537 67.0817 59.5314C67.1136 59.5578 67.1467 59.5822 67.1782 59.6092C67.371 59.7769 67.5544 59.9551 67.7277 60.1429C67.7679 60.1859 67.8112 60.2247 67.8505 60.2689C68.0565 60.5003 68.2472 60.7448 68.4213 61.001L68.4782 61.0854H78.7509C79.0826 61.0847 79.4005 60.9524 79.6348 60.7176C79.869 60.4828 80.0006 60.1647 80.0006 59.833C80.0006 59.5013 79.869 59.1831 79.6348 58.9483C79.4005 58.7135 79.0826 58.5812 78.7509 58.5805ZM76.2509 58.5805H66.2505V27.4833L76.2509 17.7139V58.5805Z" fill="url(#paint42_linear_510_14168)"/>
  <path d="M52.2817 75.49H62.7195C62.9759 76.222 63.4534 76.8563 64.0861 77.3051C64.7187 77.7539 65.4752 77.9949 66.2509 77.9949C67.0265 77.9949 67.783 77.7539 68.4156 77.3051C69.0483 76.8563 69.5258 76.222 69.7822 75.49H73.6904C74.029 75.4897 74.3641 75.4207 74.6753 75.2871C74.9865 75.1535 75.2673 74.9582 75.5008 74.7129C75.7343 74.4676 75.9155 74.1775 76.0336 73.8601C76.1517 73.5427 76.2041 73.2046 76.1877 72.8664L76.0266 69.4575C76.0241 69.403 76.018 69.3486 76.0082 69.2949C75.8751 68.4049 75.4334 67.5901 74.7604 66.9927C74.0874 66.3953 73.226 66.0534 72.3265 66.0267H69.376C69.1814 66.0203 68.9914 65.9657 68.8231 65.8678C68.6549 65.7698 68.5136 65.6316 68.4119 65.4656L66.3495 62.4035C65.9645 61.8145 65.4406 61.3292 64.824 60.9903C64.2073 60.6515 63.5168 60.4694 62.8133 60.4602H55.0451C54.4507 60.466 53.8641 60.5966 53.3234 60.8435C52.7827 61.0904 52.2998 61.4482 51.9062 61.8937L48.5532 65.6261C48.4498 65.7485 48.3216 65.8475 48.1771 65.9166C48.0326 65.9856 47.875 66.0232 47.7148 66.0267H43.1252C42.0935 66.0671 41.1199 66.5144 40.4171 67.2707C39.7144 68.027 39.3397 69.0308 39.375 70.0627V72.985C39.3751 73.6485 39.6384 74.2849 40.1071 74.7545C40.5758 75.2241 41.2116 75.4886 41.8751 75.49H45.219C45.4753 76.2221 45.9529 76.8563 46.5855 77.3051C47.2182 77.7539 47.9747 77.9949 48.7503 77.9949C49.526 77.9949 50.2824 77.7539 50.9151 77.3051C51.5477 76.8563 52.0253 76.222 52.2817 75.49ZM66.2509 75.49C66.0031 75.4905 65.7607 75.4174 65.5544 75.2801C65.3481 75.1428 65.1872 74.9473 65.092 74.7185C64.9968 74.4897 64.9717 74.2378 65.0197 73.9947C65.0678 73.7515 65.1869 73.5281 65.3619 73.3527C65.537 73.1773 65.7602 73.0578 66.0032 73.0093C66.2462 72.9607 66.4982 72.9854 66.7272 73.0801C66.9562 73.1749 67.1519 73.3354 67.2897 73.5414C67.4274 73.7474 67.5009 73.9897 67.5009 74.2375C67.5009 74.5693 67.3693 74.8875 67.1349 75.1223C66.9006 75.3571 66.5826 75.4893 66.2509 75.49ZM45.219 72.985H41.8751V70.0627C41.8421 69.6947 41.9545 69.3285 42.1881 69.0424C42.4217 68.7562 42.7581 68.5729 43.1252 68.5316H47.7148C48.2254 68.527 48.7293 68.4152 49.1939 68.2033C49.6584 67.9914 50.0732 67.6843 50.4114 67.3018L53.7642 63.5694C53.9227 63.3836 54.1188 63.2337 54.3397 63.1295C54.5605 63.0254 54.801 62.9693 55.0451 62.9652H62.8133C63.1078 62.9727 63.3958 63.0535 63.6514 63.2C63.9069 63.3466 64.122 63.5544 64.2773 63.8048L66.3397 66.8666C66.6704 67.3719 67.1204 67.788 67.6499 68.0784C68.1794 68.3687 68.7721 68.5244 69.376 68.5316H72.3265C72.6266 68.557 72.9093 68.6832 73.1285 68.8897C73.3477 69.0962 73.4906 69.3708 73.5338 69.6688L73.6904 72.985H69.7822C69.5259 72.253 69.0483 71.6187 68.4157 71.1699C67.783 70.7211 67.0266 70.4801 66.2509 70.4801C65.4752 70.4801 64.7188 70.7211 64.0861 71.1699C63.4535 71.6187 62.9759 72.253 62.7196 72.985H52.2817C52.0253 72.253 51.5478 71.6187 50.9151 71.1699C50.2825 70.7211 49.526 70.4801 48.7504 70.4801C47.9747 70.4801 47.2182 70.7211 46.5856 71.1699C45.9529 71.6187 45.4753 72.253 45.219 72.985ZM48.7503 75.49C48.5025 75.4905 48.2601 75.4174 48.0538 75.2801C47.8475 75.1428 47.6866 74.9473 47.5914 74.7185C47.4963 74.4897 47.4711 74.2378 47.5192 73.9947C47.5672 73.7515 47.6863 73.5281 47.8614 73.3527C48.0364 73.1773 48.2596 73.0578 48.5026 73.0093C48.7457 72.9607 48.9976 72.9854 49.2266 73.0801C49.4556 73.1749 49.6514 73.3354 49.7891 73.5414C49.9269 73.7474 50.0004 73.9897 50.0004 74.2375C50.0004 74.5693 49.8687 74.8875 49.6344 75.1223C49.4 75.3571 49.0821 75.4893 48.7503 75.49Z" fill="url(#paint43_linear_510_14168)"/>
  <defs>
    <linearGradient id="paint0_linear_510_14168" x1="8.15834" y1="38.2081" x2="8.15834" y2="35.0645" gradientUnits="userSpaceOnUse">
      <stop stop-color="#F15B2A"/>
      <stop offset="0.34" stop-color="#EB2127"/>
      <stop offset="0.69" stop-color="#E7216A"/>
      <stop offset="1" stop-color="#B41F56"/>
    </linearGradient>
    <linearGradient id="paint1_linear_510_14168" x1="8.15834" y1="43.2198" x2="8.15834" y2="40.0762" gradientUnits="userSpaceOnUse">
      <stop stop-color="#F15B2A"/>
      <stop offset="0.34" stop-color="#EB2127"/>
      <stop offset="0.69" stop-color="#E7216A"/>
      <stop offset="1" stop-color="#B41F56"/>
    </linearGradient>
    <linearGradient id="paint2_linear_510_14168" x1="19.7212" y1="38.2081" x2="19.7212" y2="35.0645" gradientUnits="userSpaceOnUse">
      <stop stop-color="#F15B2A"/>
      <stop offset="0.34" stop-color="#EB2127"/>
      <stop offset="0.69" stop-color="#E7216A"/>
      <stop offset="1" stop-color="#B41F56"/>
    </linearGradient>
    <linearGradient id="paint3_linear_510_14168" x1="25.9713" y1="38.2081" x2="25.9713" y2="35.0645" gradientUnits="userSpaceOnUse">
      <stop stop-color="#F15B2A"/>
      <stop offset="0.34" stop-color="#EB2127"/>
      <stop offset="0.69" stop-color="#E7216A"/>
      <stop offset="1" stop-color="#B41F56"/>
    </linearGradient>
    <linearGradient id="paint4_linear_510_14168" x1="36.9101" y1="38.2081" x2="36.9101" y2="35.0645" gradientUnits="userSpaceOnUse">
      <stop stop-color="#F15B2A"/>
      <stop offset="0.34" stop-color="#EB2127"/>
      <stop offset="0.69" stop-color="#E7216A"/>
      <stop offset="1" stop-color="#B41F56"/>
    </linearGradient>
    <linearGradient id="paint5_linear_510_14168" x1="36.9092" y1="43.2198" x2="36.9092" y2="40.0762" gradientUnits="userSpaceOnUse">
      <stop stop-color="#F15B2A"/>
      <stop offset="0.34" stop-color="#EB2127"/>
      <stop offset="0.69" stop-color="#E7216A"/>
      <stop offset="1" stop-color="#B41F56"/>
    </linearGradient>
    <linearGradient id="paint6_linear_510_14168" x1="19.7212" y1="43.2198" x2="19.7212" y2="40.0762" gradientUnits="userSpaceOnUse">
      <stop stop-color="#F15B2A"/>
      <stop offset="0.34" stop-color="#EB2127"/>
      <stop offset="0.69" stop-color="#E7216A"/>
      <stop offset="1" stop-color="#B41F56"/>
    </linearGradient>
    <linearGradient id="paint7_linear_510_14168" x1="25.9713" y1="43.2198" x2="25.9713" y2="40.0762" gradientUnits="userSpaceOnUse">
      <stop stop-color="#F15B2A"/>
      <stop offset="0.34" stop-color="#EB2127"/>
      <stop offset="0.69" stop-color="#E7216A"/>
      <stop offset="1" stop-color="#B41F56"/>
    </linearGradient>
    <linearGradient id="paint8_linear_510_14168" x1="19.7212" y1="48.2279" x2="19.7212" y2="45.0842" gradientUnits="userSpaceOnUse">
      <stop stop-color="#F15B2A"/>
      <stop offset="0.34" stop-color="#EB2127"/>
      <stop offset="0.69" stop-color="#E7216A"/>
      <stop offset="1" stop-color="#B41F56"/>
    </linearGradient>
    <linearGradient id="paint9_linear_510_14168" x1="25.9713" y1="48.2279" x2="25.9713" y2="45.0842" gradientUnits="userSpaceOnUse">
      <stop stop-color="#F15B2A"/>
      <stop offset="0.34" stop-color="#EB2127"/>
      <stop offset="0.69" stop-color="#E7216A"/>
      <stop offset="1" stop-color="#B41F56"/>
    </linearGradient>
    <linearGradient id="paint10_linear_510_14168" x1="19.7212" y1="53.2396" x2="19.7212" y2="50.096" gradientUnits="userSpaceOnUse">
      <stop stop-color="#F15B2A"/>
      <stop offset="0.34" stop-color="#EB2127"/>
      <stop offset="0.69" stop-color="#E7216A"/>
      <stop offset="1" stop-color="#B41F56"/>
    </linearGradient>
    <linearGradient id="paint11_linear_510_14168" x1="25.9713" y1="53.2396" x2="25.9713" y2="50.096" gradientUnits="userSpaceOnUse">
      <stop stop-color="#F15B2A"/>
      <stop offset="0.34" stop-color="#EB2127"/>
      <stop offset="0.69" stop-color="#E7216A"/>
      <stop offset="1" stop-color="#B41F56"/>
    </linearGradient>
    <linearGradient id="paint12_linear_510_14168" x1="19.7212" y1="58.2477" x2="19.7212" y2="55.104" gradientUnits="userSpaceOnUse">
      <stop stop-color="#F15B2A"/>
      <stop offset="0.34" stop-color="#EB2127"/>
      <stop offset="0.69" stop-color="#E7216A"/>
      <stop offset="1" stop-color="#B41F56"/>
    </linearGradient>
    <linearGradient id="paint13_linear_510_14168" x1="25.9713" y1="58.2477" x2="25.9713" y2="55.104" gradientUnits="userSpaceOnUse">
      <stop stop-color="#F15B2A"/>
      <stop offset="0.34" stop-color="#EB2127"/>
      <stop offset="0.69" stop-color="#E7216A"/>
      <stop offset="1" stop-color="#B41F56"/>
    </linearGradient>
    <linearGradient id="paint14_linear_510_14168" x1="53.7963" y1="33.2001" x2="53.7963" y2="30.0564" gradientUnits="userSpaceOnUse">
      <stop stop-color="#F15B2A"/>
      <stop offset="0.34" stop-color="#EB2127"/>
      <stop offset="0.69" stop-color="#E7216A"/>
      <stop offset="1" stop-color="#B41F56"/>
    </linearGradient>
    <linearGradient id="paint15_linear_510_14168" x1="53.7971" y1="38.2081" x2="53.7971" y2="35.0645" gradientUnits="userSpaceOnUse">
      <stop stop-color="#F15B2A"/>
      <stop offset="0.34" stop-color="#EB2127"/>
      <stop offset="0.69" stop-color="#E7216A"/>
      <stop offset="1" stop-color="#B41F56"/>
    </linearGradient>
    <linearGradient id="paint16_linear_510_14168" x1="53.7963" y1="43.2198" x2="53.7963" y2="40.0762" gradientUnits="userSpaceOnUse">
      <stop stop-color="#F15B2A"/>
      <stop offset="0.34" stop-color="#EB2127"/>
      <stop offset="0.69" stop-color="#E7216A"/>
      <stop offset="1" stop-color="#B41F56"/>
    </linearGradient>
    <linearGradient id="paint17_linear_510_14168" x1="53.7963" y1="48.2279" x2="53.7963" y2="45.0842" gradientUnits="userSpaceOnUse">
      <stop stop-color="#F15B2A"/>
      <stop offset="0.34" stop-color="#EB2127"/>
      <stop offset="0.69" stop-color="#E7216A"/>
      <stop offset="1" stop-color="#B41F56"/>
    </linearGradient>
    <linearGradient id="paint18_linear_510_14168" x1="53.7971" y1="53.2396" x2="53.7971" y2="50.096" gradientUnits="userSpaceOnUse">
      <stop stop-color="#F15B2A"/>
      <stop offset="0.34" stop-color="#EB2127"/>
      <stop offset="0.69" stop-color="#E7216A"/>
      <stop offset="1" stop-color="#B41F56"/>
    </linearGradient>
    <linearGradient id="paint19_linear_510_14168" x1="53.7963" y1="58.2476" x2="53.7963" y2="55.104" gradientUnits="userSpaceOnUse">
      <stop stop-color="#F15B2A"/>
      <stop offset="0.34" stop-color="#EB2127"/>
      <stop offset="0.69" stop-color="#E7216A"/>
      <stop offset="1" stop-color="#B41F56"/>
    </linearGradient>
    <linearGradient id="paint20_linear_510_14168" x1="71.2968" y1="33.2001" x2="71.2968" y2="30.0564" gradientUnits="userSpaceOnUse">
      <stop stop-color="#F15B2A"/>
      <stop offset="0.34" stop-color="#EB2127"/>
      <stop offset="0.69" stop-color="#E7216A"/>
      <stop offset="1" stop-color="#B41F56"/>
    </linearGradient>
    <linearGradient id="paint21_linear_510_14168" x1="71.2968" y1="38.2081" x2="71.2968" y2="35.0645" gradientUnits="userSpaceOnUse">
      <stop stop-color="#F15B2A"/>
      <stop offset="0.34" stop-color="#EB2127"/>
      <stop offset="0.69" stop-color="#E7216A"/>
      <stop offset="1" stop-color="#B41F56"/>
    </linearGradient>
    <linearGradient id="paint22_linear_510_14168" x1="71.2968" y1="43.2198" x2="71.2968" y2="40.0762" gradientUnits="userSpaceOnUse">
      <stop stop-color="#F15B2A"/>
      <stop offset="0.34" stop-color="#EB2127"/>
      <stop offset="0.69" stop-color="#E7216A"/>
      <stop offset="1" stop-color="#B41F56"/>
    </linearGradient>
    <linearGradient id="paint23_linear_510_14168" x1="71.2968" y1="48.2279" x2="71.2968" y2="45.0842" gradientUnits="userSpaceOnUse">
      <stop stop-color="#F15B2A"/>
      <stop offset="0.34" stop-color="#EB2127"/>
      <stop offset="0.69" stop-color="#E7216A"/>
      <stop offset="1" stop-color="#B41F56"/>
    </linearGradient>
    <linearGradient id="paint24_linear_510_14168" x1="71.2968" y1="53.2396" x2="71.2968" y2="50.096" gradientUnits="userSpaceOnUse">
      <stop stop-color="#F15B2A"/>
      <stop offset="0.34" stop-color="#EB2127"/>
      <stop offset="0.69" stop-color="#E7216A"/>
      <stop offset="1" stop-color="#B41F56"/>
    </linearGradient>
    <linearGradient id="paint25_linear_510_14168" x1="71.2968" y1="58.2477" x2="71.2968" y2="55.104" gradientUnits="userSpaceOnUse">
      <stop stop-color="#F15B2A"/>
      <stop offset="0.34" stop-color="#EB2127"/>
      <stop offset="0.69" stop-color="#E7216A"/>
      <stop offset="1" stop-color="#B41F56"/>
    </linearGradient>
    <linearGradient id="paint26_linear_510_14168" x1="63.1486" y1="10.1839" x2="63.1486" y2="3.67518" gradientUnits="userSpaceOnUse">
      <stop stop-color="#F15B2A"/>
      <stop offset="0.34" stop-color="#EB2127"/>
      <stop offset="0.69" stop-color="#E7216A"/>
      <stop offset="1" stop-color="#B41F56"/>
    </linearGradient>
    <linearGradient id="paint27_linear_510_14168" x1="54.6864" y1="12.0369" x2="54.6864" y2="6.67256" gradientUnits="userSpaceOnUse">
      <stop stop-color="#F15B2A"/>
      <stop offset="0.34" stop-color="#EB2127"/>
      <stop offset="0.69" stop-color="#E7216A"/>
      <stop offset="1" stop-color="#B41F56"/>
    </linearGradient>
    <linearGradient id="paint28_linear_510_14168" x1="71.7891" y1="12.0421" x2="71.7891" y2="6.67227" gradientUnits="userSpaceOnUse">
      <stop stop-color="#F15B2A"/>
      <stop offset="0.34" stop-color="#EB2127"/>
      <stop offset="0.69" stop-color="#E7216A"/>
      <stop offset="1" stop-color="#B41F56"/>
    </linearGradient>
    <linearGradient id="paint29_linear_510_14168" x1="58.6032" y1="10.4273" x2="58.6032" y2="4.37261" gradientUnits="userSpaceOnUse">
      <stop stop-color="#F15B2A"/>
      <stop offset="0.34" stop-color="#EB2127"/>
      <stop offset="0.69" stop-color="#E7216A"/>
      <stop offset="1" stop-color="#B41F56"/>
    </linearGradient>
    <linearGradient id="paint30_linear_510_14168" x1="67.881" y1="10.4357" x2="67.881" y2="4.38424" gradientUnits="userSpaceOnUse">
      <stop stop-color="#F15B2A"/>
      <stop offset="0.34" stop-color="#EB2127"/>
      <stop offset="0.69" stop-color="#E7216A"/>
      <stop offset="1" stop-color="#B41F56"/>
    </linearGradient>
    <linearGradient id="paint31_linear_510_14168" x1="74.3878" y1="14.4164" x2="74.3878" y2="10.0503" gradientUnits="userSpaceOnUse">
      <stop stop-color="#F15B2A"/>
      <stop offset="0.34" stop-color="#EB2127"/>
      <stop offset="0.69" stop-color="#E7216A"/>
      <stop offset="1" stop-color="#B41F56"/>
    </linearGradient>
    <linearGradient id="paint32_linear_510_14168" x1="51.9728" y1="14.6009" x2="51.9728" y2="10.3167" gradientUnits="userSpaceOnUse">
      <stop stop-color="#F15B2A"/>
      <stop offset="0.34" stop-color="#EB2127"/>
      <stop offset="0.69" stop-color="#E7216A"/>
      <stop offset="1" stop-color="#B41F56"/>
    </linearGradient>
    <linearGradient id="paint33_linear_510_14168" x1="63.2772" y1="23.3112" x2="63.2772" y2="12.0409" gradientUnits="userSpaceOnUse">
      <stop stop-color="#F15B2A"/>
      <stop offset="0.34" stop-color="#EB2127"/>
      <stop offset="0.69" stop-color="#E7216A"/>
      <stop offset="1" stop-color="#B41F56"/>
    </linearGradient>
    <linearGradient id="paint34_linear_510_14168" x1="40.739" y1="82.673" x2="40.739" y2="79.5293" gradientUnits="userSpaceOnUse">
      <stop stop-color="#F15B2A"/>
      <stop offset="0.34" stop-color="#EB2127"/>
      <stop offset="0.69" stop-color="#E7216A"/>
      <stop offset="1" stop-color="#B41F56"/>
    </linearGradient>
    <linearGradient id="paint35_linear_510_14168" x1="32.5455" y1="73.2792" x2="32.5455" y2="70.1355" gradientUnits="userSpaceOnUse">
      <stop stop-color="#F15B2A"/>
      <stop offset="0.34" stop-color="#EB2127"/>
      <stop offset="0.69" stop-color="#E7216A"/>
      <stop offset="1" stop-color="#B41F56"/>
    </linearGradient>
    <linearGradient id="paint36_linear_510_14168" x1="79.2219" y1="73.2792" x2="79.2219" y2="70.1355" gradientUnits="userSpaceOnUse">
      <stop stop-color="#F15B2A"/>
      <stop offset="0.34" stop-color="#EB2127"/>
      <stop offset="0.69" stop-color="#E7216A"/>
      <stop offset="1" stop-color="#B41F56"/>
    </linearGradient>
    <linearGradient id="paint37_linear_510_14168" x1="25.0454" y1="73.2792" x2="25.0454" y2="70.1355" gradientUnits="userSpaceOnUse">
      <stop stop-color="#F15B2A"/>
      <stop offset="0.34" stop-color="#EB2127"/>
      <stop offset="0.69" stop-color="#E7216A"/>
      <stop offset="1" stop-color="#B41F56"/>
    </linearGradient>
    <linearGradient id="paint38_linear_510_14168" x1="10.045" y1="73.2792" x2="10.045" y2="70.1355" gradientUnits="userSpaceOnUse">
      <stop stop-color="#F15B2A"/>
      <stop offset="0.34" stop-color="#EB2127"/>
      <stop offset="0.69" stop-color="#E7216A"/>
      <stop offset="1" stop-color="#B41F56"/>
    </linearGradient>
    <linearGradient id="paint39_linear_510_14168" x1="2.54479" y1="73.2792" x2="2.54479" y2="70.1355" gradientUnits="userSpaceOnUse">
      <stop stop-color="#F15B2A"/>
      <stop offset="0.34" stop-color="#EB2127"/>
      <stop offset="0.69" stop-color="#E7216A"/>
      <stop offset="1" stop-color="#B41F56"/>
    </linearGradient>
    <linearGradient id="paint40_linear_510_14168" x1="17.5452" y1="73.2792" x2="17.5452" y2="70.1355" gradientUnits="userSpaceOnUse">
      <stop stop-color="#F15B2A"/>
      <stop offset="0.34" stop-color="#EB2127"/>
      <stop offset="0.69" stop-color="#E7216A"/>
      <stop offset="1" stop-color="#B41F56"/>
    </linearGradient>
    <linearGradient id="paint41_linear_510_14168" x1="31.1906" y1="106.705" x2="31.1906" y2="40.6912" gradientUnits="userSpaceOnUse">
      <stop stop-color="#F15B2A"/>
      <stop offset="0.34" stop-color="#EB2127"/>
      <stop offset="0.69" stop-color="#E7216A"/>
      <stop offset="1" stop-color="#B41F56"/>
    </linearGradient>
    <linearGradient id="paint42_linear_510_14168" x1="72.0257" y1="102.361" x2="72.0257" y2="42.6316" gradientUnits="userSpaceOnUse">
      <stop stop-color="#F15B2A"/>
      <stop offset="0.34" stop-color="#EB2127"/>
      <stop offset="0.69" stop-color="#E7216A"/>
      <stop offset="1" stop-color="#B41F56"/>
    </linearGradient>
    <linearGradient id="paint43_linear_510_14168" x1="58.1219" y1="93.2017" x2="58.1219" y2="71.1961" gradientUnits="userSpaceOnUse">
      <stop stop-color="#F15B2A"/>
      <stop offset="0.34" stop-color="#EB2127"/>
      <stop offset="0.69" stop-color="#E7216A"/>
      <stop offset="1" stop-color="#B41F56"/>
    </linearGradient>
  </defs>
</svg>