<svg xmlns="http://www.w3.org/2000/svg" width="918" height="543" viewBox="0 0 918 543" fill="none">
    <path d="M713.692 553.999C708.711 553.999 703.683 553.736 698.735 553.216C696.153 552.945 693.441 552.555 691.15 551.056C688.732 549.475 686.84 546.244 687.904 543.127C689.014 539.875 692.247 538.907 695.099 538.054C697.182 537.43 699.149 536.841 700.281 535.535C701.78 533.805 701.536 531.298 701.253 528.396C701.247 528.339 701.242 528.282 701.236 528.225C699.566 527.634 697.786 526.622 695.949 525.198C692.466 522.498 689.047 519.423 687.621 515.247C686.688 512.515 686.935 509.269 688.266 506.776C689.068 505.274 690.23 504.11 691.618 503.397C686.478 485.955 681.221 467.938 678.003 449.361C674.177 427.278 673.313 404.576 672.476 382.623C672.454 382.025 672.789 381.471 673.329 381.215C673.579 381.097 673.849 381.052 674.113 381.078C666.452 360.01 662.582 338.258 662.837 317.293C662.839 317.148 662.862 317.004 662.905 316.865C664.27 312.503 663.959 307.929 663.18 303.151C660.683 302.394 658.263 301.332 656.084 299.798C655.716 299.539 655.484 299.128 655.453 298.68C654.514 285.244 657.762 272.125 660.904 259.437C661.696 256.235 662.506 252.966 663.705 249.819C662.633 247.586 661.689 245.281 660.88 242.93C659.526 243.52 658.116 243.938 656.685 244.161C656.294 244.223 655.9 244.27 655.507 244.303C654.228 245.697 652.651 246.786 650.694 247.387C649.796 247.663 648.882 247.81 647.999 247.952C646.509 248.193 645.101 248.42 644.19 249.23C643.215 250.099 642.879 251.522 642.49 253.17C642.147 254.626 641.792 256.132 640.927 257.484C639.77 259.291 638.027 260.338 636.34 261.351C634.979 262.168 633.694 262.941 632.878 264.034C630.799 266.819 632.049 271.022 633.71 275.149C636.864 282.988 640.275 292.302 641.665 301.944C643.216 312.706 642.016 322.723 638.193 330.911C637.927 331.48 637.333 331.823 636.708 331.767C636.667 331.764 636.627 331.758 636.588 331.752C636.378 332.557 636.152 333.353 635.928 334.141C635.565 335.421 635.189 336.745 634.904 338.038C633.036 346.492 634.57 355.437 636.054 364.087C636.35 365.813 636.656 367.597 636.93 369.35C639.789 387.619 639.609 406.274 636.396 424.795C633.18 443.331 627.061 460.954 618.208 477.174C617.924 477.695 617.357 477.996 616.765 477.947C616.174 477.895 615.669 477.497 615.479 476.934C615.25 476.249 614.766 475.851 614 475.717C612.728 475.493 611.156 476.1 610.341 477.126C608.957 478.868 608.664 481.292 608.353 483.859C608.319 484.145 608.284 484.429 608.249 484.712C607.895 487.497 607.069 491.435 603.986 493.477C601.512 495.116 598.467 494.899 595.988 493.636C594.353 501.723 593.29 509.816 592.288 517.44C592.216 517.987 591.849 518.45 591.333 518.645C591.207 518.692 591.081 518.866 591.005 519.098C590.877 519.489 590.919 519.962 591.106 520.25C591.77 521.267 593.353 521.544 594.238 521.618C594.746 521.661 595.266 521.673 595.817 521.685C596.964 521.709 598.149 521.735 599.359 522.052C602.232 522.804 604.723 525.156 606.022 528.344C607.228 531.299 607.298 534.487 607.225 536.935C607.13 540.119 606.647 544.708 603.569 547.786C600.436 550.92 595.877 551.414 591.417 551.48C583.536 551.598 575.591 551.041 567.804 549.828C567.41 549.766 566.435 549.538 565.895 548.743C565.589 548.292 565.486 547.752 565.606 547.221C565.826 546.252 566.658 545.844 566.931 545.71C571.533 543.45 576.662 543.571 581.623 543.689C582.363 543.706 583.101 543.724 583.833 543.733C588.213 543.787 594.441 543.409 597.987 539.504C598.581 538.85 599.327 537.822 599.509 536.639C599.657 535.676 599.367 534.71 598.771 534.18C597.67 533.2 595.666 533.624 594.285 534.284C592.659 535.062 591.176 536.197 589.606 537.398C587.092 539.323 584.492 541.313 581.159 541.827C578.724 542.201 576.32 541.689 574.198 541.236C572.911 540.962 571.31 540.619 569.989 539.625C566.737 537.176 566.974 532.258 569.059 529.106C569.539 528.381 570.081 527.736 570.605 527.113C571.23 526.37 571.82 525.668 572.241 524.908C573.884 521.941 572.88 518.176 572.135 516.195C571.581 514.724 570.884 513.323 570.146 511.839C569.345 510.229 568.518 508.565 567.889 506.803C566.541 503.02 566.528 499.43 567.801 496.626C564.253 495.297 561.204 492.163 559.728 488.175C558.323 484.382 558.189 479.815 559.329 474.603C559.908 471.956 560.742 469.367 561.549 466.862C562.047 465.315 562.562 463.714 563.004 462.137C567.577 445.817 565.448 427.899 563.563 412.086C562.064 403.837 561.852 396.137 561.628 387.986L561.614 387.47C561.345 377.736 562.873 369.18 566.153 362.037C569.714 354.286 575.446 347.908 580.583 342.691C580.893 342.376 581.327 342.215 581.768 342.25C584.352 342.457 586.576 339.914 587.24 337.335C587.888 334.818 587.559 332.139 587.21 329.303C587.155 328.857 587.101 328.411 587.05 327.967C586.815 325.905 586.692 323.746 586.706 321.541C585.326 321.265 583.956 320.941 582.597 320.569C581.943 320.39 581.491 319.793 581.497 319.114C581.503 318.436 581.965 317.846 582.622 317.679L586.969 316.571C587.958 306.82 591.829 296.97 600.436 291.407C601.028 291.025 601.641 290.661 602.234 290.31C604.222 289.134 606.1 288.023 607.088 286.29C609.113 282.743 606.641 278.073 604.989 275.605C604.574 274.985 604.126 274.348 603.693 273.732C601.847 271.109 599.95 268.411 599.196 265.26C598.995 264.589 598.889 263.898 598.888 263.208C598.887 262.403 599.523 261.742 600.326 261.712C601.124 261.689 601.814 262.293 601.873 263.095C601.909 263.573 601.983 264.042 602.09 264.503C602.338 265.266 602.797 265.995 603.427 266.604C604.411 267.554 605.666 268.076 606.879 268.036C608.089 267.995 609.31 267.391 610.228 266.378C611.146 265.365 611.628 264.091 611.549 262.883C611.471 261.675 610.828 260.474 609.786 259.588C609.692 259.507 609.595 259.431 609.496 259.358C608.208 259.035 606.94 258.686 605.694 258.328C605.004 258.13 604.552 257.469 604.618 256.755C604.683 256.04 605.247 255.473 605.962 255.403C607.584 255.245 609.267 255.67 610.727 256.582C614.277 257.446 617.948 258.068 621.589 257.991C627.053 257.878 631.846 256.135 635.085 253.081C639.603 248.823 640.9 241.556 638.453 235.889C637.96 235.133 637.526 234.338 637.158 233.507C636.844 232.798 637.125 231.966 637.805 231.593C638.485 231.219 639.337 231.427 639.768 232.072C640.276 232.832 640.719 233.635 641.096 234.472C643.935 238.688 648.96 241.375 654.045 241.375C654.055 241.375 654.065 241.375 654.076 241.375C656.31 238.345 657.301 233.841 657.917 229.832C658.03 229.095 658.667 228.553 659.414 228.564C660.159 228.573 660.783 229.13 660.877 229.87C661.245 232.767 661.834 235.658 662.627 238.496C662.907 238.292 663.18 238.078 663.446 237.857C663.584 233.376 664.635 228.932 665.661 224.591C665.719 224.349 665.776 224.107 665.833 223.865C663.208 225.455 660.076 225.877 657.493 226.225L646.938 227.647C644.823 227.932 642.425 228.255 640.062 227.878C636.111 227.249 632.746 224.748 630.042 222.739C629.214 222.124 627.963 221.194 627.502 219.705C627.494 219.679 627.487 219.653 627.479 219.626L621.828 221.016C620.299 221.393 618.538 221.71 616.999 220.703C615.992 220.043 615.384 218.993 615.287 217.747C615.122 215.623 616.401 213.452 617.742 212.242C618.838 211.253 620.027 210.461 621.29 209.83C618.735 208.825 618.03 207.307 617.907 206.161C617.711 204.326 618.838 202.798 620.945 201.887C620.897 201.803 620.857 201.714 620.825 201.621C620.657 201.122 620.764 200.57 621.107 200.17C622.136 198.97 623.366 197.921 624.755 197.039C624.583 196.844 624.46 196.605 624.407 196.339C622.876 188.664 624.757 181.037 626.799 174.589C627.326 172.923 627.895 171.243 628.445 169.618C630.053 164.872 631.716 159.963 632.464 155.001C633.114 150.699 633.515 142.559 628.91 136.371C625.822 132.223 620.608 129.255 614.226 128.013C608.355 126.87 602.15 127.206 596.149 127.531C595.945 127.542 595.742 127.553 595.538 127.564C598.221 128.94 600.427 131.728 601.739 135.474C603.248 139.78 603.675 144.786 603.045 150.779C602.779 153.31 602.168 156.453 599.789 158.305C598.29 159.471 596.056 159.699 594.23 158.872C593.639 158.605 593.14 158.247 592.748 157.819C588.069 164.196 586.186 172.619 587.707 180.443C588.353 183.768 589.553 186.906 590.822 190.229C591.774 192.72 592.758 195.296 593.478 197.942C595.856 206.679 595.321 215.704 594.802 224.433C594.679 226.511 594.539 228.867 593.392 230.981C592.191 233.196 589.516 235.082 586.726 234.399C584.616 233.883 582.909 231.932 582.375 229.427C581.988 227.612 582.195 225.846 582.395 224.138L582.448 223.677C583.281 216.375 582.943 209.027 581.444 201.837C581.422 201.731 581.412 201.623 581.413 201.515L581.416 201.266C581.486 195.187 581.559 188.902 579.808 183.155C577.931 176.996 573.937 172.262 569.123 170.491C567.937 170.054 566.647 169.75 565.281 169.428C561.826 168.613 558.254 167.77 556.124 164.643C555.481 163.698 555.092 162.694 554.716 161.722C554.455 161.048 554.208 160.412 553.895 159.845C553.345 158.85 552.283 157.962 551.461 158.195C550.859 158.366 550.33 159.097 549.77 159.871C549.604 160.102 549.438 160.331 549.268 160.55C547.974 162.223 545.685 163.478 543.718 162.281C542.872 161.766 542.431 160.972 542.108 160.392C539.098 154.971 535.985 149.366 534.149 143.238C532.846 138.888 531.758 132.625 533.384 126.332C523.677 128.001 514.578 132.706 507.633 139.605C513.053 139.312 518.817 141.746 523.274 146.44C527.896 151.307 530.444 157.634 532.327 163.182C536.66 175.945 539.079 189.247 539.515 202.719C539.534 203.319 539.55 203.921 539.565 204.522C539.652 207.88 539.742 211.351 540.553 214.566C541.505 218.341 543.479 221.382 546.022 223.029C546.248 223.157 546.47 223.289 546.688 223.425C547.374 223.853 547.595 224.749 547.187 225.447C546.78 226.145 545.891 226.393 545.181 226.006C544.928 225.868 544.683 225.723 544.446 225.572C540.849 223.566 536.104 222.737 531.691 223.298C528.405 227.872 524.549 231.999 520.198 235.595C518.227 237.223 516.249 237.488 514.906 236.304C513.631 235.179 513.58 233.223 514.773 231.199C517.823 226.022 522.919 222.234 528.755 220.805C529.157 220.707 529.564 220.619 529.974 220.543C530.268 220.117 530.557 219.686 530.84 219.253C531.952 217.549 532.304 216.299 531.884 215.535C531.795 215.373 531.668 215.228 531.514 215.098C530.812 215.546 530.05 215.901 529.256 216.139C525.58 217.241 521.705 216.309 518.591 215.56C518.073 215.435 516.33 214.921 515.632 213.534C515.301 212.877 515.277 212.143 515.565 211.467C515.897 210.686 516.74 209.764 518.86 209.782C522.646 209.822 526.423 210.326 530.088 211.28C530.424 211.368 530.767 211.465 531.108 211.579C531.458 211.208 531.758 210.797 531.989 210.363C532.335 209.711 532.678 208.706 532.339 207.62C532.123 206.928 531.714 206.359 531.159 205.883C529.823 206.302 528.068 205.935 526.228 204.77L524.081 203.412C518.56 202.334 513.222 200.492 508.211 197.934C507.613 197.629 506.369 196.993 505.95 195.666C505.683 194.82 505.839 193.89 506.379 193.117C507.016 192.204 508.096 191.605 509.199 191.554C510.819 191.482 512.152 192.324 513.127 192.941L525.203 200.583C526.694 200.872 528.452 201.234 530.091 201.879C529.925 201.554 529.722 201.214 529.554 200.933C529.409 200.691 529.259 200.44 529.121 200.19C527.278 196.843 528.087 193.209 528.869 189.695C529.134 188.503 529.384 187.378 529.531 186.276C530.427 179.555 527.317 173.065 523.471 165.886C520.173 159.728 516.762 153.361 511.494 148.737C509.117 146.651 505.813 145.226 503.79 146.745C502.655 147.597 502.129 149.228 501.649 150.967C498.751 161.445 496.4 172.198 494.661 182.927C493.785 188.332 492.905 194.605 493.572 200.654C494.28 207.07 496.757 212.587 500.549 216.187C501.001 216.616 501.14 217.281 500.896 217.854C498.428 223.674 499.44 231.127 503.905 240.007C504.812 241.811 505.812 243.634 506.78 245.398C507.888 247.419 509.011 249.466 510.041 251.564C517.748 255.701 526.702 258.559 536.771 260.103C536.329 259.8 535.912 259.443 535.527 259.022C533.055 256.324 533.271 252.231 534.582 249.372C535.795 246.726 537.804 244.695 539.747 242.73L540.161 242.312C542.01 240.435 543.879 238.401 544.633 235.989C544.883 235.19 545.034 234.305 545.194 233.369C545.573 231.148 546.003 228.63 548.005 226.95C550.287 225.034 553.559 224.981 558.01 226.789C560.222 227.688 562.418 228.694 564.542 229.666C568.521 231.488 572.636 233.372 576.861 234.539C581.094 235.709 589.142 237.04 595.484 232.813C596.837 231.911 598.043 230.802 599.319 229.627C600.329 228.698 601.373 227.738 602.509 226.874C608.037 222.676 615.638 221.175 622.346 222.954C628.953 224.707 634.734 229.654 637.505 235.903C637.985 236.437 638.205 237.169 638.115 237.979C637.966 239.322 637.017 240.666 635.859 241.173C635.659 241.261 635.459 241.33 635.258 241.382C635.353 241.603 635.435 241.833 635.501 242.074C635.949 243.724 635.435 245.466 634.221 246.411C632.633 247.646 630.511 247.15 629.712 246.962C629.381 246.885 629.052 246.802 628.725 246.714C629.793 247.947 629.781 249.074 629.513 249.882C628.989 251.46 627.302 252.116 625.902 251.945C624.859 251.819 624.018 251.339 623.277 250.915L623.096 250.812C620.577 249.384 617.815 248.407 614.966 247.923C615.973 248.493 616.739 249.318 617.139 250.306C617.577 251.385 617.48 252.708 616.888 253.759C616.359 254.697 615.487 255.326 614.497 255.484C612.896 255.739 611.616 254.806 610.683 254.124C610.573 254.044 610.465 253.965 610.357 253.888C609.267 253.115 607.995 252.586 606.679 252.359C605.82 252.211 605.151 252.235 604.63 252.432C603.729 252.773 603.02 253.723 602.269 254.73C602.077 254.987 601.885 255.243 601.69 255.491C598.48 259.573 594.627 261.816 590.237 262.159C588.455 262.34 586.665 262.522 584.869 262.7C577.147 287.456 574.873 314.142 578.472 338.108C578.587 338.874 578.099 339.6 577.347 339.783L577.009 339.865C568.484 341.943 558.82 344.297 550.468 340.381C548.516 339.466 546.743 338.246 545.028 337.067C542.612 335.406 540.331 333.838 537.717 333.175C534.936 332.47 531.965 332.837 528.819 333.225C525.024 333.693 521.1 334.178 517.369 332.684C514.526 331.546 512.298 329.443 510.144 327.41C507.658 325.063 505.31 322.846 502.329 322.424C501.35 322.286 500.508 322.471 500.185 322.898C499.889 323.288 499.853 324.004 499.838 324.83L498.972 371.962C498.971 372.029 498.965 372.096 498.955 372.162L498.732 373.604C497.13 383.936 495.473 394.619 499.571 403.816C501.351 407.81 504.081 411.215 506.971 414.82C507.901 415.981 508.863 417.181 509.779 418.39C516.742 427.578 521.697 438.143 524.329 449.323C525.544 437.734 523.38 426.113 521.173 416.8C520.264 412.964 519.238 409.072 518.246 405.307C515.685 395.591 513.037 385.545 512.08 375.322C512.012 374.596 512.477 373.927 513.182 373.739C513.886 373.549 514.623 373.897 514.927 374.56L515.188 375.13C520.707 387.167 526.414 399.614 530.082 412.6C534.224 427.266 535.158 440.816 532.859 452.876C532.484 454.839 532.016 456.825 531.562 458.746C530.134 464.796 528.786 470.509 529.942 476.182C530.319 478.035 530.924 479.314 531.79 480.095C533.131 481.304 535.201 481.503 537.392 481.715C537.71 481.745 538.026 481.776 538.338 481.809C543.029 482.312 545.857 484.338 546.375 487.54C548.636 489.858 550.186 493.266 550.987 497.684C551.25 499.131 551.433 500.597 551.61 502.016C551.926 504.541 552.224 506.926 552.931 509.225C553.201 510.101 553.532 510.926 553.914 511.687C555.599 511.154 557.441 511.295 559.213 511.505C561.465 511.771 564.268 512.102 566.721 513.373C569.605 514.868 571.46 517.504 571.564 520.251C571.651 522.586 570.523 524.609 569.528 526.394C569.374 526.671 569.22 526.947 569.072 527.223C566.676 531.669 565.557 536.891 565.921 541.928C565.961 542.49 565.682 543.027 565.199 543.317C556.605 548.471 545.744 549.635 536.097 546.448H1.49477C0.669231 546.448 0 545.779 0 544.954C0 544.128 0.669231 543.459 1.49477 543.459H536.34C536.503 543.459 536.665 543.485 536.819 543.538C545.419 546.448 555.092 545.567 562.887 541.202C562.679 535.9 563.927 530.468 566.44 525.805C566.595 525.517 566.756 525.228 566.917 524.938C567.799 523.356 568.633 521.862 568.576 520.363C568.514 518.715 567.246 517.013 565.345 516.027C563.376 515.007 560.978 514.723 558.863 514.474C557.74 514.341 556.648 514.24 555.691 514.355C556.773 515.587 558.041 516.468 559.407 516.894C559.839 517.029 560.316 517.144 560.821 517.265C562.821 517.747 565.31 518.346 566.207 520.758C567.098 523.157 565.578 525.383 564.468 527.008L564.305 527.248C562.564 529.81 561.435 532.787 561.038 535.859C561.014 536.041 560.992 536.226 560.969 536.412C560.69 538.686 560.344 541.515 557.954 542.926C556.561 543.749 554.723 543.832 552.78 543.161C552.052 542.909 551.381 542.591 550.733 542.283C550.151 542.006 549.602 541.745 549.049 541.55C546.973 540.815 544.567 540.98 542.61 541.991C542.523 542.036 542.435 542.083 542.345 542.13C541.359 542.651 540.008 543.366 538.518 542.784C537.818 542.511 536.87 541.834 536.33 540.162C535.418 537.337 536.11 534.086 538.093 531.879C538.976 530.896 540.014 530.193 541.019 529.512C541.619 529.106 542.187 528.722 542.695 528.296C545.094 526.286 546.344 523.26 547.667 520.057C548.21 518.741 548.772 517.381 549.424 516.084C549.901 515.135 550.491 514.101 551.347 513.247C550.847 512.28 550.42 511.229 550.074 510.103C549.29 507.555 548.962 504.928 548.644 502.386C548.472 501.008 548.294 499.583 548.046 498.217C547.316 494.189 545.932 491.199 543.932 489.33C543.657 489.073 543.489 488.721 543.462 488.345C543.285 485.863 540.405 485.038 538.019 484.782C537.718 484.749 537.412 484.72 537.105 484.69C534.648 484.453 531.862 484.185 529.789 482.315C528.43 481.091 527.523 479.28 527.013 476.779C525.726 470.462 527.214 464.157 528.653 458.059C529.099 456.169 529.56 454.215 529.922 452.315C532.134 440.716 531.22 427.627 527.205 413.412C524.497 403.825 520.631 394.477 516.556 385.36C517.79 391.843 519.482 398.264 521.137 404.545C522.134 408.327 523.165 412.238 524.082 416.11C526.881 427.918 529.604 443.361 525.793 458.099C525.614 458.792 524.972 459.263 524.254 459.217C523.539 459.173 522.956 458.628 522.864 457.918C521.08 444.236 515.731 431.192 507.397 420.195C506.506 419.019 505.557 417.835 504.639 416.69C501.757 413.095 498.778 409.379 496.841 405.032C492.384 395.031 494.187 383.404 495.778 373.145L495.985 371.805L496.849 324.775C496.867 323.786 496.895 322.291 497.802 321.093C498.815 319.756 500.618 319.162 502.748 319.464C506.671 320.02 509.479 322.671 512.196 325.235C514.237 327.162 516.164 328.982 518.48 329.909C521.498 331.117 524.876 330.7 528.453 330.258C531.733 329.853 535.127 329.434 538.452 330.277C541.584 331.071 544.196 332.867 546.722 334.604C548.412 335.765 550.007 336.863 551.737 337.674C558.837 341.003 567.519 339.092 575.319 337.2C571.992 313.536 574.231 287.388 581.644 263.013C570.748 264.048 559.635 264.828 548.59 264.28C534.629 263.588 522.332 260.764 511.964 255.878C512.788 257.972 513.461 260.128 513.887 262.368C515.446 270.567 513.38 279.443 508.36 286.11C507.031 287.875 505.515 289.482 504.048 291.036C502.258 292.933 500.567 294.724 499.192 296.775C494.813 303.306 494.173 311.746 493.609 319.193C493.556 319.887 493.031 320.453 492.342 320.558C491.653 320.662 490.984 320.277 490.728 319.63C487.552 311.598 487.836 302.131 491.489 294.304C492.842 291.407 494.617 288.745 496.334 286.171C497.914 283.801 499.548 281.35 500.784 278.794C503.969 272.208 504.674 264.388 502.717 257.339C502.367 256.077 501.302 252.237 504.048 250.609C504.666 250.243 505.308 250.103 505.932 250.102C505.356 249.02 504.761 247.935 504.158 246.836C503.178 245.049 502.165 243.201 501.234 241.35C496.585 232.106 495.423 224.135 497.771 217.637C493.875 213.564 491.34 207.694 490.6 200.982C489.892 194.559 490.801 188.048 491.709 182.448C493.466 171.613 495.841 160.753 498.766 150.17C499.366 148.003 500.108 145.77 501.995 144.354C502.485 143.986 502.998 143.708 503.526 143.51C503.02 143.55 502.51 143.326 502.199 142.896C501.8 142.345 501.824 141.593 502.257 141.068C510.441 131.152 522.5 124.576 535.342 123.025C535.86 122.963 536.373 123.174 536.696 123.584C537.018 123.994 537.104 124.542 536.922 125.031C534.582 131.305 535.68 137.929 537.013 142.38C538.755 148.198 541.789 153.659 544.722 158.94C544.873 159.212 545.102 159.623 545.272 159.727C545.535 159.886 546.337 159.453 546.904 158.722C547.054 158.527 547.201 158.324 547.348 158.12C548.104 157.074 549.045 155.773 550.644 155.319C553.118 154.616 555.419 156.423 556.511 158.398C556.923 159.143 557.219 159.906 557.504 160.643C557.834 161.495 558.146 162.299 558.595 162.96C560.071 165.127 562.936 165.803 565.968 166.518C567.36 166.846 568.8 167.186 570.156 167.685C575.843 169.778 580.52 175.235 582.668 182.283C584.554 188.473 584.478 194.994 584.406 201.3L584.405 201.387C585.94 208.838 586.282 216.45 585.419 224.016L585.365 224.486C585.185 226.021 585.015 227.471 585.299 228.804C585.542 229.943 586.297 231.217 587.436 231.496C588.694 231.803 590.117 230.751 590.765 229.556C591.595 228.027 591.714 226.023 591.819 224.256C592.323 215.768 592.844 206.992 590.594 198.728C589.913 196.225 588.956 193.719 588.03 191.296C586.771 188.001 585.469 184.594 584.773 181.014C583.065 172.229 585.251 162.755 590.621 155.672C590.689 155.582 590.768 155.5 590.855 155.427L592.29 154.231C592.723 153.87 593.323 153.783 593.841 154.007C594.359 154.231 594.706 154.728 594.74 155.291C594.761 155.653 595.005 155.942 595.464 156.15C596.267 156.514 597.338 156.426 597.954 155.946C599.435 154.794 599.856 152.53 600.072 150.468C600.655 144.924 600.278 140.343 598.919 136.463C598.325 134.768 596.562 130.723 593.021 129.778C590.758 129.174 588.019 129.983 585.694 131.943C583.642 133.674 582.136 135.958 580.541 138.376L580.166 138.943C577.527 142.93 574.335 147.451 569.836 150.645C564.459 154.462 557.994 155.452 552.964 153.228C552.57 153.054 552.27 152.718 552.141 152.308C548.554 140.851 546.037 129.045 544.634 117.117C542.666 118.983 540.426 120.563 538.006 121.78C537.381 122.094 536.621 121.932 536.178 121.391C535.735 120.849 535.726 120.073 536.158 119.522L544.114 109.369C544.084 109.359 544.054 109.348 544.023 109.338C543.669 109.217 543.311 109.099 542.952 108.981C540.438 108.152 537.838 107.294 535.815 105.334C534.296 103.861 533.395 101.659 533.466 99.5858C533.497 98.6876 533.711 97.8499 534.088 97.1164C530.906 95.6684 529.908 91.3385 529.551 89.7909L527.633 81.4704C527.265 79.8735 526.848 78.0636 527.023 76.1955C527.152 74.8182 527.583 73.5665 527.999 72.3563C528.389 71.2214 528.757 70.1498 528.834 69.0905C528.901 68.1718 528.752 67.2028 528.595 66.1767C528.534 65.7742 528.47 65.3582 528.418 64.9373C528.246 63.5316 528.138 61.4539 529.185 59.6514C529.945 58.3409 531.316 57.4154 532.762 57.2363C533.054 57.2002 533.342 57.1946 533.623 57.22C534.062 52.4295 534.976 47.6785 536.347 43.0669C536.874 41.2977 537.594 39.53 539.287 38.5832C541.607 37.2864 543.867 38.3605 545.862 39.3088C547.138 39.9155 548.344 40.4888 549.409 40.4203C550.958 40.321 552.304 38.794 553.303 37.475L553.551 37.1463C554.831 35.4465 556.283 33.5202 558.59 32.7502C560.224 32.2048 562.228 32.6127 563.576 33.7651C564.048 34.1689 564.409 34.6392 564.648 35.1489C568.682 34.0865 573.057 33.4741 576.633 35.8582C577.211 36.2435 577.711 36.6744 578.195 37.091C578.671 37.5014 579.121 37.889 579.59 38.183C581.483 39.3697 584.036 39.2817 586.514 39.0099C586.757 38.9832 587.001 38.9554 587.246 38.9274C589.857 38.6293 592.557 38.3212 595.198 39.2341C597.827 40.1429 600.106 42.6415 600.253 45.4015C605.314 45.8433 610.061 48.9349 612.421 53.4662C614.921 58.2683 615.607 65.5865 612.079 70.2824C611.816 70.6333 611.411 70.8504 610.974 70.8767C610.732 70.8906 610.497 70.8472 610.281 70.7526C609.828 71.9414 609.326 73.1086 608.824 74.2628C609.333 75.3832 609.963 77.3301 608.873 79.0264C608.567 79.503 608.182 79.8548 607.873 80.1373C607.701 80.294 607.539 80.4422 607.431 80.5737C606.764 81.3901 607.165 82.8716 607.882 83.8509C608.415 84.5799 609.121 85.221 609.868 85.8996C610.471 86.4476 611.095 87.0141 611.669 87.6649C613.119 89.3113 614.297 91.9186 613.253 94.2996C612.548 95.9054 611.141 96.7713 609.899 97.5351C608.516 98.3861 607.66 98.9629 607.497 100.049C607.462 100.279 607.375 100.498 607.241 100.688C607.142 100.828 607.048 101.218 607.106 101.857C607.119 102.006 607.136 102.156 607.153 102.307C607.25 103.171 607.371 104.246 606.932 105.31C606.783 105.672 606.592 105.989 606.367 106.266C606.268 106.894 606.062 107.473 605.872 108.009C605.651 108.633 605.442 109.222 605.496 109.67C605.55 110.118 605.879 110.613 606.259 111.188C606.734 111.904 607.273 112.716 607.467 113.752C607.909 116.117 606.324 118.097 605.094 119.38C603.334 121.216 601.426 122.885 599.388 124.373C604.495 124.139 609.7 124.088 614.798 125.081C621.912 126.465 627.775 129.842 631.309 134.589C635.201 139.819 636.662 147.227 635.421 155.449C634.633 160.674 632.927 165.709 631.277 170.58C630.732 172.19 630.168 173.856 629.649 175.494C628.135 180.275 626.711 185.723 626.848 191.238C627.607 189.984 628.463 188.772 629.551 187.71C631.694 185.618 634.353 184.605 636.847 184.928C638.584 185.154 640.014 185.969 641.398 186.758C641.947 187.071 642.465 187.367 642.988 187.617C645.105 188.63 647.675 189.058 650.16 189.472C654.343 190.168 658.668 190.888 661.528 194.349C662.884 195.99 663.656 198.604 662.148 200.465C660.868 202.046 658.699 202.326 655.7 201.296C655.103 201.091 654.507 200.884 653.91 200.676C648.943 198.951 643.806 197.167 638.607 196.81C633.491 196.459 628.784 197.694 625.467 200.175C626.457 200.297 627.454 200.376 628.452 200.411C631.832 199.937 635.235 199.551 638.617 199.259C639.386 199.19 640.085 199.727 640.218 200.491C640.351 201.255 639.878 201.994 639.129 202.193C635.708 203.1 632.156 203.505 628.617 203.407C627.039 203.631 625.465 203.874 623.902 204.136C622.354 204.396 620.801 205.106 620.881 205.845C620.933 206.338 621.742 206.88 622.991 207.26C624.165 207.616 625.356 207.897 626.559 208.104C630.438 207.36 634.66 207.471 638.799 207.709C639.54 207.751 640.137 208.331 640.202 209.071C640.266 209.811 639.778 210.486 639.056 210.656C634.979 211.616 630.759 211.777 626.643 211.146C624.038 211.709 621.674 212.724 619.745 214.464C618.847 215.275 618.198 216.617 618.268 217.519C618.3 217.931 618.472 218.096 618.637 218.204C619.171 218.554 620.196 218.342 621.115 218.116L627.923 216.442C628.607 215.253 629.801 214.327 631.139 213.955C633.251 213.368 635.358 213.933 637.051 214.388C637.71 214.564 638.165 215.165 638.158 215.847C638.151 216.529 637.683 217.12 637.021 217.283L630.391 218.913C630.588 219.394 631.159 219.846 631.826 220.342C634.395 222.251 637.307 224.415 640.533 224.929C642.463 225.236 644.535 224.957 646.539 224.687L657.095 223.264C659.831 222.896 662.933 222.477 665.103 220.742C665.854 220.141 666.49 219.371 666.994 218.475C667.67 214.717 668.01 210.806 667.37 207.136C666.871 205.456 666.237 203.792 665.614 202.155C665.494 201.84 665.374 201.525 665.255 201.211C664.98 200.482 665.311 199.664 666.015 199.331C666.72 198.998 667.562 199.262 667.95 199.938C669.145 202.018 669.887 204.219 670.295 206.476C670.839 208.339 671.234 210.253 671.316 212.235C671.425 214.875 670.902 217.371 669.855 219.451C669.646 220.569 669.41 221.67 669.164 222.748C668.972 223.59 668.772 224.435 668.572 225.283C667.885 228.184 667.187 231.135 666.781 234.075C667.935 232.262 668.721 230.224 669.005 228.096C669.051 227.756 669.212 227.441 669.462 227.206C676.599 220.487 675.986 209.458 673.293 202.054C670.788 195.17 666.318 189.015 661.994 183.062C661.335 182.154 660.661 181.226 659.993 180.294C659.724 180.135 659.507 179.892 659.38 179.591L659.216 179.204C659.147 179.107 659.079 179.011 659.011 178.914C653.875 171.632 648.576 162.85 648.213 152.934C648.187 152.214 648.679 151.577 649.383 151.421C650.088 151.265 650.803 151.634 651.084 152.298L660.564 174.716C665.996 155.717 662.453 134.381 651.228 118.185C648.626 122.204 646.509 126.597 644.442 130.885C642.711 134.476 640.921 138.19 638.853 141.691C638.499 142.289 637.779 142.565 637.116 142.356C636.453 142.147 636.021 141.508 636.075 140.815C636.889 130.281 641.216 120.135 648.258 112.248C648.548 111.922 648.966 111.742 649.404 111.749C649.841 111.758 650.252 111.958 650.529 112.296C650.744 112.559 650.956 112.821 651.167 113.087C651.509 112.644 651.86 112.205 652.219 111.774C660.245 102.144 671.82 96.6635 683.036 91.3827C681.986 88.9635 681.684 86.2139 682.214 83.6231C682.343 82.9901 682.865 82.5118 683.507 82.4375C686.725 82.0657 689.839 80.7089 692.339 78.6307C688.978 79.0025 685.693 79.8304 682.545 81.1008L682.36 81.1755C681.248 81.6271 679.987 82.139 678.551 81.9805C677.466 81.8607 676.438 81.2694 675.799 80.3991C675.263 79.6677 675.059 78.8037 675.223 77.9662C673.804 77.8037 672.653 77.1537 672.004 76.1044C671.305 74.9762 671.372 73.6781 671.416 72.8191L671.767 65.9341C671.503 65.9769 671.235 65.9856 670.966 65.957C669.708 65.8242 668.839 64.9574 668.295 64.3172C666.394 62.08 665.225 59.2361 665.003 56.3089C664.988 56.1092 665.013 55.9083 665.078 55.7184L666.152 52.5314C664.196 44.7366 665.938 35.9627 670.746 29.5245C671.4 28.6487 672.108 27.8117 672.865 27.016C671.312 27.1881 669.748 27.2635 668.191 27.2385C667.408 27.2257 666.503 27.1659 665.677 26.6116C664.215 25.6297 663.971 23.7008 664.484 22.303C664.918 21.1243 665.761 20.2748 666.587 19.5059C677.057 9.76079 690.008 3.14813 704.041 0.383223C705.731 0.0503161 707.692 -0.255686 709.582 0.331546C711.459 0.91408 712.789 2.18165 714.076 3.40758C714.837 4.1319 715.555 4.81608 716.339 5.31064C717.904 6.2974 719.854 6.60703 721.919 6.93503C724.041 7.27221 726.236 7.6207 728.231 8.73857C731.824 10.7512 734.161 15.0143 734.811 20.7418C734.984 22.2686 735.055 23.8108 735.123 25.3019C735.251 28.0814 735.372 30.7066 736.1 33.2095C736.746 35.4288 737.85 37.4786 739.018 39.6492C739.919 41.3227 740.851 43.0532 741.568 44.8892C743.188 49.0362 743.656 55.141 739.646 58.6994C739.16 59.1299 738.631 59.4872 738.078 59.7667C737.565 62.4223 737.145 64.9461 737.613 67.3999C737.84 68.5874 738.269 69.7227 738.801 70.8534C743.718 74.0409 747.847 78.3758 750.793 83.4386C750.832 83.2408 750.87 83.0418 750.905 82.8426C750.979 82.429 751.223 82.0657 751.578 81.8415C751.933 81.6171 752.366 81.5524 752.771 81.6632L753.327 81.8152C761.974 84.1793 770.915 86.6242 779.165 90.5938C788.58 95.1239 795.693 101.01 800.307 108.09C804.223 114.098 806.329 120.943 808.366 127.564L822.669 174.056C823.25 175.942 824.044 178.525 823.289 181.012C822.572 183.376 820.668 185.02 818.94 186.375C818.348 186.84 817.752 187.298 817.151 187.75C821.589 198.472 823.754 211.197 823.743 226.348C823.737 235.606 822.961 244.96 822.21 254.005C821.635 260.947 821.039 268.124 820.8 275.181L820.795 275.33C820.642 279.829 820.466 285.04 819.599 290.256C822.554 294.331 824.304 299.367 824.591 304.74C824.939 311.249 823.098 317.495 819.409 322.326C818.367 323.689 816.704 325.525 814.293 325.725C813.691 325.775 813.113 325.714 812.566 325.562C817.582 390.618 823.853 456.261 831.236 520.95C831.282 521.356 831.16 521.764 830.899 522.077C830.637 522.391 830.258 522.584 829.85 522.611L820.333 523.244C819.526 523.299 818.817 522.695 818.745 521.885L800.466 317.47L800.282 316.22C800.264 316.1 800.246 315.98 800.228 315.86C800.197 316.091 800.168 316.323 800.14 316.552C799.853 318.905 798.621 321.874 796.514 323.206C795.355 323.938 794.068 324.1 792.794 323.674C790.312 322.845 789.055 320.102 789.346 316.151C789.926 308.276 792.375 300.548 794.743 293.074C798.179 282.231 801.425 271.989 799.382 261.464C798.784 258.387 797.707 255.321 796.666 252.357C795.641 249.439 794.581 246.422 793.93 243.301C792.882 238.273 792.922 233.115 792.96 228.127C792.975 226.15 792.991 224.106 792.937 222.115C792.698 213.282 790.838 207.179 787.086 202.906C786.761 202.537 786.639 202.032 786.759 201.555C786.879 201.078 787.226 200.691 787.686 200.519C796.868 197.094 805.518 192.473 813.459 186.756C812.775 185.253 812.041 183.794 811.257 182.377C805.897 186.913 800.037 190.861 793.815 194.127C792.737 194.692 790.494 195.869 788.339 194.949C785.748 193.843 785.326 190.672 785.145 189.318C783.165 174.449 782.026 159.384 781.742 144.342C778.902 161.508 777.082 178.92 780.508 195.763C781.303 199.672 782.404 203.655 783.467 207.507C786.048 216.85 788.717 226.511 787.44 236.333C787.051 239.324 786.299 242.316 785.572 245.21C784.082 251.135 782.675 256.732 784.196 262.164C784.958 264.886 786.492 267.528 787.975 270.084C790.307 274.103 792.719 278.258 792.504 283.121C792.122 291.806 783.465 297.538 775.583 299.188C771.871 299.966 768.066 300.17 764.387 300.367C760.287 300.587 756.416 300.794 752.616 301.721C748.523 302.719 744.733 304.652 741.436 307.246C742.232 307.752 743.084 308.175 743.997 308.497C749.428 310.413 755.449 308.287 761.656 305.742L788.92 294.562C789.794 293.939 790.784 293.544 791.818 293.442C792.556 293.367 793.237 293.848 793.416 294.568C793.596 295.288 793.219 296.031 792.533 296.312L790.42 297.178C789.723 297.769 789.199 298.617 788.916 299.438C788.31 301.194 788.406 303.213 788.499 305.166L790.032 337.329C790.661 350.527 791.311 364.17 792.1 377.607C793.566 381.63 793.747 386.237 792.607 390.608C791.455 395.03 789.001 399.033 785.698 401.878C784.981 402.497 784.211 403.087 783.467 403.658C781.09 405.482 778.844 407.205 778.328 409.665C778.011 411.181 778.404 412.835 778.821 414.585C778.898 414.91 778.975 415.233 779.048 415.556C781.767 427.66 777.836 440.844 769.016 449.478C771.017 453.872 771.044 459.162 769.034 463.552C766.839 468.346 762.267 471.986 757.103 473.052C753.862 473.72 750.595 473.407 747.435 473.105C744.183 472.794 741.112 472.499 738.184 473.225C736.231 473.708 734.335 475.049 733.466 476.561C732.953 477.454 732.819 478.341 733.07 479.197C733.678 481.273 736.472 482.245 738.709 481.957C740.799 481.687 742.755 480.694 744.827 479.642C745.378 479.362 745.948 479.073 746.519 478.799C748.979 477.619 752.665 476.193 756.26 477.42C761.02 479.045 762.948 484.203 764.205 489.035C766.148 496.498 767.702 503.242 767.036 510.209C766.827 512.399 766.371 514.505 765.7 516.476C766.328 519.604 766.7 522.639 766.576 525.292H960.451C961.276 525.292 961.945 525.961 961.945 526.787C961.945 527.613 961.276 528.282 960.451 528.282H764.939C764.505 528.282 764.093 528.094 763.809 527.766C763.526 527.438 763.398 527.004 763.459 526.575C763.679 525.046 763.646 523.264 763.439 521.344C761.511 524.518 758.923 527.053 755.881 528.609C752.16 530.511 747.502 530.743 743.419 529.228C739.911 527.926 737.276 525.49 736.002 522.368C734.19 517.932 735.237 513.036 736.16 508.717C736.256 508.268 736.352 507.82 736.444 507.375C737.659 501.512 737.16 497.462 734.916 494.994C731.922 491.699 726.535 491.833 721.723 492.217C718.339 492.486 714.84 492.765 711.881 494.285C710.817 494.832 709.824 495.604 709.044 496.487L708.826 501.137C708.81 501.485 708.861 502.008 709.495 502.542C710.545 503.426 712.598 503.813 714.268 503.443C715.012 503.277 715.768 503.051 716.569 502.811C718.98 502.088 721.712 501.27 724.391 502.28C729.62 504.254 730.113 511.37 730.275 513.708C730.407 515.601 730.633 517.56 731.175 519.211C732.585 520.694 733.716 522.16 734.552 523.36C734.94 523.916 734.905 524.664 734.467 525.181C734.029 525.698 733.297 525.856 732.685 525.565C730.587 524.569 729.332 522.771 728.565 520.81C725.783 518.003 721.932 515.264 717.182 514.689C713.915 514.294 710.382 515.307 707.735 517.403C705.637 519.065 704.339 521.263 704.08 523.591C704.001 524.307 704.001 525.054 704.04 525.827C705.065 525.927 706.046 525.734 706.843 525.05C707.461 524.519 707.913 523.708 708.392 522.849C708.872 521.988 709.368 521.099 710.108 520.307C711.947 518.336 714.987 517.472 718.036 518.05C720.84 518.582 723.207 520.141 724.957 521.44C729.577 524.87 732.713 528.746 734.28 532.961C736.222 538.185 735.475 544.034 732.378 547.862C728.022 553.246 720.468 553.971 714.374 554C714.146 553.998 713.919 553.999 713.692 553.999ZM704.298 528.839C704.571 531.783 704.699 535.001 702.541 537.492C700.839 539.456 698.245 540.232 695.956 540.917C693.088 541.776 691.305 542.418 690.733 544.092C690.188 545.689 691.349 547.614 692.786 548.554C694.52 549.688 696.738 550 699.047 550.242C704.113 550.775 709.266 551.029 714.359 551.007C719.792 550.981 726.487 550.386 730.053 545.978C732.499 542.955 733.058 538.253 731.477 534C730.115 530.336 727.321 526.917 723.174 523.837C721.681 522.729 719.684 521.402 717.478 520.984C715.457 520.601 713.421 521.134 712.291 522.344C711.801 522.869 711.413 523.565 711.002 524.302C710.444 525.303 709.811 526.437 708.789 527.315C707.539 528.388 706.013 528.891 704.298 528.839ZM571.278 547.309C577.929 548.193 584.675 548.592 591.372 548.491C595.203 548.434 599.075 548.053 601.455 545.673C603.226 543.902 604.11 541.097 604.237 536.846C604.301 534.693 604.248 531.908 603.254 529.473C602.308 527.152 600.569 525.459 598.602 524.944C597.733 524.716 596.771 524.696 595.753 524.674C595.18 524.661 594.588 524.648 593.988 524.598C591.485 524.387 589.623 523.448 588.602 521.883C587.912 520.826 587.748 519.437 588.164 518.168C588.411 517.412 588.851 516.777 589.419 516.333C590.458 508.423 591.58 500.033 593.343 491.653C593.118 491.412 592.91 491.16 592.718 490.899C590.614 488.032 589.962 484.038 590.883 479.652C591.437 477.016 592.453 474.54 593.435 472.146C593.783 471.299 594.142 470.423 594.471 469.563C599.076 457.507 599.368 444.125 599.65 431.184C599.725 427.713 599.804 424.123 599.964 420.611C600.422 410.558 601.762 402.174 604.059 394.981C606.959 385.9 611.488 378.624 617.519 373.356C617.928 372.999 618.498 372.892 619.009 373.076C619.52 373.26 619.891 373.706 619.978 374.242C621.611 384.292 618.633 394.219 615.754 403.82C613.336 411.88 610.837 420.214 611.147 428.471C611.233 430.779 611.544 433.158 611.845 435.459C612.38 439.549 612.933 443.779 612.318 448.015C611.555 453.26 609.092 457.962 606.709 462.51C606.094 463.684 605.458 464.898 604.869 466.09C601.052 473.816 598.5 482.153 596.638 490.565C598.334 491.714 600.616 492.124 602.336 490.985C604.394 489.622 605.003 486.538 605.283 484.336C605.318 484.059 605.352 483.78 605.386 483.501C605.716 480.768 606.091 477.671 608 475.267C609.492 473.388 612.172 472.362 614.517 472.773C615.341 472.918 616.074 473.233 616.684 473.692C633.381 442.038 639.521 405.247 633.976 369.813C633.706 368.082 633.402 366.308 633.107 364.593C631.575 355.659 629.991 346.42 631.984 337.393C632.289 336.014 632.677 334.648 633.052 333.326C633.639 331.256 634.202 329.272 634.461 327.279C633.565 324.125 632.6 320.988 631.568 317.876C630.986 317.403 630.324 317.049 629.582 316.857C627.266 316.255 624.667 317.281 622.154 318.274C621.93 318.362 621.707 318.45 621.485 318.536C611.426 322.461 600.365 323.661 589.692 322.064C589.701 323.97 589.816 325.838 590.02 327.629C590.07 328.065 590.124 328.502 590.177 328.94C590.545 331.927 590.924 335.017 590.135 338.082C589.231 341.592 586.21 345.143 582.261 345.251C577.425 350.195 572.135 356.177 568.87 363.286C565.782 370.008 564.346 378.118 564.602 387.389L564.616 387.905C564.838 395.953 565.047 403.556 566.513 411.596C566.518 411.626 566.523 411.656 566.526 411.687C568.445 427.788 570.62 446.038 565.883 462.945C565.425 464.577 564.901 466.206 564.394 467.78C563.609 470.217 562.798 472.736 562.249 475.243C561.233 479.888 561.328 483.89 562.531 487.138C563.92 490.887 566.984 493.671 570.338 494.23C570.858 494.317 571.294 494.671 571.485 495.162C571.677 495.654 571.595 496.21 571.27 496.625C568.892 499.666 570.083 504.055 570.705 505.8C571.273 507.395 572.026 508.907 572.822 510.509C573.562 511.995 574.326 513.531 574.932 515.144C576.532 519.397 576.505 523.38 574.856 526.358C574.294 527.371 573.582 528.219 572.893 529.038C572.402 529.623 571.937 530.175 571.553 530.756C570.236 532.747 570.008 535.899 571.787 537.238C572.579 537.835 573.72 538.079 574.822 538.314C576.783 538.732 578.81 539.165 580.704 538.873C583.281 538.476 585.471 536.8 587.789 535.026C589.411 533.784 591.089 532.5 592.996 531.588C595.31 530.482 598.563 529.995 600.757 531.947C602.112 533.152 602.766 535.124 602.464 537.093C602.227 538.634 601.466 540.121 600.2 541.515C595.843 546.313 588.753 546.788 583.796 546.723C583.052 546.714 582.303 546.696 581.552 546.678C578.078 546.595 574.514 546.511 571.278 547.309ZM546.368 538.112C547.621 538.112 548.872 538.317 550.046 538.732C550.745 538.979 551.391 539.286 552.016 539.583C552.617 539.868 553.185 540.138 553.756 540.335C554.842 540.71 555.818 540.716 556.435 540.352C557.556 539.69 557.783 537.839 558.002 536.05C558.025 535.856 558.049 535.664 558.073 535.476C558.53 531.942 559.83 528.516 561.832 525.568L561.999 525.323C562.823 524.117 563.757 522.749 563.404 521.801C563.086 520.945 561.898 520.6 560.121 520.172C559.591 520.044 559.043 519.913 558.517 519.749C556.415 519.093 554.544 517.747 553.031 515.86C552.664 516.344 552.36 516.9 552.095 517.427C551.493 518.625 550.953 519.933 550.43 521.198C549.028 524.595 547.577 528.107 544.615 530.589C543.989 531.112 543.331 531.558 542.695 531.989C541.801 532.595 540.956 533.167 540.317 533.877C539.052 535.286 538.593 537.442 539.174 539.244C539.352 539.793 539.549 539.978 539.604 540C539.82 540.082 540.553 539.696 540.948 539.488C541.046 539.436 541.143 539.385 541.239 539.335C542.808 538.524 544.59 538.112 546.368 538.112ZM725.674 489.044C730.123 489.044 734.289 489.857 737.128 492.98C740.06 496.207 740.794 501.113 739.371 507.979C739.277 508.43 739.18 508.883 739.083 509.34C738.209 513.427 737.305 517.652 738.768 521.235C739.723 523.573 741.744 525.415 744.458 526.422C747.72 527.632 751.575 527.449 754.518 525.944C758.533 523.892 761.118 520.163 762.59 516.254C761.606 511.661 760.094 506.863 758.912 503.112C758.321 501.235 757.81 499.613 757.453 498.311C756.051 493.197 751.142 491.633 744.36 489.982C742.45 489.517 740.447 489.513 738.327 489.509C736.952 489.506 735.53 489.503 734.109 489.366C729.26 488.898 725.615 486.596 724.359 483.209C722.867 479.188 725.126 474.891 728.025 472.417C730.045 470.693 732.399 469.556 734.676 468.456C735.533 468.041 736.419 467.613 737.256 467.166C750.951 459.858 758.479 442.403 754.395 427.427C753.88 425.538 753.184 423.628 752.511 421.781C751.323 418.52 750.094 415.147 749.705 411.559C749.273 407.579 749.907 403.647 750.52 399.844C750.964 397.09 751.423 394.241 751.444 391.478C751.51 382.86 747.593 375.086 743.447 366.856C739.66 359.341 735.757 351.595 735.137 343.096C733.776 344.106 732.516 345.251 731.371 346.504C733.773 359.49 734.725 372.703 734.206 385.921L734.167 386.907C733.924 392.847 733.672 398.99 736.663 403.716C737.454 404.966 738.464 406.105 739.532 407.311C741.372 409.388 743.275 411.536 744.092 414.385C745.448 419.112 743.333 423.481 741.289 427.707C740.402 429.538 739.486 431.432 738.909 433.275C737.777 436.895 737.838 440.721 737.902 444.771C737.937 446.982 737.973 449.267 737.799 451.525C737.364 457.151 734.662 464.532 728.478 466.818C727.903 467.03 727.256 466.87 726.847 466.414C726.437 465.957 726.348 465.297 726.622 464.748C728.464 461.055 728.612 456.25 727.06 450.467C726.477 448.294 725.711 446.106 724.97 443.99C723.983 441.172 722.963 438.258 722.317 435.246C720.432 426.451 721.83 417.475 723.183 408.795C724.314 401.536 725.484 394.03 724.67 386.795C724.342 383.872 723.677 380.9 723.034 378.026C722.073 373.73 721.08 369.289 721.117 364.739C721.175 357.785 723.788 350.962 728.166 345.647C727.569 342.557 726.888 339.483 726.124 336.424C726.11 336.368 726.099 336.31 726.092 336.253C725.064 328.271 727.214 319.945 732.148 312.809C733.538 310.799 735.094 308.961 736.788 307.315C734.416 304.934 732.606 301.904 731.106 298.702C730.875 299.284 730.593 299.862 730.263 300.43C728.72 303.086 726.222 305.313 723.411 306.54C717.882 308.955 711.497 308.384 706.366 307.926L675.87 305.201C672.914 304.937 669.612 304.642 666.324 303.951C666.982 308.517 667.162 313.105 665.824 317.544C665.58 340.165 670.222 363.724 679.317 386.31C681.576 389.51 683.174 393.17 683.954 397.024C684.104 397.765 683.677 398.501 682.959 398.739C682.242 398.977 681.458 398.641 681.136 397.956C679.55 394.584 678.064 391.182 676.678 387.758C676.338 387.29 675.983 386.834 675.612 386.391C676.408 407.033 677.381 428.258 680.948 448.851C684.218 467.724 689.634 486.097 694.872 503.864C694.986 504.251 694.939 504.667 694.742 505.019C694.545 505.37 694.214 505.627 693.825 505.731C692.27 506.147 691.377 507.295 690.902 508.184C689.949 509.97 689.776 512.306 690.45 514.281C691.68 517.884 694.879 520.586 697.781 522.836C698.386 523.305 699.608 524.191 701.024 524.881C701.024 524.338 701.048 523.797 701.108 523.258C701.455 520.13 703.149 517.217 705.878 515.056C709.137 512.475 713.496 511.228 717.541 511.718C721.412 512.187 724.733 513.847 727.457 515.883C727.377 515.146 727.331 514.473 727.292 513.912C726.94 508.838 725.645 505.947 723.334 505.074C721.601 504.42 719.573 505.028 717.426 505.671C716.609 505.916 715.765 506.169 714.914 506.358C712.299 506.939 709.347 506.323 707.569 504.826C706.384 503.829 705.769 502.468 705.838 500.994L706.08 495.841C706.094 495.528 706.207 495.227 706.402 494.982C707.494 493.606 708.915 492.444 710.514 491.623C714.005 489.83 717.978 489.513 721.484 489.234C722.887 489.122 724.294 489.044 725.674 489.044ZM802.482 310.434C802.704 312.174 802.967 313.946 803.238 315.78L803.429 317.075C803.434 317.103 803.437 317.131 803.44 317.159L821.592 520.161L828.087 519.73C820.687 454.71 814.408 388.73 809.398 323.371C808.65 322.453 808.088 321.356 807.767 320.244C807.421 319.044 807.271 317.839 807.126 316.673C806.974 315.452 806.83 314.298 806.477 313.236C805.926 311.576 804.421 309.972 802.948 310.276C802.783 310.31 802.628 310.363 802.482 310.434ZM732.779 472.773C731.773 473.34 730.826 473.957 729.966 474.691C727.925 476.432 726.178 479.515 727.162 482.169C728.161 484.863 731.554 486.116 734.396 486.39C735.676 486.513 736.967 486.516 738.333 486.519C740.535 486.524 742.812 486.529 745.067 487.078C750.989 488.519 758.359 490.313 760.336 497.52C760.678 498.768 761.181 500.365 761.763 502.214C762.498 504.545 763.317 507.142 764.068 509.822C764.663 503.374 763.171 496.931 761.311 489.785C760.254 485.723 758.712 481.413 755.293 480.246C753.346 479.582 750.968 479.977 747.81 481.492C747.27 481.751 746.715 482.032 746.179 482.305C743.972 483.425 741.691 484.584 739.09 484.919C735.605 485.37 731.306 483.809 730.2 480.035C729.718 478.391 729.95 476.673 730.872 475.069C731.352 474.233 732.005 473.455 732.779 472.773ZM617.366 377.616C608.584 386.632 603.861 400.785 602.95 420.747C602.792 424.224 602.714 427.795 602.639 431.249C602.351 444.445 602.054 458.09 597.263 470.629C596.922 471.523 596.556 472.417 596.201 473.281C595.227 475.655 594.307 477.897 593.809 480.266C593.45 481.975 593.112 484.951 594.25 487.591C596.105 479.771 598.599 472.03 602.189 464.765C602.793 463.541 603.438 462.311 604.061 461.122C606.431 456.598 608.67 452.325 609.359 447.585C609.915 443.757 609.413 439.914 608.881 435.846C608.572 433.478 608.251 431.029 608.159 428.583C607.831 419.83 610.403 411.254 612.89 402.961C615.501 394.258 617.981 385.988 617.366 377.616ZM742.319 469.783C744.135 469.783 745.943 469.956 747.718 470.126C750.794 470.421 753.699 470.699 756.498 470.121C760.747 469.245 764.508 466.249 766.314 462.305C768.101 458.403 767.931 453.637 765.871 449.868C765.541 449.264 765.666 448.513 766.173 448.049C774.794 440.154 778.702 427.656 776.13 416.209C776.06 415.899 775.986 415.587 775.911 415.275C775.437 413.281 774.946 411.22 775.402 409.049C776.145 405.505 779.067 403.262 781.646 401.284C782.39 400.713 783.092 400.174 783.746 399.611C789.636 394.536 791.939 385.634 789.222 378.443C789.168 378.302 789.137 378.154 789.128 378.003C788.332 364.477 787.678 350.747 787.045 337.469L785.513 305.306C785.419 303.348 785.315 301.151 785.913 299.024L762.79 308.506C756.296 311.168 749.42 313.579 743.002 311.314C741.567 310.807 740.27 310.116 739.092 309.276C731.983 316.056 727.825 326.066 729.047 335.786C729.639 338.165 730.183 340.554 730.677 342.952C732.23 341.477 733.942 340.172 735.788 339.079C736.253 338.804 736.831 338.801 737.299 339.072C737.767 339.343 738.051 339.845 738.044 340.386C737.921 349.246 742.088 357.515 746.117 365.511C750.241 373.697 754.505 382.16 754.433 391.501C754.41 394.492 753.933 397.454 753.472 400.32C752.863 404.094 752.289 407.658 752.677 411.237C753.027 414.465 754.141 417.522 755.32 420.758C756.014 422.663 756.731 424.632 757.28 426.641C759.436 434.548 758.715 443.327 755.25 451.362C751.785 459.396 745.894 465.946 738.664 469.804C738.391 469.95 738.116 470.092 737.84 470.232C739.329 469.9 740.827 469.783 742.319 469.783ZM728.893 349.65C725.898 354.074 724.152 359.375 724.107 364.764C724.072 368.97 724.985 373.052 725.952 377.373C726.612 380.325 727.295 383.378 727.641 386.461C728.5 394.095 727.299 401.802 726.137 409.255C724.766 418.054 723.471 426.365 725.241 434.619C725.847 437.448 726.836 440.271 727.792 443.002C728.551 445.17 729.336 447.412 729.948 449.692C731.157 454.199 731.424 458.229 730.751 461.731C733.187 459.098 734.533 454.989 734.819 451.295C734.983 449.175 734.947 446.961 734.913 444.819C734.848 440.711 734.781 436.462 736.057 432.382C736.699 430.329 737.664 428.334 738.598 426.405C740.481 422.513 742.259 418.838 741.219 415.209C740.589 413.012 738.989 411.206 737.294 409.294C736.195 408.052 735.057 406.769 734.138 405.315C730.647 399.8 730.93 392.885 731.18 386.785L731.219 385.804C731.695 373.69 730.913 361.579 728.893 349.65ZM634.156 316.186C636.185 318.216 637.328 321.21 637.556 324.105C639.436 317.618 639.837 310.218 638.706 302.37C637.362 293.042 634.024 283.94 630.936 276.265C628.95 271.329 627.521 266.214 630.483 262.245C631.65 260.681 633.252 259.719 634.801 258.789C636.256 257.915 637.63 257.09 638.409 255.873C638.999 254.95 639.282 253.752 639.581 252.484C639.597 252.417 639.613 252.35 639.629 252.282C638.911 253.372 638.077 254.371 637.136 255.258C633.357 258.82 627.857 260.853 621.651 260.981C619.062 261.035 616.484 260.77 613.96 260.324C614.284 261.083 614.48 261.882 614.533 262.69C614.664 264.701 613.902 266.778 612.444 268.387C610.985 269.996 608.993 270.958 606.979 271.025C606.435 271.042 605.889 270.996 605.35 270.888C605.609 271.261 605.872 271.636 606.138 272.013C606.581 272.643 607.039 273.294 607.473 273.942C609.511 276.984 612.507 282.826 609.685 287.773C608.304 290.194 605.992 291.561 603.757 292.884C603.163 293.236 602.601 293.568 602.059 293.919C594.638 298.715 591.126 307.185 590.058 315.785L619.336 308.327C620.385 308.06 621.36 307.772 621.775 307.184C622.287 306.458 622.017 305.148 621.65 303.841L614.773 279.373C614.568 278.642 614.943 277.873 615.646 277.585C616.349 277.298 617.155 277.582 617.522 278.248C624.191 290.364 629.762 303.075 634.156 316.186ZM812.3 322.105C812.82 322.54 813.417 322.793 814.045 322.743C814.965 322.667 815.942 321.936 817.032 320.509C822.617 313.196 823.076 302.516 818.729 294.479C817.409 299.772 815.176 304.869 811.315 309.009C811.638 313.37 811.966 317.737 812.3 322.105ZM790.645 202.583C794.007 207.258 795.694 213.509 795.925 222.032C795.98 224.074 795.964 226.145 795.949 228.148C795.912 232.978 795.873 237.973 796.856 242.689C797.466 245.616 798.493 248.538 799.485 251.363C800.562 254.429 801.676 257.6 802.316 260.892C804.504 272.164 800.99 283.252 797.592 293.975C795.276 301.284 792.881 308.843 792.327 316.368C792.188 318.253 792.487 320.418 793.741 320.837C794.157 320.976 794.519 320.926 794.916 320.676C795.972 320.009 796.941 318.08 797.172 316.188C797.404 314.283 797.773 311.255 799.326 309.254C798.767 304.365 798.586 299.637 799.448 294.37C800.392 288.597 802.492 285.148 805.868 283.827C809.862 282.263 814.134 284.476 817.009 287.243C817.541 283.036 817.682 278.884 817.806 275.226L817.811 275.078C818.053 267.947 818.651 260.733 819.23 253.756C819.975 244.77 820.746 235.479 820.753 226.344C820.763 211.912 818.763 199.782 814.663 189.568C807.211 194.866 799.159 199.23 790.645 202.583ZM589.767 319.051C600.041 320.655 610.708 319.532 620.399 315.751C620.617 315.666 620.836 315.579 621.056 315.492C623.845 314.392 627.002 313.146 630.222 313.935C627.745 306.894 624.924 299.977 621.769 293.214L624.528 303.032C624.91 304.39 625.62 306.918 624.218 308.906C623.133 310.445 621.293 310.914 620.075 311.224L589.773 318.943C589.771 318.979 589.769 319.015 589.767 319.051ZM803.335 307.246C805.445 307.246 807.277 308.635 808.422 310.429C808.376 309.807 808.33 309.187 808.284 308.565C808.253 308.136 808.408 307.714 808.709 307.407C813.069 302.973 815.265 297.075 816.417 291.02C816.092 290.622 815.751 290.236 815.396 289.861C813.205 287.551 809.837 285.484 806.957 286.611C804.648 287.514 803.157 290.21 802.397 294.852C801.682 299.224 801.74 303.265 802.137 307.394C802.205 307.378 802.274 307.362 802.344 307.348C802.68 307.279 803.011 307.246 803.335 307.246ZM505.952 253.093C505.807 253.093 505.677 253.12 505.573 253.182C505.282 253.354 504.899 254.019 505.598 256.54C507.747 264.28 506.973 272.866 503.476 280.096C502.15 282.838 500.458 285.376 498.821 287.83C497.09 290.426 495.455 292.878 494.199 295.569C492.156 299.946 491.275 304.889 491.576 309.743C492.352 304.687 493.758 299.512 496.709 295.111C498.223 292.854 500.079 290.887 501.875 288.985C503.35 287.421 504.744 285.945 505.972 284.312C510.494 278.307 512.355 270.313 510.951 262.928C510.341 259.722 509.191 256.713 507.775 253.736C507.264 253.464 506.497 253.093 505.952 253.093ZM665.799 300.762C669.297 301.613 672.932 301.937 676.137 302.224L706.632 304.948C711.673 305.398 717.387 305.909 722.215 303.8C726.551 301.907 730.127 296.895 728.538 292.451C728.262 291.678 728.661 290.826 729.433 290.544C730.205 290.261 731.06 290.656 731.346 291.426C733.218 296.444 735.464 301.803 739.031 305.313C742.852 302.184 747.237 299.952 751.907 298.813C755.977 297.821 760.17 297.596 764.226 297.379C767.792 297.187 771.481 296.99 774.969 296.259C781.756 294.838 789.204 290.078 789.516 282.987C789.692 278.998 787.602 275.396 785.388 271.582C783.811 268.865 782.181 266.055 781.316 262.967C779.581 256.771 781.152 250.522 782.671 244.478C783.378 241.668 784.108 238.762 784.474 235.945C785.673 226.722 783.202 217.774 780.585 208.301C779.507 204.4 778.393 200.367 777.577 196.356C773.142 174.552 777.217 152.12 781.158 130.425C781.378 129.212 781.599 128.001 781.817 126.792C781.955 126.023 782.66 125.491 783.439 125.57C784.216 125.649 784.801 126.314 784.782 127.094C784.267 147.69 785.386 168.492 788.108 188.92C788.27 190.139 788.592 191.805 789.512 192.197C790.261 192.517 791.405 192.013 792.425 191.477C798.977 188.038 805.114 183.819 810.666 178.935C811 178.642 811.448 178.511 811.888 178.582C812.328 178.652 812.713 178.914 812.94 179.297C814.012 181.109 815.002 182.987 815.912 184.935C816.308 184.633 816.702 184.328 817.094 184.021C818.526 182.898 819.963 181.673 820.428 180.141C820.88 178.65 820.416 176.9 819.811 174.933L805.507 128.44C803.531 122.018 801.488 115.376 797.801 109.719C793.49 103.105 786.783 97.5753 777.868 93.2853C770.171 89.5823 761.733 87.2133 753.523 84.9662C753.327 85.8345 753.1 86.6897 752.846 87.533C755.961 94.8533 756.655 103.09 754.794 110.834C754.637 111.483 754.069 111.95 753.402 111.978C750.343 112.104 748.313 109.907 746.516 107.967C745.496 106.866 744.517 105.81 743.445 105.21C742.24 106.911 741.004 108.588 739.777 110.253C736.054 115.304 732.206 120.527 729.469 126.105C721.386 142.58 722.734 162.009 723.923 179.151C726.396 214.795 728.868 250.438 731.339 286.081C731.39 286.814 730.902 287.474 730.187 287.641C729.473 287.807 728.742 287.43 728.464 286.749C717.682 260.33 715.8 231.802 714.698 202.456C713.707 176.036 713.256 149.25 713.359 122.831C711.874 121.978 709.852 121.63 707.889 121.292C707.341 121.198 706.774 121.101 706.225 120.993C699.921 119.759 694.15 116.292 690.071 111.353L688.544 114.133C688.194 114.77 687.436 115.063 686.747 114.826C686.06 114.589 685.642 113.892 685.758 113.174C685.773 113.085 685.771 113.04 685.689 112.945C685.292 112.486 684.069 112.127 682.942 112.142C679.175 112.196 676.842 110.78 676.71 108.352C676.593 106.176 678.386 104.931 679.695 104.023C679.871 103.901 680.044 103.781 680.209 103.661C682.346 102.109 683.496 99.3344 683.146 96.7262C683.072 96.4491 683.02 96.1621 682.99 95.8653C682.912 95.0822 683.454 94.373 684.23 94.2428C685.006 94.1115 685.75 94.606 685.932 95.3716C685.987 95.6018 686.032 95.8337 686.07 96.0664C686.532 97.492 688.29 98.4736 689.856 98.5337C692.018 98.6193 694.189 97.511 696.027 96.4179C707.367 89.6726 715.691 78.4512 718.864 65.6313C719.033 64.9467 719.653 64.4763 720.363 64.4964C721.068 64.5192 721.661 65.0313 721.786 65.7253C722.134 67.6572 723.225 69.4563 724.78 70.661C725.844 71.4857 727.406 72.0636 728.498 71.4968C728.927 71.2743 729.339 70.8534 729.776 70.4078C730.149 70.0266 730.536 69.6326 731.005 69.2728C731.982 68.5233 733.273 68.1684 734.374 68.3469C734.512 68.3691 734.646 68.3997 734.777 68.4381C734.74 68.279 734.707 68.1191 734.676 67.9574C734.192 65.4187 734.471 62.9224 734.902 60.4861C734.336 60.4626 733.784 60.3546 733.263 60.1575C730.212 59.0003 729.197 55.4744 729.255 52.8066C729.277 51.8066 729.4 50.8318 729.52 49.8888C729.694 48.5068 729.859 47.2014 729.694 45.9601C729.38 43.5992 727.691 41.4011 725.49 40.4905C723.782 39.7837 721.819 39.8313 720.147 40.5273C723.052 42.0094 725.5 44.4222 726.965 47.334C728.853 51.0876 729.102 55.6785 727.631 59.6142C726.657 62.2201 724.414 64.617 721.587 64.0958C719.1 63.6369 717.774 61.1348 717.751 58.9002C717.734 57.2783 718.242 55.8357 718.734 54.4404C718.83 54.1705 718.925 53.9014 719.015 53.6322C719.592 51.9085 719.686 50.7379 719.319 49.8363C718.839 48.6591 717.55 48.0039 716.825 47.7182C715.914 47.3595 714.918 47.1568 713.863 46.942C713.455 46.8587 713.032 46.7729 712.611 46.6763C708.248 45.678 704.418 43.6437 701.533 40.7927C697.216 36.5258 695.212 30.7929 693.378 24.7999C693.32 24.6124 693.3 24.4155 693.319 24.2204C693.75 19.7055 696.739 15.556 700.933 13.6491C701.367 13.4522 701.867 13.4732 702.283 13.7057C702.698 13.9383 702.977 14.3547 703.036 14.8268C703.5 18.5947 707.879 20.8341 711.488 21.6071C712.749 21.8772 714.087 22.07 715.38 22.2569C718.595 22.7207 721.919 23.2005 724.881 24.9003C729.099 27.3203 731.606 31.6462 733.811 35.8696C733.875 35.9904 733.938 36.1117 734.001 36.233C733.709 35.5206 733.447 34.7916 733.228 34.0419C732.4 31.1967 732.266 28.268 732.136 25.4358C732.069 23.9938 732.001 22.5025 731.839 21.0756C731.527 18.3271 730.454 13.4078 726.769 11.3438C725.239 10.4864 723.398 10.1941 721.449 9.88443C719.177 9.52354 716.828 9.15028 714.744 7.83637C713.708 7.18316 712.846 6.36253 712.013 5.56902C710.928 4.53506 709.903 3.55812 708.695 3.18336C707.471 2.80348 706.01 3.03922 704.618 3.31319C691.324 5.93246 678.541 12.4593 668.623 21.691C668.038 22.2355 667.496 22.7709 667.29 23.3312C667.158 23.6891 667.246 24.0613 667.343 24.1268C667.503 24.2345 668.019 24.2426 668.239 24.2462C671.311 24.2955 674.391 23.9221 677.375 23.1589C680.617 20.9088 684.372 19.2394 688.438 18.2791C689.143 18.1125 689.866 18.4755 690.153 19.1405C690.441 19.8055 690.21 20.5808 689.606 20.9806C686.263 23.1918 682.544 24.8554 678.662 25.9097C676.536 27.445 674.671 29.2603 673.141 31.3099C668.778 37.1523 667.25 45.1542 669.154 52.1929C669.231 52.4784 669.221 52.7804 669.127 53.0607L668.01 56.3731C668.237 58.5711 669.141 60.693 670.572 62.3776C671.042 62.9301 671.244 62.9771 671.28 62.9807C671.343 62.982 671.599 62.8425 671.748 62.5305C671.9 62.2151 671.965 61.8103 671.998 61.38L672.036 60.6435C672.078 59.8229 672.774 59.187 673.595 59.2265C674.416 59.263 675.054 59.9553 675.023 60.7763C675.013 61.0272 675.003 61.2957 674.982 61.575L674.401 72.9681C674.374 73.4853 674.338 74.1932 674.545 74.528C674.781 74.9096 675.581 75.0943 676.489 74.9771C678.822 74.676 680.983 73.1097 681.994 70.9865C682.306 70.3337 683.038 69.9969 683.737 70.1872C684.434 70.377 684.896 71.0392 684.833 71.7595C684.617 74.2314 682.926 76.5165 680.625 77.4458C680.319 77.5692 680.006 77.6758 679.703 77.7785C679.18 77.9557 678.207 78.2857 678.157 78.5393C678.175 78.6491 678.497 78.9634 678.879 79.0057C679.563 79.0815 680.376 78.7514 681.236 78.402L681.426 78.3252C685.571 76.6525 689.936 75.6897 694.4 75.4638C694.849 75.4409 695.695 75.489 696.323 76.0666C696.702 76.4151 696.92 76.8889 696.937 77.401C696.965 78.209 696.482 78.7482 696.3 78.9513C693.376 82.2186 689.305 84.4702 684.991 85.237C684.791 87.3376 685.268 89.5005 686.351 91.3043C686.569 91.6664 686.622 92.1038 686.5 92.508C686.377 92.9122 686.089 93.2458 685.707 93.426L684.487 94.0004C673.511 99.1687 662.161 104.513 654.516 113.685C654.006 114.296 653.515 114.924 653.04 115.565C665.897 133.466 669.595 157.674 662.474 178.62C663.121 179.522 663.774 180.422 664.414 181.303C668.858 187.423 673.455 193.751 676.103 201.03C679.06 209.158 679.688 221.279 671.89 229.015C671.295 232.588 669.517 236.038 666.848 238.78C666.71 238.922 666.57 239.061 666.428 239.198C666.445 240.527 666.559 241.847 666.801 243.152C666.824 243.282 666.85 243.406 666.876 243.524C669.361 239.774 672.673 236.707 675.882 233.734C679.19 230.669 682.315 227.775 684.621 224.195C685.062 223.51 685.97 223.305 686.663 223.732C687.356 224.16 687.579 225.063 687.165 225.764C683.161 232.54 678.583 239.048 673.558 245.107C671.582 247.489 669.481 248.593 667.609 248.293C667.387 248.755 667.177 249.222 666.978 249.695C667.372 250.471 667.782 251.238 668.208 251.993C668.388 252.311 668.571 252.63 668.755 252.951C670.274 255.596 671.844 258.333 671.99 261.552C672.176 265.685 669.994 269.096 667.884 272.395C666.848 274.016 665.869 275.546 665.155 277.152C662.415 283.316 663.749 290.162 665.162 297.41C665.377 298.523 665.595 299.64 665.799 300.762ZM658.389 297.747C659.693 298.588 661.105 299.257 662.577 299.795C662.462 299.194 662.345 298.59 662.226 297.983C660.787 290.599 659.299 282.964 662.422 275.939C663.227 274.126 664.314 272.428 665.365 270.785C667.309 267.745 669.146 264.874 669.002 261.687C668.889 259.193 667.563 256.884 666.16 254.44C665.975 254.116 665.789 253.793 665.608 253.471C664.915 255.675 664.356 257.933 663.805 260.156C660.777 272.387 657.648 285.026 658.389 297.747ZM689.872 107.117C690.362 107.117 690.823 107.357 691.103 107.764C694.756 113.069 700.478 116.822 706.8 118.06C707.315 118.161 707.84 118.251 708.396 118.346C710.989 118.793 713.672 119.254 715.762 120.842C716.136 121.126 716.354 121.569 716.352 122.039C716.237 148.678 716.686 175.697 717.686 202.344C718.64 227.744 720.178 252.512 727.622 275.685C725.396 243.577 723.169 211.467 720.941 179.358C719.786 162.707 718.349 141.985 726.786 124.788C729.64 118.969 733.57 113.636 737.37 108.479C738.203 107.349 739.031 106.226 739.842 105.107C738.228 105.817 736.662 107.335 735.224 108.729L734.919 109.024C730.841 112.967 725.89 116.133 720.599 118.181C720.103 118.373 719.544 118.287 719.128 117.957C718.713 117.626 718.504 117.099 718.58 116.574C719.111 112.9 720.812 109.384 723.369 106.674C723.478 106.558 723.605 106.461 723.745 106.385C729.952 103.029 734.165 99.5693 737.002 95.4958C740.427 90.5791 741.529 84.779 739.951 79.9799C739.406 78.3224 738.553 76.7631 737.651 75.1123C737.258 74.3941 736.861 73.6681 736.487 72.9254C735.836 72.5252 735.171 72.1469 734.492 71.7909C734.274 71.6764 734.088 71.5099 733.949 71.3059C733.837 71.2459 733.276 71.298 732.824 71.6452C732.523 71.8761 732.226 72.1793 731.911 72.5C731.357 73.0663 730.728 73.708 729.875 74.1507C727.457 75.405 724.712 74.3909 722.948 73.0241C722.022 72.3057 721.215 71.4334 720.56 70.4586C718.802 75.6316 716.191 80.616 712.891 85.0647C708.723 90.6844 703.42 95.4986 697.555 98.9874C695.342 100.304 692.686 101.635 689.741 101.521C688.411 101.47 687.022 101.033 685.85 100.276C685.251 102.574 683.894 104.68 681.966 106.08C681.784 106.212 681.594 106.345 681.4 106.479C680.628 107.015 679.668 107.681 679.696 108.192C679.726 108.757 681.132 109.178 682.899 109.153C684.195 109.134 685.964 109.447 687.22 110.335L688.562 107.892C688.811 107.438 689.279 107.145 689.797 107.119C689.822 107.117 689.847 107.117 689.872 107.117ZM548.302 261.272C548.448 261.28 548.592 261.287 548.738 261.294C557.707 261.739 566.768 261.289 575.733 260.542C566.199 259.857 556.742 260.459 548.302 261.272ZM567.061 257.254C572.761 257.254 578.605 257.599 584.398 258.521C584.83 258.59 585.21 258.844 585.439 259.218C585.516 259.345 585.574 259.481 585.61 259.623C587.062 259.477 588.51 259.33 589.953 259.184C589.965 259.182 589.977 259.181 589.99 259.18C593.568 258.905 596.627 257.094 599.34 253.643C599.52 253.415 599.696 253.179 599.873 252.942C600.802 251.696 601.856 250.285 603.573 249.636C604.606 249.245 605.789 249.173 607.187 249.413C608.941 249.716 610.635 250.42 612.086 251.45C612.206 251.534 612.325 251.622 612.446 251.71C613.012 252.123 613.654 252.593 614.026 252.531C614.15 252.512 614.255 252.342 614.284 252.29C614.432 252.027 614.467 251.673 614.369 251.429C614.12 250.816 613.332 250.305 612.362 250.129C612.23 250.105 612.096 250.086 611.961 250.066C611.352 249.976 610.594 249.864 609.882 249.417C609.163 248.967 608.65 248.171 608.542 247.339C608.447 246.609 608.66 245.923 609.142 245.407C609.943 244.551 611.065 244.58 611.544 244.593C616.1 244.713 620.605 245.964 624.57 248.211L624.76 248.319C625.304 248.63 625.818 248.924 626.262 248.978C626.412 248.996 626.557 248.961 626.642 248.922C626.571 248.783 626.336 248.441 625.604 247.939C623.552 246.533 621.431 245.079 619.173 244.1C616.363 242.883 613.249 242.396 610.194 242.636C608.297 243.869 605.46 245.375 602.648 244.343C602.081 244.134 601.695 243.605 601.67 243.001C601.646 242.397 601.987 241.838 602.535 241.583C604.626 240.614 606.875 239.997 609.167 239.736C611.018 238.527 613.107 237.235 615.593 237.429C617.627 237.586 619.279 238.716 620.735 239.714C620.927 239.845 621.118 239.976 621.309 240.103C624.085 241.962 627.141 243.291 630.394 244.052C630.772 244.141 631.925 244.411 632.385 244.052C632.642 243.852 632.744 243.329 632.617 242.86C632.466 242.309 632.066 241.728 631.356 241.03C631.3 240.976 631.245 240.922 631.189 240.869C629.283 240.182 627.413 239.36 625.603 238.565C623.75 237.751 621.948 236.959 620.138 236.311C616.487 235.926 612.76 236.23 608.95 236.607C608.361 236.667 607.791 236.37 607.5 235.854C607.209 235.338 607.25 234.698 607.606 234.224C609.031 232.322 611.666 231.514 615.025 231.951C617.017 232.209 618.934 232.727 620.796 233.376C621.009 233.401 621.223 233.428 621.436 233.457C624.659 233.901 629.147 235.098 632.749 238.248C633.452 238.479 634.184 238.645 634.659 238.436C634.822 238.356 635.055 238 635.125 237.757C635.024 237.64 634.942 237.508 634.88 237.365C632.514 231.808 627.418 227.394 621.58 225.845C615.742 224.297 609.128 225.603 604.318 229.256C603.293 230.034 602.347 230.905 601.344 231.828C600.039 233.029 598.69 234.27 597.143 235.301C589.811 240.188 580.79 238.727 576.065 237.422C571.609 236.19 567.384 234.256 563.298 232.385C561.203 231.426 559.037 230.434 556.885 229.56C553.558 228.209 551.282 228.104 549.927 229.241C548.766 230.216 548.476 231.911 548.141 233.873C547.972 234.865 547.797 235.892 547.487 236.883C546.533 239.931 544.397 242.273 542.291 244.411L541.874 244.833C540.032 246.695 538.293 248.454 537.3 250.619C536.401 252.581 536.186 255.316 537.732 257.004C539.531 258.968 542.949 258.803 546.297 258.466C552.712 257.819 559.769 257.254 567.061 257.254ZM642.596 240.356C642.698 241.594 642.68 242.858 642.535 244.129C642.413 245.205 642.204 246.257 641.914 247.272C642.006 247.179 642.103 247.087 642.203 246.998C643.764 245.608 645.761 245.286 647.523 245.001C648.342 244.869 649.116 244.744 649.817 244.529C650.213 244.407 650.589 244.257 650.947 244.081C647.923 243.54 645.03 242.239 642.596 240.356ZM674.464 239.189C672.693 240.934 671.057 242.724 669.68 244.714C670.222 244.322 670.774 243.779 671.256 243.199C672.347 241.883 673.417 240.546 674.464 239.189ZM663.548 241.492C663.551 241.501 663.553 241.509 663.556 241.518C663.556 241.508 663.555 241.498 663.554 241.488C663.552 241.489 663.55 241.491 663.548 241.492ZM659.256 237.43C658.869 238.607 658.408 239.762 657.854 240.849C658.577 240.643 659.283 240.38 659.967 240.065C659.711 239.191 659.474 238.312 659.256 237.43ZM527.018 224.495C523.026 226.083 519.519 229.035 517.349 232.717C516.979 233.346 516.878 233.851 516.898 234.046C517.098 234.032 517.617 233.851 518.294 233.291C521.493 230.648 524.412 227.703 527.018 224.495ZM534.393 220.146C536.236 220.146 538.086 220.346 539.865 220.733C538.681 218.745 538.016 216.729 537.655 215.298C536.763 211.761 536.669 208.121 536.578 204.601C536.562 204.005 536.547 203.41 536.528 202.816C536.101 189.64 533.736 176.628 529.497 164.144C527.718 158.904 525.33 152.947 521.107 148.499C517.413 144.609 510.849 140.964 504.339 143.269C507.498 142.565 511.046 144.367 513.466 146.491C519.142 151.472 522.842 158.38 526.107 164.475C530.201 172.119 533.508 179.066 532.495 186.671C532.331 187.902 532.054 189.144 531.787 190.345C531.095 193.454 530.442 196.39 531.74 198.748C531.857 198.96 531.988 199.178 532.121 199.4C532.79 200.52 533.751 202.128 533.258 203.746C534.123 204.523 534.808 205.496 535.193 206.73C535.705 208.369 535.509 210.111 534.629 211.767C534.381 212.233 534.086 212.678 533.753 213.094C534.04 213.382 534.294 213.713 534.505 214.096C535.73 216.326 534.611 218.783 533.804 220.153C534.001 220.149 534.196 220.146 534.393 220.146ZM519.884 212.796C522.111 213.326 524.528 213.842 526.8 213.594C524.521 213.144 522.206 212.877 519.884 212.796ZM636.918 193.761C637.544 193.761 638.175 193.783 638.812 193.827C644.41 194.211 649.738 196.062 654.891 197.852C655.485 198.058 656.078 198.264 656.671 198.468C658.286 199.022 659.436 199.064 659.825 198.583C660.218 198.099 659.831 196.987 659.224 196.253C657.076 193.654 653.478 193.055 649.669 192.421C646.979 191.973 644.197 191.51 641.698 190.313C641.078 190.017 640.488 189.68 639.917 189.355C638.733 188.68 637.615 188.042 636.462 187.892C634.903 187.689 633.102 188.421 631.639 189.849C630.182 191.271 629.177 193.124 628.113 195.086C628.053 195.196 627.993 195.308 627.932 195.419C630.624 194.338 633.687 193.761 636.918 193.761ZM508.839 194.814C508.913 194.89 509.102 195.033 509.571 195.272C511.381 196.197 513.237 197.022 515.13 197.747L511.528 195.469C510.7 194.944 509.96 194.513 509.337 194.542C509.134 194.551 508.923 194.704 508.839 194.814ZM554.786 150.742C559.498 152.484 564.709 150.618 568.105 148.207C572.185 145.311 575.183 141.055 577.673 137.293L578.045 136.73C579.687 134.241 581.384 131.667 583.767 129.658C586.386 127.45 589.496 126.372 592.344 126.633C592.337 126.611 592.33 126.588 592.323 126.564C592.135 125.892 592.437 125.179 593.052 124.847C596.714 122.866 600.04 120.331 602.936 117.31C604.167 116.027 604.673 115.071 604.529 114.301C604.446 113.862 604.117 113.365 603.768 112.839C603.252 112.061 602.667 111.179 602.528 110.028C602.434 109.249 602.568 108.538 602.761 107.887C601.951 107.94 601.128 107.867 600.381 107.711C596.403 106.88 592.701 104.773 589.956 101.776C589.547 101.33 589.448 100.681 589.704 100.133C589.961 99.5849 590.523 99.2449 591.127 99.2734C594.294 99.4203 597.477 99.8008 600.588 100.404C601.685 100.617 602.845 100.877 603.915 101.497C603.978 101.533 604.039 101.57 604.099 101.608C604.081 100.699 604.248 99.9206 604.598 99.2838C605.082 96.9885 606.877 95.8838 608.332 94.9887C609.327 94.3767 610.186 93.8484 610.515 93.0982C610.995 92.0038 610.228 90.5518 609.426 89.641C608.962 89.1149 608.426 88.6278 607.858 88.1121C607.034 87.3634 606.181 86.5891 605.469 85.616C604.099 83.7441 603.405 80.7755 605.117 78.6814C605.362 78.3811 605.625 78.1409 605.857 77.9291C606.066 77.7384 606.263 77.5583 606.358 77.4104C606.634 76.9811 606.464 76.1674 605.852 74.9918C605.644 74.5921 605.627 74.1199 605.807 73.7065L605.963 73.3463C606.66 71.7422 607.369 70.1114 607.928 68.4607L600.831 61.0554C597.985 63.1998 594.297 64.5856 589.843 65.181C586.691 65.6025 583.505 65.6023 580.422 65.6002C579.385 65.6004 578.31 65.5995 577.261 65.6155C575.124 65.6484 572.987 65.8543 571.828 67.1278C570.66 68.4114 570.572 70.5895 571.553 73.9816C572.398 76.9041 573.447 80.5323 571.655 83.5816C571.519 83.8133 571.372 84.0388 571.23 84.2571C570.999 84.612 570.573 85.265 570.563 85.5135C570.69 85.6167 571.252 85.7279 571.59 85.7945C572.471 85.969 573.678 86.208 574.483 87.2082C575.742 88.7728 575.069 90.9127 573.911 92.2387C573.644 92.5445 573.367 92.8161 573.099 93.0788C572.603 93.565 572.175 93.985 571.999 94.4307C571.951 94.5501 571.982 94.7487 572.033 94.8744C572.647 94.8932 573.198 95.29 573.401 95.8873C573.63 96.5616 573.352 97.3041 572.736 97.6616C572.512 97.7916 571.934 98.3199 571.551 98.6697C570.935 99.233 570.353 99.7647 569.85 100.056C569.474 100.275 569.021 100.318 568.61 100.176C568.419 100.109 567.835 100.546 567.581 101.232C567.432 101.634 567.333 102.097 567.227 102.586C567.055 103.389 566.859 104.299 566.385 105.159C564.501 108.573 559.843 108.671 557.854 108.713C556.618 108.738 553.332 108.807 551.972 106.347C550.792 104.211 551.935 102.183 552.854 100.553C553.338 99.694 553.839 98.8059 553.943 98.0423C554.217 96.0457 551.775 94.2866 549.601 93.3863C549.325 93.2723 549.044 93.1591 548.761 93.0451C546.078 91.9639 543.037 90.7384 541.738 87.7702C541.546 87.3327 541.575 86.8302 541.815 86.4174C542.056 86.0049 542.479 85.7324 542.954 85.6835L556.09 84.3363C556.68 84.2757 558.475 84.0916 558.805 83.316C559.125 82.5643 558.121 81.5163 556.775 80.2244C556.543 80.0019 556.316 79.7834 556.103 79.5695C554.104 77.5656 552.976 74.6604 553.007 71.5987C553.038 68.537 554.224 65.6548 556.263 63.6916C556.719 63.2523 557.213 62.8423 557.691 62.4456C558.963 61.3892 560.166 60.3911 560.197 59.2245C560.204 58.9335 560.136 58.5758 560.065 58.1972C559.952 57.604 559.825 56.9316 559.906 56.1835C560.108 54.3407 561.466 52.0043 566.788 51.3381C571.156 50.7914 576.106 50.1715 580.82 51.3669C581.739 51.5997 582.629 51.8965 583.491 52.1833C584.876 52.6448 586.184 53.0806 587.514 53.2348C589.866 53.5068 592.344 52.9294 594.968 52.3176C598.893 51.4022 602.953 50.4556 606.696 52.5423C608.297 53.4344 609.604 54.841 610.521 56.5643C610.3 55.9574 610.048 55.3808 609.769 54.8466C607.696 50.8658 603.114 48.194 598.63 48.3424C598.148 48.362 597.678 48.1367 597.385 47.7466C597.092 47.3567 597.007 46.8485 597.158 46.3847C597.714 44.6821 596.066 42.6968 594.221 42.0592C592.221 41.368 589.969 41.6251 587.585 41.8973C587.336 41.9257 587.088 41.9541 586.84 41.9813C583.971 42.2964 580.677 42.3923 578.003 40.7158C577.342 40.3016 576.784 39.8209 576.244 39.3562C575.81 38.9821 575.399 38.6285 574.975 38.3458C571.987 36.3537 567.683 37.3626 563.883 38.4649C563.389 38.6082 562.856 38.4878 562.472 38.1459C562.088 37.8042 561.907 37.2892 561.992 36.7822C562.008 36.6874 562.056 36.3989 561.633 36.0372C561.081 35.5653 560.179 35.3716 559.536 35.5858C558.111 36.0613 557.056 37.4619 555.939 38.9447L555.686 39.2802C554.302 41.107 552.359 43.2268 549.601 43.4036C547.758 43.5205 546.07 42.718 544.579 42.0088C542.805 41.166 541.672 40.6753 540.747 41.1925C539.985 41.6187 539.559 42.7549 539.213 43.9193C537.705 48.9894 536.774 54.2356 536.444 59.5128C536.407 60.1028 536.026 60.6155 535.472 60.8212C534.918 61.0268 534.294 60.8861 533.882 60.4628C533.67 60.245 533.437 60.165 533.13 60.2034C532.617 60.267 532.058 60.6574 531.77 61.1524C531.318 61.9322 531.196 63.0195 531.386 64.5745C531.432 64.9506 531.489 65.3264 531.551 65.7244C531.726 66.869 531.907 68.0527 531.816 69.307C531.711 70.7539 531.261 72.0627 530.826 73.3284C530.45 74.421 530.095 75.4531 530 76.4751C529.869 77.8624 530.214 79.3553 530.546 80.7988L532.465 89.1194C533.259 92.5644 534.398 94.3491 535.948 94.5755L537.07 94.7395C537.652 94.8245 538.13 95.2426 538.292 95.808C538.453 96.3733 538.268 96.9808 537.819 97.3602L537.263 97.8305C536.629 98.3669 536.473 99.1365 536.454 99.6876C536.412 100.924 536.978 102.298 537.896 103.187C539.426 104.67 541.593 105.385 543.889 106.141C544.257 106.263 544.625 106.384 544.989 106.508C548.235 107.616 548.937 109.368 548.955 110.642C548.973 111.969 548.178 113.04 547.795 113.555C547.639 113.766 547.479 113.974 547.316 114.18C548.602 126.568 551.109 138.846 554.786 150.742ZM649.329 115.588C645.496 120.241 642.623 125.639 640.877 131.388C641.17 130.784 641.46 130.183 641.748 129.585C644.02 124.871 646.352 120.033 649.345 115.609C649.339 115.602 649.334 115.596 649.329 115.588ZM725.385 108.897C723.979 110.435 722.896 112.267 722.215 114.232C726.117 112.374 729.749 109.864 732.841 106.875L733.143 106.583C735.556 104.244 738.525 101.363 742.228 101.738C745.32 97.24 748.002 92.6925 749.657 87.7181C747.822 83.7625 745.233 80.1943 742.08 77.2163C742.344 77.8112 742.585 78.4198 742.791 79.0459C744.661 84.7326 743.414 91.521 739.456 97.2048C736.375 101.627 731.9 105.346 725.385 108.897ZM745.151 102.747C746.533 103.587 747.667 104.811 748.709 105.935C749.907 107.229 750.98 108.386 752.176 108.816C753.292 103.191 752.967 97.3344 751.261 91.8746C749.631 95.6949 747.489 99.2838 745.151 102.747ZM546.026 88.3735C547.097 89.1507 548.502 89.717 549.879 90.272C550.17 90.3895 550.46 90.5063 550.744 90.6237C554.053 91.9938 557.41 94.7685 556.905 98.448C556.723 99.7769 556.051 100.969 555.459 102.02C554.614 103.519 554.253 104.292 554.589 104.9C554.916 105.492 555.967 105.762 557.792 105.723C560.227 105.672 562.841 105.394 563.768 103.714C564.029 103.24 564.163 102.617 564.305 101.958C564.427 101.387 564.554 100.796 564.778 100.192C565.406 98.4995 566.978 97.079 568.732 97.1785C568.979 96.9701 569.276 96.6987 569.509 96.486C568.944 95.5548 568.823 94.3323 569.219 93.3306C569.629 92.2945 570.361 91.5768 571.007 90.9436C571.245 90.7106 571.469 90.4907 571.66 90.2722C572.114 89.7516 572.23 89.1757 572.155 89.0822C572.031 88.9293 571.417 88.8078 571.01 88.7273C570.006 88.5287 568.631 88.2565 567.917 86.9097C567.028 85.231 568.05 83.6628 568.726 82.6252C568.855 82.4268 568.977 82.2393 569.078 82.0672C570.218 80.1268 569.438 77.4283 568.684 74.8189C567.866 71.9882 567.074 67.9107 569.618 65.1156C571.548 62.9956 574.542 62.6676 577.216 62.6266C578.288 62.6102 579.372 62.6106 580.424 62.6108C583.405 62.6119 586.493 62.6132 589.448 62.2181C593.903 61.6226 597.437 60.1731 599.953 57.9104C600.553 57.3702 601.473 57.405 602.032 57.9873L608.812 65.0623C608.915 64.4524 608.982 63.8404 609.008 63.2269C609.121 60.5342 608.202 56.8041 605.241 55.1538C602.506 53.6296 599.174 54.4067 595.647 55.2294C592.889 55.8724 590.038 56.5374 587.169 56.2047C585.533 56.0148 584.014 55.5092 582.546 55.0199C581.699 54.7376 580.898 54.4712 580.086 54.2651C575.918 53.2087 571.466 53.766 567.16 54.3048C565.928 54.459 563.045 54.9824 562.878 56.509C562.845 56.8133 562.921 57.2151 563.002 57.6405C563.096 58.1336 563.202 58.6924 563.185 59.3042C563.118 61.8261 561.249 63.3777 559.6 64.7462C559.144 65.1248 558.713 65.4825 558.337 65.8451C556.872 67.2555 556.019 69.3638 555.996 71.629C555.974 73.8942 556.784 76.0189 558.22 77.4586C558.418 77.6579 558.63 77.8609 558.846 78.0681C560.476 79.6335 562.709 81.7775 561.556 84.4871C560.535 86.8857 557.634 87.1832 556.395 87.3105L546.026 88.3735ZM595.67 102.653C597.305 103.662 599.112 104.392 600.993 104.785C601.746 104.942 602.584 104.967 603.218 104.813C603.039 104.54 602.76 104.283 602.416 104.083C601.747 103.695 600.9 103.51 600.019 103.339C598.582 103.06 597.129 102.831 595.67 102.653ZM696.326 24.2202C698.02 29.7254 699.879 34.9556 703.635 38.6669C706.123 41.1265 709.458 42.8884 713.278 43.7624C713.664 43.8508 714.05 43.9294 714.459 44.0127C715.594 44.2437 716.766 44.4822 717.92 44.9369C719.94 45.7325 721.42 47.072 722.087 48.7084C722.938 50.797 722.359 53.0607 721.85 54.582C721.754 54.8662 721.654 55.1504 721.554 55.4351C721.129 56.6384 720.729 57.775 720.74 58.8688C720.751 59.8517 721.311 61.0055 722.129 61.1562C723.188 61.3495 724.307 59.9677 724.831 58.5679C726.015 55.3981 725.814 51.7009 724.294 48.6776C722.754 45.6163 719.866 43.2403 716.569 42.3219C716.058 42.1794 715.66 41.7769 715.525 41.2642C715.389 40.7513 715.535 40.205 715.909 39.8286C718.618 37.1004 723.028 36.2364 726.633 37.728C729.836 39.0534 732.2 42.1301 732.657 45.5659C732.874 47.1916 732.676 48.7534 732.485 50.264C732.37 51.1707 732.262 52.0272 732.243 52.8717C732.203 54.6992 732.831 56.7962 734.323 57.3618C734.689 57.5009 735.082 57.5333 735.473 57.4882C735.773 55.9121 736.025 54.3954 736.071 52.876C736.238 47.4541 733.737 42.1856 731.161 37.2539C729.16 33.4224 726.912 29.5125 723.393 27.4937C720.926 26.0782 718.024 25.6594 714.953 25.2161C713.61 25.0222 712.221 24.8217 710.861 24.5306C706.736 23.6472 702.194 21.3041 700.596 17.2695C698.28 18.8877 696.678 21.4523 696.326 24.2202ZM736.155 40.6366C737.898 44.5313 739.193 48.6324 739.06 52.9685C739.041 53.5903 738.992 54.2085 738.922 54.8226C740.218 52.3142 739.883 48.7914 738.782 45.9746C738.131 44.308 737.283 42.7323 736.385 41.0641C736.308 40.9219 736.232 40.7795 736.155 40.6366Z" fill="white" fill-opacity="0.06"/>
  </svg>