<svg xmlns="http://www.w3.org/2000/svg" width="78" height="81" viewBox="0 0 78 81" fill="none">
  <path d="M76.3943 42.2214C75.3484 41.5153 73.247 40.1065 59.3027 50.5018C59.1231 50.0446 58.8454 49.6325 58.489 49.2944C57.1652 48.0247 54.6604 47.5349 51.0538 47.8325C47.4294 48.0815 43.788 47.8682 40.2174 47.1976C39.2044 46.905 38.2138 46.5398 37.2533 46.1049C35.9139 45.4919 34.5061 45.0412 33.0597 44.7623C23.6847 42.7545 16.6092 45.497 11.9791 52.8986L11.9586 52.8733C11.4933 52.2986 10.8187 51.9323 10.0833 51.8548C9.34792 51.7774 8.61187 51.9952 8.03705 52.4604L1.60376 57.6698C1.03039 58.1359 0.6652 58.8104 0.588205 59.5453C0.51121 60.2803 0.72869 61.0158 1.19299 61.5907L15.6706 79.4689C16.1366 80.0423 16.8109 80.4076 17.5457 80.4847C18.2805 80.5618 19.0159 80.3445 19.5908 79.8803L26.0227 74.6724C26.5798 74.2192 26.9404 73.5684 27.0293 72.8557C27.1182 72.1431 26.9286 71.4236 26.4999 70.8474C30.9839 69.3456 35.7911 69.0871 40.4102 70.0993C42.087 70.3996 43.7837 70.5756 45.4864 70.6259H45.5475C59.4285 70.6259 74.8776 53.3923 77.1423 46.0459C77.8417 43.7749 77.1215 42.7126 76.3943 42.2214ZM17.8785 77.6795L3.39242 59.8776L9.7494 54.6613L23.098 71.1441L23.1016 71.1486L24.1938 72.4971L17.8785 77.6795ZM69.7875 52.7081C64.1355 59.6687 54.4037 67.7839 45.5503 67.7839H45.4975C43.9349 67.731 42.3781 67.5659 40.8391 67.2899C35.4295 66.1219 29.7973 66.5465 24.624 68.5123L13.8867 55.2541C17.8694 48.2508 23.949 45.7107 32.463 47.5418C33.7225 47.7801 34.9481 48.1716 36.1126 48.7074C37.1822 49.1908 38.285 49.597 39.4125 49.923C43.3201 50.6974 47.3134 50.9468 51.2869 50.6648C55.1586 50.3463 56.2729 51.1061 56.5227 51.3461C56.5826 51.3969 56.6291 51.4616 56.6581 51.5346C56.6871 51.6075 56.6978 51.6865 56.6892 51.7645C56.6573 52.5548 54.3065 54.9402 51.0386 56.2613C48.828 57.1571 45.3824 56.8344 42.0505 56.5236C38.8436 56.2232 35.8101 55.9394 33.5329 56.6693C33.3549 56.7259 33.1898 56.817 33.047 56.9375C32.9043 57.0579 32.7867 57.2054 32.701 57.3713C32.6153 57.5373 32.5631 57.7185 32.5475 57.9047C32.532 58.0908 32.5532 58.2782 32.6102 58.4561C32.6671 58.634 32.7586 58.7989 32.8793 58.9415C33.0001 59.084 33.1477 59.2013 33.3139 59.2867C33.48 59.372 33.6614 59.4238 33.8475 59.439C34.0337 59.4542 34.221 59.4326 34.3988 59.3753C36.843 58.9553 39.3402 58.9478 41.7869 59.3531C43.5575 59.5182 45.3574 59.6868 47.067 59.6868C48.781 59.7447 50.4904 59.4765 52.1043 58.8965C54.0917 58.0777 55.917 56.9104 57.4941 55.4499C69.9804 45.7472 73.7054 44.681 74.582 44.5819C74.4571 45.5893 73.2651 48.4236 69.7875 52.7081Z" fill="url(#paint0_linear_510_14271)"/>
  <path d="M72.162 21.8968L66.3559 11.6508C67.1476 11.3772 67.9016 11.0044 68.5996 10.5413C68.9134 10.3336 69.1321 10.01 69.2076 9.64132C69.2832 9.27267 69.2094 8.88911 69.0026 8.57477C68.7957 8.26042 68.4726 8.04096 68.1041 7.9645C67.7357 7.88805 67.3519 7.96085 67.0371 8.16695C66.0638 8.86275 64.8989 9.24014 63.7025 9.24725C61.8013 9.19244 60.3221 7.90398 58.7554 6.53919C57.0138 5.02176 55.06 3.30173 52.3359 3.50571C51.705 3.56479 51.0874 3.72275 50.5056 3.9738V1.92099C50.5056 1.54412 50.3559 1.18268 50.0894 0.916197C49.8229 0.649711 49.4615 0.5 49.0846 0.5C48.7077 0.5 48.3463 0.649711 48.0798 0.916197C47.8133 1.18268 47.6636 1.54412 47.6636 1.92099V4.0803C47.0017 3.76373 46.2881 3.56908 45.5571 3.50571C42.883 3.30109 40.882 5.02107 39.1391 6.53919C37.5724 7.90398 36.0931 9.19244 34.1934 9.24725C32.996 9.24332 31.8297 8.86564 30.8574 8.16695C30.5425 7.96085 30.1588 7.88805 29.7903 7.9645C29.4218 8.04096 29.0987 8.26042 28.8919 8.57477C28.685 8.88911 28.6112 9.27267 28.6868 9.64132C28.7623 10.01 28.981 10.3336 29.2948 10.5413C29.9929 11.0044 30.7468 11.3772 31.5386 11.6508L25.7324 21.8968C25.3858 21.93 25.0638 22.0907 24.8287 22.3476C24.5937 22.6046 24.4623 22.9396 24.4601 23.2878C24.5403 25.6776 25.5639 27.9383 27.3069 29.5752C29.0499 31.212 31.3704 32.0918 33.7605 32.0219C36.1505 32.0917 38.4707 31.2119 40.2135 29.575C41.9563 27.9381 42.9796 25.6774 43.0595 23.2878C43.0572 22.9399 42.9261 22.6051 42.6914 22.3483C42.4567 22.0914 42.1351 21.9307 41.7888 21.8972L36.0662 11.7987C37.9236 11.1395 39.6109 10.075 41.0057 8.68245C42.5196 7.36414 43.8491 6.21792 45.3422 6.33934C46.2131 6.4549 47.0254 6.84195 47.6638 7.44551V25.8329C46.9691 26.1154 46.3743 26.5983 45.9552 27.2201C45.536 27.8419 45.3115 28.5744 45.3103 29.3243V34.4691H38.1401C37.3866 34.47 36.6643 34.7697 36.1315 35.3024C35.5987 35.8352 35.299 36.5576 35.2981 37.3111V38.7633C35.2988 39.3936 35.5494 39.9978 35.9951 40.4435C36.4407 40.8892 37.045 41.1398 37.6752 41.1404H60.3832C61.0135 41.1398 61.6178 40.8892 62.0634 40.4435C62.5091 39.9978 62.7597 39.3936 62.7603 38.7633V37.3111C62.7595 36.5576 62.4598 35.8352 61.927 35.3024C61.3942 34.7697 60.6718 34.47 59.9184 34.4691H52.8579V29.3243C52.8566 28.5746 52.6323 27.8423 52.2134 27.2206C51.7945 26.5988 51.2001 26.1158 50.5058 25.8331V7.21091C51.0891 6.72895 51.7995 6.42624 52.5512 6.33936C54.0818 6.21793 55.3752 7.36416 56.8891 8.68247C58.2838 10.075 59.9712 11.1395 61.8286 11.7986L56.106 21.8972C55.7596 21.9307 55.438 22.0914 55.2033 22.3483C54.9686 22.6051 54.8375 22.9399 54.8353 23.2878C54.9838 25.6533 56.0282 27.8734 57.7559 29.496C59.4835 31.1186 61.7646 32.0218 64.1348 32.0218C66.505 32.0218 68.7861 31.1186 70.5138 29.496C72.2415 27.8734 73.2859 25.6533 73.4344 23.2878C73.4322 22.9396 73.3008 22.6045 73.0658 22.3476C72.8307 22.0906 72.5087 21.93 72.162 21.8968ZM38.5043 21.8668H29.0166L33.7605 13.4949L38.5043 21.8668ZM33.7605 29.1799C32.3715 29.2183 31.0079 28.8024 29.8766 27.9955C28.7454 27.1886 27.9083 26.0346 27.4923 24.7088H40.0273C39.6117 26.0346 38.7748 27.1885 37.6438 27.9954C36.5128 28.8024 35.1494 29.2183 33.7605 29.1799ZM59.9184 38.2984H38.14V37.311H59.9184V38.2984ZM48.1522 34.4691V29.3242C48.1522 29.0771 48.2504 28.8401 48.4251 28.6653C48.5999 28.4906 48.8369 28.3924 49.084 28.3924C49.3311 28.3924 49.5682 28.4906 49.7429 28.6653C49.9177 28.8401 50.0158 29.0771 50.0158 29.3242V34.4691H48.1522ZM68.878 21.8668H59.3903L64.1341 13.4949L68.878 21.8668ZM64.1341 29.1799C62.7453 29.2183 61.3819 28.8024 60.2508 27.9954C59.1198 27.1885 58.283 26.0346 57.8674 24.7088H70.4023C69.9864 26.0346 69.1493 27.1886 68.018 27.9955C66.8868 28.8024 65.5232 29.2183 64.1341 29.1799Z" fill="url(#paint1_linear_510_14271)"/>
  <defs>
    <linearGradient id="paint0_linear_510_14271" x1="0.686793" y1="62.0918" x2="77.4608" y2="62.0918" gradientUnits="userSpaceOnUse">
      <stop stop-color="#4BC6DE"/>
      <stop offset="0.5" stop-color="#00A79C"/>
      <stop offset="0.99" stop-color="#26515C"/>
      <stop offset="1" stop-color="#26515C"/>
    </linearGradient>
    <linearGradient id="paint1_linear_510_14271" x1="24.5326" y1="21.8423" x2="73.4559" y2="21.8423" gradientUnits="userSpaceOnUse">
      <stop stop-color="#4BC6DE"/>
      <stop offset="0.5" stop-color="#00A79C"/>
      <stop offset="0.99" stop-color="#26515C"/>
      <stop offset="1" stop-color="#26515C"/>
    </linearGradient>
  </defs>
</svg>