<svg xmlns="http://www.w3.org/2000/svg" width="80" height="81" viewBox="0 0 80 81" fill="none">
  <path d="M71.5378 35.1794C72.5965 40.57 71.6276 46.1095 68.8186 50.7886C59.9267 65.5778 41.5337 79.66 40.7636 80.25C40.5331 80.4102 40.2635 80.5 39.9939 80.5C39.7243 80.5 39.4548 80.4102 39.2243 80.2383C38.4429 79.6484 20.0495 65.5661 11.1692 50.7769C8.36024 46.0971 7.3875 40.5577 8.45006 35.1677C9.4697 29.9567 12.3608 25.3589 16.3809 22.5385C16.9513 22.14 17.7405 22.2768 18.1428 22.8471C18.5413 23.4174 18.4046 24.2065 17.8342 24.6088C10.294 29.8901 8.28204 41.05 13.3453 49.4681C20.9753 62.1673 36.3876 74.7695 39.9971 77.6165C43.607 74.7649 59.0198 62.1673 66.6489 49.4681C71.7083 41.0383 69.7002 29.8899 62.16 24.6088C61.5896 24.2104 61.4489 23.4174 61.8513 22.8471C62.2498 22.2768 63.0429 22.1361 63.6133 22.5385C67.6256 25.3705 70.5166 29.9683 71.5363 35.1797L71.5378 35.1794ZM27.0234 29.691C28.1016 30.8316 29.0745 32.5113 29.9144 34.6716C30.1644 35.32 30.9028 35.6403 31.5552 35.3903C32.2038 35.1403 32.5241 34.402 32.2741 33.7497C31.313 31.2809 30.1644 29.3199 28.8517 27.941L16.2719 14.6478C15.1819 13.4994 15.2326 11.6869 16.3813 10.597C16.393 10.5853 16.4008 10.5775 16.4008 10.5775C16.9009 10.0775 17.5807 9.80792 18.3425 9.82745C19.1434 9.83917 19.9013 10.1556 20.4326 10.7181L27.082 17.7377C30.6333 21.4877 35.212 23.5464 39.9938 23.5464C44.7756 23.5464 49.3546 21.4877 52.9057 17.7377L59.555 10.7181C60.0746 10.1673 60.7935 9.84698 61.5553 9.82745C62.3171 9.80792 63.036 10.0774 63.5947 10.597C64.7551 11.7689 64.8058 13.5072 63.7158 14.6556L51.124 27.9488C49.4519 29.7184 48.0924 32.3083 46.975 35.8591C46.764 36.531 47.1352 37.2381 47.8032 37.449C47.9322 37.488 48.0533 37.5075 48.1822 37.5075C48.7213 37.5075 49.2215 37.156 49.3933 36.6169C50.3817 33.4763 51.585 31.148 52.9719 29.6871L65.5637 16.3979C67.5835 14.2573 67.5054 10.9174 65.384 8.79624L65.3645 8.7767C64.3252 7.78841 62.9539 7.26498 61.5045 7.30789C60.0629 7.34695 58.7229 7.94851 57.7345 8.98761L51.0851 16.0072C48.0144 19.2455 44.0841 21.0268 40.0135 21.0268C35.9426 21.0268 32.0124 19.2455 28.9419 16.0072L22.2926 8.98761C21.3041 7.93679 19.882 7.32739 18.4014 7.30789C16.9598 7.28835 15.6315 7.81961 14.6509 8.7884C12.5022 10.8392 12.4122 14.2494 14.4516 16.4096L27.0234 29.691ZM44.3029 49.8713C43.8536 53.8205 43.5645 57.7503 43.3027 61.2234C43.2324 62.2117 43.1621 63.1649 43.0918 64.0751C42.9433 66.036 41.3298 66.7235 39.9897 66.7235C38.6614 66.7235 37.0479 66.0321 36.8877 64.0751C36.8173 63.1649 36.747 62.2156 36.6689 61.2234C36.2977 56.1843 35.8289 49.9033 34.8874 44.1722C34.778 43.4808 34.1256 43.012 33.438 43.1331C32.7465 43.2425 32.2776 43.8948 32.3988 44.5823C33.3208 50.2035 33.7779 56.4105 34.149 61.4025C34.2193 62.4025 34.2897 63.3518 34.3678 64.262C34.6374 67.6839 37.4698 69.2425 39.9897 69.2425C42.5096 69.2425 45.3421 67.6839 45.6116 64.262C45.6819 63.3518 45.7523 62.3909 45.8304 61.4025C46.0922 57.9533 46.3813 54.0508 46.8188 50.1524C46.897 49.461 46.3969 48.8321 45.7093 48.754C45.006 48.6797 44.3849 49.1798 44.3029 49.8713ZM31.9341 8.55871C31.9341 4.11725 35.544 0.5 39.9938 0.5C44.4437 0.5 48.0536 4.10945 48.0536 8.55871C48.0536 13.0002 44.4437 16.6174 39.9938 16.6174C35.544 16.6213 31.9341 13.0002 31.9341 8.55871ZM34.4618 8.55871C34.4618 11.6096 36.9426 14.09 39.9937 14.09C43.0449 14.09 45.5257 11.6095 45.5257 8.55871C45.5257 5.50787 43.0449 3.02743 39.9937 3.02743C36.9425 3.03134 34.4618 5.51187 34.4618 8.55871ZM5.5906 39.3211H1.26188C0.562561 39.3211 0 39.8915 0 40.5829C0 41.2821 0.570392 41.8446 1.26188 41.8446H5.5906C6.28992 41.8446 6.85249 41.2743 6.85249 40.5829C6.84858 39.8914 6.2899 39.3211 5.5906 39.3211ZM78.7381 39.1493H74.4094C73.7101 39.1493 73.1475 39.7196 73.1475 40.411C73.1475 41.1102 73.7179 41.6727 74.4094 41.6727H78.7381C79.4374 41.6727 80 41.1024 80 40.411C80 39.7118 79.4296 39.1493 78.7381 39.1493ZM66.9274 41.6805C67.6267 41.6805 68.1893 41.1102 68.1893 40.4188C68.1893 39.7196 67.6189 39.1571 66.9274 39.1571L48.0147 39.161C47.6162 39.161 47.2333 39.3524 47.0029 39.6727L43.7407 44.0517L37.3804 34.0827C37.1616 33.7312 36.7709 33.5124 36.3607 33.5046C35.9388 33.4929 35.552 33.6843 35.302 34.0163L31.3326 39.3562L13.068 39.3523C12.3687 39.3523 11.8061 39.9226 11.8061 40.614C11.8061 41.3132 12.3765 41.8757 13.068 41.8757H31.9687C32.3672 41.8757 32.7501 41.6843 32.9805 41.364L36.2427 36.985L42.603 46.954C42.8218 47.3055 43.2125 47.5243 43.6227 47.5321H43.6735C44.072 47.5321 44.4548 47.3407 44.6853 47.0204L48.6547 41.6805H66.9274Z" fill="url(#paint0_linear_510_14266)"/>
  <defs>
    <linearGradient id="paint0_linear_510_14266" x1="40.7392" y1="149.879" x2="40.7392" y2="49.4812" gradientUnits="userSpaceOnUse">
      <stop stop-color="#F15B2A"/>
      <stop offset="0.34" stop-color="#EB2127"/>
      <stop offset="0.69" stop-color="#E7216A"/>
      <stop offset="1" stop-color="#B41F56"/>
    </linearGradient>
  </defs>
</svg>