<svg xmlns="http://www.w3.org/2000/svg" width="79" height="81" viewBox="0 0 79 81" fill="none">
  <path d="M36.56 26.1849H39.8029C42.8457 26.1849 45.4814 24.7001 47.0286 22.1136C48.6727 19.3675 49.4608 16.0498 49.1314 13.237C48.8794 11.0592 47.7941 9.24234 46.0629 8.06726C47.4615 7.09017 48.55 5.70116 49.1379 4.10133C49.2542 3.7884 49.2186 3.44035 49.041 3.1562C48.8633 2.87201 48.5629 2.68362 48.2302 2.64529C44.7289 2.24935 41.838 3.1083 39.5992 5.19982C39.8608 4.0822 40.2387 2.99336 40.7555 2.15033C41.0688 1.63623 40.9008 0.965684 40.3808 0.655953C39.8608 0.346214 39.1825 0.512262 38.8692 1.02636C37.729 2.89439 37.2542 5.35629 37.0571 6.97198C34.851 6.45149 32.5835 6.72611 30.7617 7.77666C28.7591 8.93261 27.5058 10.8709 27.2313 13.2402C26.9051 16.0533 27.69 19.371 29.3341 22.1168C30.8813 24.7001 33.5173 26.1849 36.56 26.1849ZM43.8308 6.84085C43.7404 6.88236 43.6467 6.92067 43.5563 6.95899C42.7972 6.77379 42.0026 6.69077 41.1951 6.71631C42.5969 5.44542 44.3024 4.78762 46.3503 4.73334C45.7172 5.64022 44.8451 6.37465 43.8308 6.84085ZM29.4181 13.4858C29.6119 11.8158 30.484 10.4555 31.8697 9.65401C32.7547 9.1431 33.7948 8.88765 34.8768 8.88765C35.8232 8.88765 36.8051 9.08243 37.7516 9.47839C38.0261 9.59334 38.3362 9.59334 38.6108 9.47839C40.636 8.63217 42.8325 8.69925 44.4927 9.65721C45.8817 10.4587 46.7506 11.8189 46.9443 13.489C47.2189 15.8455 46.5438 18.6555 45.1323 21.0057C43.9727 22.9439 42.0799 24.0073 39.8027 24.0073H36.5597C34.2825 24.0073 32.3897 22.9407 31.2302 21.0057C29.8219 18.6523 29.1436 15.8423 29.4181 13.4858ZM38.1815 32.5904C33.0392 32.5904 28.8533 36.7287 28.8533 41.812C28.8533 44.2963 29.8385 47.4224 31.4277 49.9705C33.3302 53.0232 35.7301 54.706 38.1817 54.706C40.6366 54.706 43.0333 53.0232 44.9358 49.9705C46.5218 47.4224 47.5102 44.2963 47.5102 41.812C47.5102 36.7253 43.3235 32.5904 38.1815 32.5904ZM43.0588 48.8273C41.5956 51.1775 39.8158 52.525 38.1815 52.525C36.5471 52.525 34.7673 51.1775 33.3042 48.8273C31.9411 46.6368 31.0593 43.8843 31.0593 41.812C31.0593 37.9291 34.2538 34.7711 38.1816 34.7711C42.1093 34.7711 45.3038 37.9291 45.3038 41.812C45.3038 43.8844 44.4219 46.6368 43.0588 48.8273ZM40.9076 45.2222H35.452C34.8415 45.2222 34.3506 45.7108 34.3506 46.3111C34.3506 48.3994 36.069 50.0981 38.1814 50.0981C40.2939 50.0981 42.0122 48.3994 42.0122 46.3111C42.009 45.7108 41.518 45.2222 40.9076 45.2222ZM38.1814 47.9173C37.7098 47.9173 37.2867 47.7193 36.9895 47.4H39.3765C39.0761 47.7193 38.653 47.9173 38.1814 47.9173ZM34.1535 41.8503C33.6367 42.1664 32.9552 42.0099 32.6355 41.499C32.3157 40.9881 32.474 40.3144 32.9908 39.9983C33.9017 39.4395 34.9191 39.4363 35.8525 39.9887C36.3758 40.2984 36.5438 40.9658 36.2305 41.483C36.0237 41.8247 35.6587 42.0131 35.2841 42.0131C35.0903 42.0131 34.8965 41.962 34.7188 41.8566C34.4669 41.7098 34.3409 41.7385 34.1535 41.8503ZM43.356 39.9919C43.8793 40.3016 44.0473 40.969 43.7339 41.4862C43.5272 41.8279 43.1622 42.0163 42.7876 42.0163C42.5938 42.0163 42.4 41.9652 42.2223 41.8598C41.9704 41.7098 41.8444 41.7353 41.657 41.8503C41.1402 42.1664 40.4587 42.0099 40.139 41.499C39.8192 40.9881 39.9775 40.3144 40.4943 39.9983C41.4052 39.4395 42.4225 39.4395 43.356 39.9919ZM62.2422 45.1935C61.4735 44.5038 60.5691 44.1845 59.6194 44.2707C58.6213 44.3601 57.6781 44.903 56.9546 45.8002L44.858 55.9448C44.8257 55.9703 44.7966 56.0022 44.7675 56.031C43.3786 57.4967 41.1079 59.2433 38.1815 59.2433C35.2551 59.2433 32.9876 57.4967 31.5955 56.031C31.5664 56.0022 31.5373 55.9703 31.505 55.9448L19.4051 45.797C18.6816 44.8997 17.7385 44.3601 16.7403 44.2674C15.7939 44.1812 14.8863 44.5006 14.1175 45.1903C12.4895 46.6559 12.3733 48.7219 13.8236 50.459L24.7733 63.5798L23.2616 74.9056C23.2164 75.2376 23.3295 75.5697 23.5652 75.8092C26.4626 78.747 31.9276 80.5 38.1847 80.5C44.4418 80.5 49.9034 78.747 52.8008 75.8092C53.0366 75.5698 53.1497 75.2377 53.1044 74.9056L51.5896 63.5798L62.536 50.4622C63.9863 48.7252 63.8702 46.6592 62.2422 45.1935ZM60.8372 49.0732L49.5964 62.5423C49.183 63.0085 49.2411 63.4779 49.3929 63.794L50.84 74.6415C48.2753 76.9183 43.4949 78.3168 38.1786 78.3168C32.8619 78.3168 28.0814 76.9183 25.5172 74.6415L26.9643 63.794C27.1194 63.4779 27.1743 63.0085 26.7608 62.5423L15.5267 49.0732C14.4802 47.8183 15.3264 47.0551 15.6042 46.8061C15.9046 46.5347 16.2211 46.4134 16.5409 46.4389C16.9446 46.4772 17.3807 46.7582 17.7295 47.2148C17.778 47.2787 17.8329 47.3362 17.8943 47.3873L30.0331 57.5637C32.4427 60.0862 35.2593 61.421 38.1825 61.421C41.1057 61.421 43.9223 60.0863 46.3319 57.5637L58.4707 47.3873C58.532 47.3362 58.5869 47.2787 58.6354 47.2148C58.9843 46.7582 59.4203 46.4772 59.8241 46.4389C60.1438 46.4102 60.4604 46.5315 60.7608 46.8029C61.0386 47.0552 61.8848 47.8184 60.8383 49.0732L60.8372 49.0732ZM55.2072 13.7121C55.527 13.198 56.2052 13.0383 56.7221 13.3544C61.2474 16.1006 65.1076 19.9163 67.8884 24.3932C68.2082 24.9073 68.0434 25.5779 67.5266 25.8908C67.3457 25.9994 67.1487 26.0505 66.9517 26.0505C66.5802 26.0505 66.2185 25.8653 66.0118 25.53C63.4148 21.3469 59.8036 17.777 55.5723 15.2097C55.049 14.8968 54.8874 14.223 55.2072 13.7121ZM10.245 24.3896C13.0228 19.9159 16.8827 16.0998 21.4113 13.3508C21.9314 13.0346 22.6096 13.1975 22.9262 13.7084C23.246 14.2225 23.0812 14.893 22.5644 15.206C18.333 17.7732 14.7218 21.3432 12.1249 25.5262C11.9182 25.8615 11.5532 26.0467 11.185 26.0467C10.9879 26.0467 10.7877 25.9956 10.61 25.8871C10.09 25.5741 9.9252 24.9037 10.245 24.3896ZM76.2706 32.299H75.9605V30.8781C75.9605 29.4763 74.8074 28.3395 73.3926 28.3395H71.9617C70.5437 28.3395 69.3938 29.4794 69.3938 30.8781V32.299H63.0499V30.8781C63.0499 29.4763 61.8968 28.3395 60.482 28.3395H59.0511C57.6331 28.3395 56.4832 29.4794 56.4832 30.8781V32.299H56.1731C54.6679 32.299 53.4437 33.6019 53.4437 35.2016C53.4437 36.8014 54.6679 38.1042 56.1731 38.1042H56.4832V39.5252C56.4832 40.9269 57.6363 42.0638 59.0511 42.0638H60.482C61.9 42.0638 63.0499 40.9238 63.0499 39.5252V38.1042H69.3938V39.5252C69.3938 40.9269 70.5469 42.0638 71.9617 42.0638H73.3926C74.8106 42.0638 75.9605 40.9238 75.9605 39.5252V38.1042H76.2706C77.7758 38.1042 79 36.8014 79 35.2016C79 33.6019 77.7758 32.299 76.2706 32.299ZM56.1639 35.9265C55.9152 35.9265 55.6406 35.6295 55.6406 35.2016C55.6406 34.7737 55.9184 34.4768 56.1639 34.4768H56.474V35.9232L56.1639 35.9265ZM60.841 39.5283C60.841 39.7231 60.673 39.8891 60.476 39.8891H59.045C58.848 39.8891 58.68 39.7231 58.68 39.5283V30.8781C58.68 30.6833 58.848 30.5172 59.045 30.5172H60.476C60.673 30.5172 60.841 30.6833 60.841 30.8781V39.5283ZM63.0471 35.9265V34.48H69.3909V35.9265H63.0471ZM73.7545 39.5283C73.7545 39.7231 73.5866 39.8891 73.3895 39.8891H71.9586C71.7616 39.8891 71.5936 39.7231 71.5936 39.5283V30.8781C71.5936 30.6833 71.7616 30.5172 71.9586 30.5172H73.3895C73.5866 30.5172 73.7545 30.6833 73.7545 30.8781V39.5283ZM76.2708 35.9265H75.9607V34.48H76.2708C76.5195 34.48 76.794 34.7769 76.794 35.2048C76.794 35.6295 76.5162 35.9265 76.2708 35.9265ZM17.8906 39.8157C22.9036 35.9903 22.5515 32.133 22.1672 30.6546C21.5438 28.2469 19.5799 26.4492 17.167 26.0756C14.9609 25.7339 12.842 26.612 11.1818 28.512C9.52152 26.6152 7.40261 25.7339 5.19969 26.0756C2.78682 26.4492 0.822951 28.2469 0.199557 30.6546C-0.184815 32.133 -0.536889 35.9903 4.47616 39.8157C5.19323 40.3649 5.96522 40.8152 6.71133 41.2558C8.02923 42.0317 9.27279 42.763 10.3419 44.0147C10.5518 44.2606 10.8587 44.4043 11.1849 44.4043C11.5111 44.4043 11.818 44.2638 12.0279 44.0147C13.0971 42.763 14.3406 42.0317 15.6585 41.2558C16.4014 40.8152 17.1735 40.3617 17.8906 39.8157ZM11.185 41.7252C10.09 40.7034 8.9078 40.0072 7.83863 39.3782C7.11833 38.9535 6.4368 38.5544 5.82308 38.0882C3.02587 35.952 1.7532 33.439 2.33459 31.1942C2.74158 29.6295 3.99805 28.4672 5.54202 28.2277C7.27337 27.9595 8.99173 28.943 10.2514 30.9228C10.4549 31.2389 10.807 31.4337 11.1849 31.4337C11.5628 31.4337 11.9149 31.2421 12.1184 30.9228C13.3781 28.9398 15.0965 27.9595 16.8278 28.2277C18.3717 28.4672 19.6282 29.6328 20.0352 31.1942C20.6166 33.439 19.3472 35.952 16.5467 38.0882C15.933 38.5544 15.2547 38.9567 14.5312 39.3782C13.462 40.0073 12.2799 40.7034 11.185 41.7252Z" fill="url(#paint0_linear_510_14261)"/>
  <defs>
    <linearGradient id="paint0_linear_510_14261" x1="0.116973" y1="42.5119" x2="79.0347" y2="42.5119" gradientUnits="userSpaceOnUse">
      <stop stop-color="#4BC6DE"/>
      <stop offset="0.5" stop-color="#00A79C"/>
      <stop offset="0.99" stop-color="#26515C"/>
      <stop offset="1" stop-color="#26515C"/>
    </linearGradient>
  </defs>
</svg>