<svg xmlns="http://www.w3.org/2000/svg" width="82" height="83" viewBox="0 0 82 83" fill="none">
    <path d="M16.5684 71.3541V72.7916C16.5762 77.4596 20.3496 81.2486 25.0176 81.2721H56.2676C60.9473 81.2643 64.7403 77.4713 64.7481 72.7916V60.2176C64.7481 59.9324 64.9786 59.698 65.2676 59.698C65.4043 59.698 65.5371 59.7527 65.6348 59.8504C65.7325 59.948 65.7871 60.0808 65.7871 60.2176V72.7916C65.7832 78.0455 61.5215 82.3072 56.2676 82.3111H25.0176C19.7637 82.3072 15.502 78.0455 15.4981 72.7916V71.3541C15.4981 71.065 15.7286 70.8345 16.0177 70.8345C16.1622 70.8228 16.3028 70.8775 16.4044 70.9752C16.5099 71.0728 16.5684 71.2095 16.5684 71.3541ZM59.8184 40.3971C59.959 40.3971 60.0918 40.3424 60.1895 40.2447C60.2871 40.1471 60.3418 40.0143 60.3418 39.8736V28.1356C60.3418 27.4442 60.0645 26.784 59.5762 26.2958C59.0879 25.8076 58.4278 25.5302 57.7364 25.5302H23.5294C22.088 25.5302 20.9239 26.6982 20.9239 28.1357V63.9907C20.9278 64.2759 21.1583 64.5063 21.4434 64.5102C21.584 64.5102 21.7169 64.4556 21.8145 64.3579C21.9122 64.2603 21.9669 64.1274 21.9669 63.9907V28.1357C21.9669 27.2724 22.6661 26.5732 23.5294 26.5732H57.7364C58.5996 26.5732 59.2989 27.2724 59.2989 28.1357V39.8737C59.2989 40.0143 59.3535 40.1472 59.4512 40.2448C59.5488 40.3425 59.6817 40.3971 59.8184 40.3971ZM46.8924 75.8661H23.5294C22.6661 75.8661 21.9669 75.1668 21.9669 74.3036V71.2802C21.9669 71.1434 21.9122 71.0106 21.8145 70.913C21.7169 70.8153 21.5841 70.7606 21.4435 70.7606C21.1583 70.7606 20.9239 70.995 20.9239 71.2802V74.3036C20.9239 74.9911 21.1974 75.6552 21.6856 76.1434C22.1739 76.6316 22.8379 76.9051 23.5294 76.9051H46.8924C47.0292 76.9051 47.162 76.8504 47.2596 76.7527C47.3573 76.6551 47.412 76.5223 47.412 76.3856C47.412 76.2488 47.3573 76.116 47.2596 76.0184C47.162 75.9207 47.0291 75.8661 46.8924 75.8661ZM32.7244 66.8231C32.4392 66.827 32.2088 67.0574 32.2049 67.3426C32.2049 68.6551 31.1424 69.7176 29.8299 69.7176C29.2634 69.7137 28.7205 69.5106 28.2869 69.1473C28.1931 69.0496 28.0603 68.991 27.9236 68.991C27.7869 68.991 27.654 69.0496 27.5603 69.1473C27.3728 69.366 27.3962 69.6942 27.6111 69.8856C28.6228 70.7488 30.0486 70.9481 31.2595 70.3895C32.4704 69.8348 33.2439 68.6239 33.2478 67.2918C33.2204 67.0262 32.9939 66.8231 32.7244 66.8231ZM32.7244 53.3741C32.865 53.3741 32.9978 53.3194 33.0955 53.2217C33.1931 53.1241 33.2478 52.9912 33.2478 52.8545V35.1355C33.2439 33.9597 32.6384 32.866 31.6423 32.241C30.5915 31.577 29.2634 31.5418 28.1814 32.1434C27.0955 32.7449 26.4236 33.8934 26.4353 35.1356V63.4796C26.4353 63.6163 26.49 63.7491 26.5877 63.8468C26.6853 63.9444 26.8181 63.9991 26.9548 63.9991C27.0916 63.9991 27.2244 63.9444 27.322 63.8468C27.4197 63.7491 27.4744 63.6163 27.4744 63.4796V35.1356C27.4744 33.827 28.533 32.7645 29.8416 32.7606C30.283 32.7606 30.7166 32.8856 31.0916 33.1239C31.7869 33.5535 32.2088 34.3153 32.2049 35.1356V52.8426C32.201 52.9832 32.2557 53.1199 32.3533 53.2176C32.451 53.3191 32.5877 53.3741 32.7244 53.3741ZM43.5294 41.0731C43.6661 41.0731 43.7989 41.0184 43.8966 40.9207C43.9942 40.8231 44.0489 40.6902 44.0489 40.5535V35.1355C44.0489 33.991 43.4747 32.9207 42.5177 32.2917C41.9669 31.905 41.3146 31.6902 40.6427 31.6784C39.7287 31.6784 38.8536 32.0417 38.213 32.6941C37.5685 33.3425 37.213 34.2214 37.2247 35.1355V39.9166C37.2247 40.0534 37.2794 40.1862 37.3771 40.2838C37.4747 40.3815 37.6075 40.4362 37.7482 40.4362C37.8849 40.4362 38.0177 40.3815 38.1154 40.2838C38.213 40.1862 38.2677 40.0534 38.2677 39.9166V35.1355C38.256 34.4987 38.5021 33.8855 38.9474 33.4285C39.3966 32.9753 40.006 32.7175 40.6427 32.7175C41.1075 32.7253 41.5646 32.862 41.9552 33.116C42.6075 33.5613 42.9982 34.3035 42.9982 35.0926V40.5535C42.9982 40.6902 43.0529 40.8269 43.1544 40.9245C43.2521 41.0222 43.3888 41.077 43.5294 41.0731ZM54.3304 44.7293C54.6155 44.7254 54.846 44.4949 54.8499 44.2097V35.1355C54.8499 33.2488 53.3226 31.7175 51.4358 31.7175C49.549 31.7175 48.0178 33.2487 48.0178 35.1355V42.4285C48.0178 42.5652 48.0725 42.6981 48.1702 42.7957C48.2678 42.8934 48.4006 42.9481 48.5373 42.9481C48.678 42.9481 48.8108 42.8934 48.9084 42.7957C49.0061 42.6981 49.0608 42.5652 49.0608 42.4285V35.1355C49.0608 33.823 50.1233 32.7605 51.4358 32.7605C52.7444 32.7605 53.8108 33.823 53.8108 35.1355V44.2488C53.8303 44.5223 54.0569 44.7293 54.3304 44.7293ZM14.2684 68.1863C7.23719 68.1863 2.31139 66.3113 0.623388 62.6668C-1.98211 57.0106 3.69759 48.0848 15.4554 39.5108H15.5296V29.6553C15.5335 24.4561 19.7054 20.2217 24.9046 20.1358V5.55376C24.9202 2.73736 27.2054 0.463961 30.0179 0.459961H51.2559C54.0801 0.47168 56.3653 2.76076 56.3731 5.58496V20.167C61.5723 20.2529 65.7403 24.4873 65.7481 29.6865V36.6474C65.7481 36.7841 65.6934 36.9169 65.5958 37.0145C65.4981 37.1122 65.3653 37.1669 65.2247 37.1669C64.9395 37.1669 64.7051 36.9325 64.7051 36.6474V29.6552C64.7012 24.9911 60.9317 21.206 56.2676 21.1786H25.0176C20.3379 21.1825 16.5449 24.9755 16.5371 29.6552V65.0732C16.5332 65.3583 16.3028 65.5888 16.0176 65.5927C15.7286 65.5927 15.4981 65.3622 15.4981 65.0732V40.7612C4.56809 48.9487 -0.774913 57.1362 1.56809 62.2182C4.18529 67.9057 15.8301 68.7924 31.2671 64.4682C31.5444 64.3979 31.8257 64.558 31.9038 64.8354C31.9429 64.9643 31.9233 65.1049 31.8569 65.226C31.7905 65.3471 31.6812 65.433 31.5483 65.4682C25.935 67.144 20.1223 68.058 14.2673 68.187L14.2684 68.1863ZM50.7254 20.1353V6.10426H30.5374V20.1353H50.7364H50.7254ZM25.9324 5.55326V20.1353H29.4988V5.55326C29.4988 5.2642 29.7293 5.02982 30.0183 5.02982H51.2563C51.3969 5.02982 51.5298 5.08451 51.6274 5.18216C51.7251 5.27981 51.7797 5.41263 51.7797 5.55325V20.1353H55.3306V5.55325C55.3306 3.29935 53.5102 1.47515 51.2563 1.46735H30.0183C28.9324 1.47126 27.8894 1.90876 27.1277 2.67825C26.3621 3.45169 25.9363 4.49855 25.9441 5.58445L25.9324 5.55326ZM66.4524 20.1353H66.4563C66.1672 20.1353 65.9368 20.3696 65.9368 20.6548C65.9368 20.9439 66.1672 21.1782 66.4563 21.1782C73.4446 21.0845 78.1553 22.8227 79.6633 26.104C81.0383 29.0728 79.8195 33.104 76.1633 37.772C75.9875 37.9986 76.0227 38.3267 76.2492 38.5103C76.3391 38.5806 76.4563 38.6158 76.5695 38.6158C76.7297 38.6158 76.882 38.5416 76.9758 38.4166C80.9016 33.4283 82.1828 29.0416 80.6125 25.6666C78.9445 22.0611 73.9055 20.1041 66.4675 20.2096L66.4524 20.1353ZM76.6204 44.3423H76.6243C76.6985 44.4555 76.7259 44.5962 76.6985 44.729C76.6712 44.8618 76.5891 44.979 76.4759 45.0532L62.5189 54.5415L60.0384 75.3735C59.843 77.0337 58.515 78.3344 56.8509 78.4985L52.8704 78.9165H52.8743C52.7532 78.9165 52.636 78.8774 52.5383 78.8032C52.4289 78.7094 52.3625 78.5805 52.3508 78.436C52.0578 73.8422 51.6008 66.674 51.3078 61.768L36.9758 70.7485C36.8899 70.7993 36.7961 70.8227 36.6946 70.8227H36.5696C36.4328 70.7915 36.3157 70.7055 36.2493 70.5844L35.6555 69.5414C34.4367 67.5531 34.8274 64.975 36.5813 63.4359L28.6868 61.0492V61.0531C28.5423 61.0141 28.4251 60.9125 28.3626 60.7797C28.304 60.6391 28.304 60.4828 28.3626 60.3422C29.7649 57.1899 33.0462 55.3031 36.4759 55.6781L41.9564 56.2836L45.4134 54.2016L33.8004 47.2407C33.6519 47.1508 33.5582 46.9946 33.5504 46.8227C33.5308 46.6547 33.6012 46.4868 33.7379 46.3852L36.8629 43.7914C37.8277 43.0062 39.1246 42.7719 40.3004 43.1664L55.3824 48.3734L66.2694 41.9593C69.8202 39.846 74.41 40.9359 76.6324 44.4163L76.6204 44.3423ZM46.4754 53.647L54.2371 49.065L39.9871 44.1548C39.1551 43.8774 38.2332 44.0415 37.5496 44.5923L34.9676 46.6743L46.4754 53.647ZM75.4634 44.565L75.4673 44.5611C73.4282 41.8658 69.6939 41.1314 66.7876 42.8541L42.3816 57.2721C42.2878 57.3307 42.1746 57.3541 42.0613 57.3424L36.4051 56.7057V56.7096C33.6082 56.3892 30.9012 57.8034 29.5692 60.2799L37.9012 62.7916H37.9051C38.1082 62.8502 38.2566 63.0259 38.2801 63.2408C38.2918 63.4517 38.1824 63.647 37.9988 63.7486C37.0809 64.2369 36.4011 65.0806 36.1238 66.0806C35.8465 67.0806 35.991 68.1509 36.5301 69.0415L36.8543 69.5845L50.8503 60.7173C50.9323 60.6743 51.0222 60.6508 51.112 60.6469C50.9558 58.1977 50.8425 56.4789 50.8308 56.3774V56.3735C50.8034 56.0884 51.0105 55.8306 51.2995 55.8032C51.5886 55.772 51.8425 55.9829 51.8738 56.272C51.8738 56.7837 53.0495 74.385 53.2682 77.792L56.7057 77.4365C57.8894 77.3154 58.8269 76.3896 58.9675 75.2099L61.4753 54.3039C61.4596 54.2336 61.4596 54.1633 61.4753 54.093L61.8932 50.6047C61.9284 50.3156 62.1901 50.1125 62.4753 50.1476C62.7643 50.1828 62.9713 50.4406 62.9362 50.7297L62.6432 53.1789L75.4634 44.565Z" fill="url(#paint0_linear_182_66708)"/>
    <defs>
      <linearGradient id="paint0_linear_182_66708" x1="41.3836" y1="153.295" x2="41.3836" y2="50.5746" gradientUnits="userSpaceOnUse">
        <stop stop-color="#F15B2A"/>
        <stop offset="0.34" stop-color="#EB2127"/>
        <stop offset="0.69" stop-color="#E7216A"/>
        <stop offset="1" stop-color="#B41F56"/>
      </linearGradient>
    </defs>
  </svg>