<svg xmlns="http://www.w3.org/2000/svg" width="81" height="81" viewBox="0 0 81 81" fill="none">
    <path d="M40.5 0.500208C18.4751 0.500208 0.5 18.4991 0.5 40.5533C0.5 49.1889 3.20296 57.5118 8.39777 64.375L5.17532 79.1467L20.3462 75.0911C26.4744 78.6266 33.4392 80.5 40.5 80.5C62.5249 80.5 80.5 62.5011 80.5 40.4469C80.5 18.3928 62.5249 0.500208 40.5 0.500208ZM59.7208 56.3654L57.8498 58.2388C55.9789 60.1123 53.2801 61.0469 50.6827 60.6324C25.1221 56.6783 20.7595 38.5783 20.1393 30.3565C19.9323 27.8613 20.8657 25.4677 22.6311 23.8015L24.916 21.5136C26.3689 20.0588 28.6579 20.0588 30.1108 21.5136L34.9931 26.4024C36.446 27.8572 36.446 30.1493 34.9931 31.6041L32.1887 34.2049C31.5637 34.8307 31.2553 35.8711 31.5637 36.7001C32.4972 39.6138 35.5126 46.0631 44.238 49.2902C45.1715 49.6032 46.2104 49.3959 46.8354 48.6644L49.5384 45.9579C50.9913 44.5031 53.2803 44.5031 54.7332 45.9579L59.8224 51.0539C61.1739 52.6225 61.1737 54.9105 59.7208 56.3654Z" fill="#069183"/>
  </svg>